ply
format ascii 1.0
comment Created by Blender3D 248 - www.blender.org, source file: 
element vertex 38
property float x
property float y
property float z
property float nx
property float ny
property float nz
element face 18
property list uchar uint vertex_indices
end_header
0.000000 0.000000 -0.067500 -0.000000 0.000000 -1.000000 
0.024749 0.024749 -0.067500 -0.000000 0.000000 -1.000000 
0.033807 -0.009059 -0.067500 -0.000000 0.000000 -1.000000 
0.000000 0.000000 0.067500 0.000000 0.000000 1.000000 
0.033807 -0.009059 0.067500 0.000000 0.000000 1.000000 
0.024749 0.024749 0.067500 0.000000 0.000000 1.000000 
0.009059 -0.033807 -0.067500 0.000000 0.000000 -1.000000 
0.009059 -0.033807 0.067500 0.000000 0.000000 1.000000 
-0.024749 -0.024749 -0.067500 0.000000 0.000000 -1.000000 
-0.024749 -0.024749 0.067500 0.000000 -0.000000 1.000000 
-0.033807 0.009059 -0.067500 0.000000 0.000000 -1.000000 
-0.033807 0.009059 0.067500 -0.000000 -0.000000 1.000000 
-0.009059 0.033807 -0.067500 0.000000 -0.000000 -1.000000 
-0.009059 0.033807 0.067500 -0.000000 0.000000 1.000000 
0.024749 0.024749 -0.067500 0.965926 0.258819 -0.000000 
0.024749 0.024749 0.067500 0.965926 0.258819 -0.000000 
0.033807 -0.009059 0.067500 0.965926 0.258819 -0.000000 
0.033807 -0.009059 -0.067500 0.965926 0.258819 -0.000000 
0.033807 -0.009059 -0.067500 0.707107 -0.707107 -0.000000 
0.033807 -0.009059 0.067500 0.707107 -0.707107 -0.000000 
0.009059 -0.033807 0.067500 0.707107 -0.707107 -0.000000 
0.009059 -0.033807 -0.067500 0.707107 -0.707107 -0.000000 
0.009059 -0.033807 -0.067500 -0.258819 -0.965926 -0.000000 
0.009059 -0.033807 0.067500 -0.258819 -0.965926 -0.000000 
-0.024749 -0.024749 0.067500 -0.258819 -0.965926 -0.000000 
-0.024749 -0.024749 -0.067500 -0.258819 -0.965926 -0.000000 
-0.024749 -0.024749 -0.067500 -0.965926 -0.258819 -0.000000 
-0.024749 -0.024749 0.067500 -0.965926 -0.258819 -0.000000 
-0.033807 0.009059 0.067500 -0.965926 -0.258819 -0.000000 
-0.033807 0.009059 -0.067500 -0.965926 -0.258819 -0.000000 
-0.033807 0.009059 -0.067500 -0.707107 0.707107 -0.000000 
-0.033807 0.009059 0.067500 -0.707107 0.707107 -0.000000 
-0.009059 0.033807 0.067500 -0.707107 0.707107 -0.000000 
-0.009059 0.033807 -0.067500 -0.707107 0.707107 -0.000000 
0.024749 0.024749 0.067500 0.258819 0.965926 0.000000 
0.024749 0.024749 -0.067500 0.258819 0.965926 0.000000 
-0.009059 0.033807 -0.067500 0.258819 0.965926 0.000000 
-0.009059 0.033807 0.067500 0.258819 0.965926 0.000000 
3 0 1 2 
3 3 4 5 
3 0 2 6 
3 3 7 4 
3 0 6 8 
3 3 9 7 
3 0 8 10 
3 3 11 9 
3 0 10 12 
3 3 13 11 
3 12 1 0 
3 3 5 13 
4 14 15 16 17 
4 18 19 20 21 
4 22 23 24 25 
4 26 27 28 29 
4 30 31 32 33 
4 34 35 36 37 
