ply
format ascii 1.0
comment Created by Blender3D 248 - www.blender.org, source file: 
element vertex 322
property float x
property float y
property float z
property float nx
property float ny
property float nz
element face 276
property list uchar uint vertex_indices
end_header
-0.000000 -0.000000 -0.015000 0.000000 0.000000 -1.000000 
0.002704 0.001120 -0.014712 0.180151 0.074618 -0.980773 
0.002926 0.000000 -0.014712 0.195013 0.000000 -0.980773 
0.002069 0.002069 -0.014712 0.137883 0.137883 -0.980773 
0.001120 0.002704 -0.014712 0.074618 0.180151 -0.980773 
0.000000 0.002926 -0.014712 0.000000 0.195013 -0.980773 
-0.001120 0.002704 -0.014712 -0.074618 0.180151 -0.980773 
-0.002069 0.002069 -0.014712 -0.137883 0.137883 -0.980773 
-0.002704 0.001120 -0.014712 -0.180151 0.074618 -0.980773 
-0.002926 -0.000000 -0.014712 -0.195013 0.000000 -0.980773 
-0.002704 -0.001120 -0.014712 -0.180151 -0.074618 -0.980773 
-0.002069 -0.002069 -0.014712 -0.137883 -0.137883 -0.980773 
-0.001120 -0.002704 -0.014712 -0.074618 -0.180151 -0.980773 
0.000000 -0.002926 -0.014712 0.000000 -0.195013 -0.980773 
0.001120 -0.002704 -0.014712 0.074618 -0.180151 -0.980773 
0.002069 -0.002069 -0.014712 0.137883 -0.137883 -0.980773 
0.002704 -0.001120 -0.014712 0.180151 -0.074618 -0.980773 
-0.006635 0.006635 0.011611 0.000000 0.000000 1.000000 
-0.008668 -0.003591 0.011611 0.000000 0.000000 1.000000 
-0.003591 0.008668 0.011611 0.000000 0.000000 1.000000 
-0.001913 -0.004619 0.005450 0.000000 0.000000 1.000000 
-0.000000 -0.005000 0.005450 0.000000 0.000000 1.000000 
0.001913 -0.004619 0.005450 0.000000 0.000000 1.000000 
-0.000097 0.004981 0.005450 0.000000 0.000000 1.000000 
-0.001913 0.004619 0.005450 0.000000 0.000000 1.000000 
-0.003536 0.003536 0.005450 0.000000 0.000000 1.000000 
-0.002766 -0.004050 0.005450 0.000000 0.000000 1.000000 
0.004619 -0.001913 0.005450 0.000000 0.000000 1.000000 
-0.005000 0.000000 0.005450 0.000000 0.000000 1.000000 
0.001913 0.004619 0.005450 0.000000 0.000000 1.000000 
0.000000 0.005000 0.005450 0.000000 0.000000 1.000000 
0.003536 0.003536 0.005450 -0.555132 -0.831751 0.000000 
0.003536 0.003536 0.005450 -0.706717 -0.707450 0.000000 
0.003536 0.003536 0.011611 -0.658498 -0.752556 0.000000 
0.003591 0.008668 0.011611 0.000000 0.000000 1.000000 
-0.000021 0.004996 0.011611 0.000000 0.000000 1.000000 
0.000000 0.005000 0.011611 0.000000 0.000000 1.000000 
0.008668 0.003591 0.011611 0.000000 0.000000 1.000000 
0.004619 0.001913 0.011611 0.000000 0.000000 1.000000 
0.004800 0.001006 0.011611 0.000000 0.000000 1.000000 
0.004619 0.001913 0.005450 -0.947172 -0.320719 0.000000 
0.004800 0.001006 0.011611 -0.980773 -0.195074 0.000000 
0.004619 0.001913 0.011611 -0.923856 -0.382672 0.000000 
-0.000097 0.004981 0.011611 0.000000 0.000000 1.000000 
-0.002766 -0.004050 0.005450 0.555559 0.831446 0.000000 
-0.003369 -0.003646 0.011611 0.555559 0.831446 0.000000 
-0.002766 -0.004050 0.011611 0.555559 0.831446 0.000000 
-0.006635 -0.006635 0.011611 0.000000 0.000000 1.000000 
-0.003536 -0.003536 0.011611 0.000000 0.000000 1.000000 
-0.003536 -0.003536 0.011611 0.000000 0.000000 1.000000 
-0.003536 -0.003536 0.011611 0.708762 0.705435 0.000000 
-0.003536 -0.003536 0.011611 0.556871 0.830592 0.000000 
-0.003536 -0.003536 0.005450 0.659963 0.751274 0.000000 
-0.004619 0.001913 0.011611 0.000000 0.000000 1.000000 
-0.003536 0.003536 0.011611 0.000000 0.000000 1.000000 
0.000000 0.009383 0.011611 0.000000 0.000000 1.000000 
0.003536 0.003536 0.011611 -0.555559 -0.831446 0.000000 
0.001913 0.004619 0.011611 -0.382672 -0.923856 0.000000 
0.001913 0.004619 0.005450 -0.442946 -0.896512 0.000000 
0.004957 0.000217 0.011611 0.000000 0.000000 1.000000 
-0.005000 0.000000 0.011611 0.000000 0.000000 1.000000 
-0.004981 0.000097 0.011611 0.000000 0.000000 1.000000 
-0.005000 0.000000 0.005450 0.997803 -0.066134 0.000000 
-0.004981 0.000097 0.011611 0.980773 -0.195074 0.000000 
-0.005000 0.000000 0.011611 1.000000 0.000000 0.000000 
-0.001913 0.004619 0.011611 0.000000 0.000000 1.000000 
-0.000097 0.004981 0.011611 0.195074 -0.980773 0.000000 
-0.001913 0.004619 0.011611 0.382672 -0.923856 0.000000 
-0.001913 0.004619 0.005450 0.320719 -0.947172 0.000000 
-0.004619 -0.001913 0.011611 0.000000 0.000000 1.000000 
0.001913 0.004619 0.011611 0.000000 0.000000 1.000000 
0.009383 0.000000 0.011611 0.000000 0.000000 1.000000 
0.005000 -0.000000 0.011611 0.000000 0.000000 1.000000 
0.004619 -0.001913 0.011611 0.000000 0.000000 1.000000 
0.003536 -0.003536 0.011611 0.000000 0.000000 1.000000 
-0.000000 -0.005000 0.011611 0.000000 0.000000 1.000000 
-0.001913 -0.004619 0.011611 0.000000 0.000000 1.000000 
-0.003591 -0.008668 0.011611 0.000000 0.000000 1.000000 
0.001913 -0.004619 0.011611 0.000000 0.000000 1.000000 
0.005303 0.002197 -0.013858 0.353435 0.146397 -0.923917 
0.005740 0.000000 -0.013858 0.382550 0.000000 -0.923917 
0.007699 0.003189 -0.012472 0.513138 0.212531 -0.831538 
0.008334 0.000000 -0.012472 0.555406 0.000000 -0.831538 
0.009799 0.004059 -0.010607 0.653157 0.270547 -0.707236 
0.010607 0.000000 -0.010607 0.706961 0.000000 -0.707236 
0.011523 0.004773 -0.008334 0.768090 0.318125 -0.555712 
0.012472 0.000000 -0.008334 0.831355 0.000000 -0.555712 
0.012803 0.005303 -0.005740 0.853481 0.353526 -0.382794 
0.013858 0.000000 -0.005740 0.923826 0.000000 -0.382794 
0.013592 0.005630 -0.002926 0.906095 0.375317 -0.195135 
0.014712 0.000000 -0.002926 0.980743 0.000000 -0.195135 
0.013858 0.005740 0.000000 0.923856 0.382672 0.000000 
0.015000 0.000000 0.000000 1.000000 0.000000 0.000000 
0.013592 0.005630 0.002926 0.906095 0.375317 0.195135 
0.014712 0.000000 0.002926 0.980743 0.000000 0.195135 
0.012803 0.005303 0.005740 0.853481 0.353526 0.382794 
0.013858 0.000000 0.005740 0.923826 0.000000 0.382794 
0.011523 0.004773 0.008334 0.768090 0.318125 0.555712 
0.012472 0.000000 0.008334 0.831355 0.000000 0.555712 
0.009799 0.004059 0.010607 0.653157 0.270547 0.707236 
0.010607 0.000000 0.010607 0.706961 0.000000 0.707236 
0.008819 0.008819 0.008334 0.587848 0.587848 0.555712 
0.007500 0.007500 0.010607 0.499893 0.499893 0.707236 
0.009799 0.009799 0.005740 0.653218 0.653218 0.382794 
0.010403 0.010403 0.002926 0.693503 0.693503 0.195135 
0.010607 0.010607 0.000000 0.707083 0.707083 0.000000 
0.010403 0.010403 -0.002926 0.693503 0.693503 -0.195135 
0.009799 0.009799 -0.005740 0.653218 0.653218 -0.382794 
0.008819 0.008819 -0.008334 0.587848 0.587848 -0.555712 
0.007500 0.007500 -0.010607 0.499893 0.499893 -0.707236 
0.005893 0.005893 -0.012472 0.392743 0.392743 -0.831538 
0.004059 0.004059 -0.013858 0.270486 0.270486 -0.923917 
0.002197 0.005303 -0.013858 0.146397 0.353435 -0.923917 
0.003189 0.007699 -0.012472 0.212531 0.513138 -0.831538 
0.004059 0.009799 -0.010607 0.270547 0.653157 -0.707236 
0.004773 0.011523 -0.008334 0.318125 0.768090 -0.555712 
0.005303 0.012803 -0.005740 0.353526 0.853481 -0.382794 
0.005630 0.013592 -0.002926 0.375317 0.906095 -0.195135 
0.005740 0.013858 0.000000 0.382672 0.923856 0.000000 
0.005630 0.013592 0.002926 0.375317 0.906095 0.195135 
0.005303 0.012803 0.005740 0.353526 0.853481 0.382794 
0.004773 0.011523 0.008334 0.318125 0.768090 0.555712 
0.004059 0.009799 0.010607 0.270547 0.653157 0.707236 
0.000000 0.012472 0.008334 0.000000 0.831355 0.555712 
0.000000 0.010607 0.010607 0.000000 0.706961 0.707236 
0.000000 0.013858 0.005740 0.000000 0.923826 0.382794 
0.000000 0.014712 0.002926 0.000000 0.980743 0.195135 
-0.000000 0.015000 0.000000 0.000000 1.000000 0.000000 
-0.000000 0.014712 -0.002926 0.000000 0.980743 -0.195135 
0.000000 0.013858 -0.005740 0.000000 0.923826 -0.382794 
0.000000 0.012472 -0.008334 0.000000 0.831355 -0.555712 
0.000000 0.010607 -0.010607 0.000000 0.706961 -0.707236 
-0.000000 0.008334 -0.012472 0.000000 0.555406 -0.831538 
-0.000000 0.005740 -0.013858 0.000000 0.382550 -0.923917 
-0.002197 0.005303 -0.013858 -0.146397 0.353435 -0.923917 
-0.003189 0.007699 -0.012472 -0.212531 0.513138 -0.831538 
-0.004059 0.009799 -0.010607 -0.270547 0.653157 -0.707236 
-0.004773 0.011523 -0.008334 -0.318125 0.768090 -0.555712 
-0.005303 0.012803 -0.005740 -0.353526 0.853481 -0.382794 
-0.005630 0.013592 -0.002926 -0.375317 0.906095 -0.195135 
-0.005740 0.013858 0.000000 -0.382672 0.923856 0.000000 
-0.005630 0.013592 0.002926 -0.375317 0.906095 0.195135 
-0.005303 0.012803 0.005740 -0.353526 0.853481 0.382794 
-0.004773 0.011523 0.008334 -0.318125 0.768090 0.555712 
-0.004059 0.009799 0.010607 -0.270547 0.653157 0.707236 
-0.008819 0.008819 0.008334 -0.587848 0.587848 0.555712 
-0.007500 0.007500 0.010607 -0.499893 0.499893 0.707236 
-0.009799 0.009799 0.005740 -0.653218 0.653218 0.382794 
-0.010403 0.010403 0.002926 -0.693503 0.693503 0.195135 
-0.010607 0.010607 0.000000 -0.707083 0.707083 0.000000 
-0.010403 0.010403 -0.002926 -0.693503 0.693503 -0.195135 
-0.009799 0.009799 -0.005740 -0.653218 0.653218 -0.382794 
-0.008819 0.008819 -0.008334 -0.587848 0.587848 -0.555712 
-0.007500 0.007500 -0.010607 -0.499893 0.499893 -0.707236 
-0.005893 0.005893 -0.012472 -0.392743 0.392743 -0.831538 
-0.004059 0.004059 -0.013858 -0.270486 0.270486 -0.923917 
-0.005303 0.002197 -0.013858 -0.353435 0.146397 -0.923917 
-0.007699 0.003189 -0.012472 -0.513138 0.212531 -0.831538 
-0.009799 0.004059 -0.010607 -0.653157 0.270547 -0.707236 
-0.011523 0.004773 -0.008334 -0.768090 0.318125 -0.555712 
-0.012803 0.005303 -0.005740 -0.853481 0.353526 -0.382794 
-0.013592 0.005630 -0.002926 -0.906095 0.375317 -0.195135 
-0.013858 0.005740 0.000000 -0.923856 0.382672 0.000000 
-0.013592 0.005630 0.002926 -0.906095 0.375317 0.195135 
-0.012803 0.005303 0.005740 -0.853481 0.353526 0.382794 
-0.011523 0.004773 0.008334 -0.768090 0.318125 0.555712 
-0.009799 0.004059 0.010607 -0.653157 0.270547 0.707236 
-0.012472 0.000000 0.008334 -0.831355 0.000000 0.555712 
-0.010607 0.000000 0.010607 -0.706961 0.000000 0.707236 
-0.013858 -0.000000 0.005740 -0.923826 0.000000 0.382794 
-0.014712 -0.000000 0.002926 -0.980743 0.000000 0.195135 
-0.015000 -0.000000 0.000000 -1.000000 0.000000 0.000000 
-0.014712 -0.000000 -0.002926 -0.980743 0.000000 -0.195135 
-0.013858 0.000000 -0.005740 -0.923826 0.000000 -0.382794 
-0.012472 0.000000 -0.008334 -0.831355 0.000000 -0.555712 
-0.010607 0.000000 -0.010607 -0.706961 0.000000 -0.707236 
-0.008334 -0.000000 -0.012472 -0.555406 0.000000 -0.831538 
-0.005740 -0.000000 -0.013858 -0.382550 0.000000 -0.923917 
-0.005303 -0.002197 -0.013858 -0.353435 -0.146397 -0.923917 
-0.007699 -0.003189 -0.012472 -0.513138 -0.212531 -0.831538 
-0.009799 -0.004059 -0.010607 -0.653157 -0.270547 -0.707236 
-0.011523 -0.004773 -0.008334 -0.768090 -0.318125 -0.555712 
-0.012803 -0.005303 -0.005740 -0.853481 -0.353526 -0.382794 
-0.013592 -0.005630 -0.002926 -0.906095 -0.375317 -0.195135 
-0.013858 -0.005740 0.000000 -0.923856 -0.382672 0.000000 
-0.013592 -0.005630 0.002926 -0.906095 -0.375317 0.195135 
-0.012803 -0.005303 0.005740 -0.853481 -0.353526 0.382794 
-0.011523 -0.004773 0.008334 -0.768090 -0.318125 0.555712 
-0.009799 -0.004059 0.010607 -0.653157 -0.270547 0.707236 
-0.008819 -0.008819 0.008334 -0.587848 -0.587848 0.555712 
-0.007500 -0.007500 0.010607 -0.499893 -0.499893 0.707236 
-0.009799 -0.009799 0.005740 -0.653218 -0.653218 0.382794 
-0.010403 -0.010403 0.002926 -0.693503 -0.693503 0.195135 
-0.010607 -0.010607 0.000000 -0.707083 -0.707083 0.000000 
-0.010403 -0.010403 -0.002926 -0.693503 -0.693503 -0.195135 
-0.009799 -0.009799 -0.005740 -0.653218 -0.653218 -0.382794 
-0.008819 -0.008819 -0.008334 -0.587848 -0.587848 -0.555712 
-0.007500 -0.007500 -0.010607 -0.499893 -0.499893 -0.707236 
-0.005893 -0.005893 -0.012472 -0.392743 -0.392743 -0.831538 
-0.004059 -0.004059 -0.013858 -0.270486 -0.270486 -0.923917 
-0.002197 -0.005303 -0.013858 -0.146397 -0.353435 -0.923917 
-0.003189 -0.007699 -0.012472 -0.212531 -0.513138 -0.831538 
-0.004059 -0.009799 -0.010607 -0.270547 -0.653157 -0.707236 
-0.004773 -0.011523 -0.008334 -0.318125 -0.768090 -0.555712 
-0.005303 -0.012803 -0.005740 -0.353526 -0.853481 -0.382794 
-0.005630 -0.013592 -0.002926 -0.375317 -0.906095 -0.195135 
-0.005740 -0.013858 0.000000 -0.382672 -0.923856 0.000000 
-0.005630 -0.013592 0.002926 -0.375317 -0.906095 0.195135 
-0.005303 -0.012803 0.005740 -0.353526 -0.853481 0.382794 
-0.004773 -0.011523 0.008334 -0.318125 -0.768090 0.555712 
-0.004059 -0.009799 0.010607 -0.270547 -0.653157 0.707236 
0.000000 -0.012472 0.008334 0.000000 -0.831355 0.555712 
-0.000000 -0.010607 0.010607 0.000000 -0.706961 0.707236 
0.000000 -0.013858 0.005740 0.000000 -0.923826 0.382794 
0.000000 -0.014712 0.002926 0.000000 -0.980743 0.195135 
0.000000 -0.015000 0.000000 0.000000 -1.000000 0.000000 
0.000000 -0.014712 -0.002926 0.000000 -0.980743 -0.195135 
0.000000 -0.013858 -0.005740 0.000000 -0.923826 -0.382794 
0.000000 -0.012472 -0.008334 0.000000 -0.831355 -0.555712 
-0.000000 -0.010607 -0.010607 0.000000 -0.706961 -0.707236 
0.000000 -0.008334 -0.012472 0.000000 -0.555406 -0.831538 
0.000000 -0.005740 -0.013858 0.000000 -0.382550 -0.923917 
0.002197 -0.005303 -0.013858 0.146397 -0.353435 -0.923917 
0.003189 -0.007699 -0.012472 0.212531 -0.513138 -0.831538 
0.004059 -0.009799 -0.010607 0.270547 -0.653157 -0.707236 
0.004773 -0.011523 -0.008334 0.318125 -0.768090 -0.555712 
0.005303 -0.012803 -0.005740 0.353526 -0.853481 -0.382794 
0.005630 -0.013592 -0.002926 0.375317 -0.906095 -0.195135 
0.005740 -0.013858 0.000000 0.382672 -0.923856 0.000000 
0.005630 -0.013592 0.002926 0.375317 -0.906095 0.195135 
0.005303 -0.012803 0.005740 0.353526 -0.853481 0.382794 
0.004773 -0.011523 0.008334 0.318125 -0.768090 0.555712 
0.004059 -0.009799 0.010607 0.270547 -0.653157 0.707236 
0.008819 -0.008819 0.008334 0.587848 -0.587848 0.555712 
0.007500 -0.007500 0.010607 0.499893 -0.499893 0.707236 
0.009799 -0.009799 0.005740 0.653218 -0.653218 0.382794 
0.010403 -0.010403 0.002926 0.693503 -0.693503 0.195135 
0.010607 -0.010607 0.000000 0.707083 -0.707083 0.000000 
0.010403 -0.010403 -0.002926 0.693503 -0.693503 -0.195135 
0.009799 -0.009799 -0.005740 0.653218 -0.653218 -0.382794 
0.008819 -0.008819 -0.008334 0.587848 -0.587848 -0.555712 
0.007500 -0.007500 -0.010607 0.499893 -0.499893 -0.707236 
0.005893 -0.005893 -0.012472 0.392743 -0.392743 -0.831538 
0.004059 -0.004059 -0.013858 0.270486 -0.270486 -0.923917 
0.005303 -0.002197 -0.013858 0.353435 -0.146397 -0.923917 
0.007699 -0.003189 -0.012472 0.513138 -0.212531 -0.831538 
0.009799 -0.004059 -0.010607 0.653157 -0.270547 -0.707236 
0.011523 -0.004773 -0.008334 0.768090 -0.318125 -0.555712 
0.012803 -0.005303 -0.005740 0.853481 -0.353526 -0.382794 
0.013592 -0.005630 -0.002926 0.906095 -0.375317 -0.195135 
0.013858 -0.005740 0.000000 0.923856 -0.382672 0.000000 
0.013592 -0.005630 0.002926 0.906095 -0.375317 0.195135 
0.012803 -0.005303 0.005740 0.853481 -0.353526 0.382794 
0.011523 -0.004773 0.008334 0.768090 -0.318125 0.555712 
0.009799 -0.004059 0.010607 0.653157 -0.270547 0.707236 
0.009383 0.000000 0.011611 0.634388 0.000000 0.773003 
0.008668 -0.003591 0.011611 0.586077 -0.242744 0.773003 
0.008668 0.003591 0.011611 0.586077 0.242744 0.773003 
0.006635 0.006635 0.011611 0.448561 0.448561 0.773003 
0.003591 0.008668 0.011611 0.242744 0.586077 0.773003 
0.000000 0.009383 0.011611 0.000000 0.634388 0.773003 
-0.003591 0.008668 0.011611 -0.242744 0.586077 0.773003 
-0.006635 0.006635 0.011611 -0.448561 0.448561 0.773003 
-0.008668 0.003591 0.011611 -0.586077 0.242744 0.773003 
-0.009383 0.000000 0.011611 -0.634388 0.000000 0.773003 
-0.006635 -0.006635 0.011611 -0.448561 -0.448561 0.773003 
-0.008668 -0.003591 0.011611 -0.586077 -0.242744 0.773003 
-0.000000 -0.009383 0.011611 0.000000 -0.634388 0.773003 
-0.003591 -0.008668 0.011611 -0.242744 -0.586077 0.773003 
0.003591 -0.008668 0.011611 0.242744 -0.586077 0.773003 
-0.000000 -0.009383 0.011611 0.000000 0.000000 1.000000 
0.003591 -0.008668 0.011611 0.000000 0.000000 1.000000 
0.006635 -0.006635 0.011611 0.448561 -0.448561 0.773003 
0.006635 -0.006635 0.011611 0.000000 0.000000 1.000000 
0.008668 -0.003591 0.011611 0.000000 0.000000 1.000000 
-0.009383 0.000000 0.011611 0.000000 0.000000 1.000000 
-0.008668 0.003591 0.011611 0.000000 0.000000 1.000000 
0.003536 0.003536 0.005450 0.000000 0.000000 1.000000 
0.003536 0.003536 0.005450 0.000000 0.000000 1.000000 
-0.003536 -0.003536 0.005450 0.000000 0.000000 1.000000 
0.004619 0.001913 0.005450 0.000000 0.000000 1.000000 
0.004800 0.001006 0.005450 0.000000 0.000000 1.000000 
-0.004981 0.000097 0.005450 0.000000 0.000000 1.000000 
0.005000 -0.000000 0.005450 0.000000 0.000000 1.000000 
-0.004619 0.001913 0.005450 0.000000 0.000000 1.000000 
0.003536 -0.003536 0.005450 0.000000 0.000000 1.000000 
-0.003536 -0.003536 0.005450 0.000000 0.000000 1.000000 
-0.004619 -0.001913 0.005450 0.000000 0.000000 1.000000 
0.006635 0.006635 0.011611 0.000000 0.000000 1.000000 
0.003536 0.003536 0.011611 0.000000 0.000000 1.000000 
-0.004697 0.001521 0.011611 0.000000 0.000000 1.000000 
-0.004619 0.001913 0.005450 0.923856 -0.382672 0.000000 
-0.004619 0.001913 0.011611 0.923856 -0.382672 0.000000 
-0.004697 0.001521 0.011611 0.980773 -0.195074 0.000000 
-0.004981 0.000097 0.005450 0.980773 -0.195074 0.000000 
-0.003536 -0.003536 0.005450 0.555559 0.831446 0.000000 
0.000000 0.005000 0.005450 0.000000 -1.000000 0.000000 
0.000000 0.005000 0.011611 0.000000 -1.000000 0.000000 
-0.000021 0.004996 0.011611 0.195074 -0.980773 0.000000 
-0.000097 0.004981 0.005450 0.195074 -0.980773 0.000000 
0.005000 -0.000000 0.005450 -1.000000 0.000000 0.000000 
0.005000 -0.000000 0.011611 -1.000000 0.000000 0.000000 
0.004957 0.000217 0.011611 -0.980773 -0.195074 0.000000 
0.004800 0.001006 0.005450 -0.980773 -0.195074 0.000000 
-0.002766 -0.004050 0.011611 0.000000 0.000000 1.000000 
-0.003369 -0.003646 0.011611 0.000000 0.000000 1.000000 
0.003536 -0.003536 0.011611 -0.707083 0.707083 0.000000 
0.004619 -0.001913 0.011611 -0.923856 0.382672 0.000000 
0.004619 -0.001913 0.005450 -0.923856 0.382672 0.000000 
0.003536 -0.003536 0.005450 -0.707083 0.707083 0.000000 
-0.003536 0.003536 0.005450 0.707083 -0.707083 0.000000 
-0.003536 0.003536 0.011611 0.707083 -0.707083 0.000000 
0.003536 0.003536 0.011611 0.000000 0.000000 1.000000 
0.006635 0.006635 0.011611 0.000000 0.000000 1.000000 
-0.004619 -0.001913 0.011611 0.923856 0.382672 0.000000 
-0.004619 -0.001913 0.005450 0.923856 0.382672 0.000000 
0.001913 -0.004619 0.005450 -0.382672 0.923856 0.000000 
0.001913 -0.004619 0.011611 -0.382672 0.923856 0.000000 
-0.001913 -0.004619 0.011611 0.382672 0.923856 0.000000 
-0.001913 -0.004619 0.005450 0.382672 0.923856 0.000000 
-0.000000 -0.005000 0.011611 0.000000 1.000000 0.000000 
-0.000000 -0.005000 0.005450 0.000000 1.000000 0.000000 
3 0 1 2 
3 0 3 1 
3 0 4 3 
3 0 5 4 
3 0 6 5 
3 0 7 6 
3 0 8 7 
3 0 9 8 
3 0 10 9 
3 0 11 10 
3 0 12 11 
3 0 13 12 
3 0 14 13 
3 0 15 14 
3 0 16 15 
3 0 2 16 
3 17 18 19 
3 20 21 22 
3 23 24 25 
3 26 20 27 
3 28 29 30 
3 31 32 33 
3 34 35 36 
3 37 38 39 
3 40 41 42 
3 34 43 35 
3 44 45 46 
3 47 48 49 
3 50 51 52 
3 53 54 55 
3 56 57 58 
3 44 51 45 
3 39 59 37 
3 60 61 18 
3 62 63 64 
3 34 65 43 
3 66 67 68 
3 69 60 18 
3 34 36 70 
3 71 72 73 
3 73 74 71 
3 75 76 77 
3 78 75 77 
4 2 1 79 80 
4 80 79 81 82 
4 82 81 83 84 
4 84 83 85 86 
4 86 85 87 88 
4 88 87 89 90 
4 90 89 91 92 
4 92 91 93 94 
4 94 93 95 96 
4 96 95 97 98 
4 98 97 99 100 
4 97 101 102 99 
4 95 103 101 97 
4 93 104 103 95 
4 91 105 104 93 
4 89 106 105 91 
4 87 107 106 89 
4 85 108 107 87 
4 83 109 108 85 
4 81 110 109 83 
4 79 111 110 81 
4 1 3 111 79 
4 3 4 112 111 
4 111 112 113 110 
4 110 113 114 109 
4 109 114 115 108 
4 108 115 116 107 
4 107 116 117 106 
4 106 117 118 105 
4 105 118 119 104 
4 104 119 120 103 
4 103 120 121 101 
4 101 121 122 102 
4 121 123 124 122 
4 120 125 123 121 
4 119 126 125 120 
4 118 127 126 119 
4 117 128 127 118 
4 116 129 128 117 
4 115 130 129 116 
4 114 131 130 115 
4 113 132 131 114 
4 112 133 132 113 
4 4 5 133 112 
4 5 6 134 133 
4 133 134 135 132 
4 132 135 136 131 
4 131 136 137 130 
4 130 137 138 129 
4 129 138 139 128 
4 128 139 140 127 
4 127 140 141 126 
4 126 141 142 125 
4 125 142 143 123 
4 123 143 144 124 
4 143 145 146 144 
4 142 147 145 143 
4 141 148 147 142 
4 140 149 148 141 
4 139 150 149 140 
4 138 151 150 139 
4 137 152 151 138 
4 136 153 152 137 
4 135 154 153 136 
4 134 155 154 135 
4 6 7 155 134 
4 7 8 156 155 
4 155 156 157 154 
4 154 157 158 153 
4 153 158 159 152 
4 152 159 160 151 
4 151 160 161 150 
4 150 161 162 149 
4 149 162 163 148 
4 148 163 164 147 
4 147 164 165 145 
4 145 165 166 146 
4 165 167 168 166 
4 164 169 167 165 
4 163 170 169 164 
4 162 171 170 163 
4 161 172 171 162 
4 160 173 172 161 
4 159 174 173 160 
4 158 175 174 159 
4 157 176 175 158 
4 156 177 176 157 
4 8 9 177 156 
4 9 10 178 177 
4 177 178 179 176 
4 176 179 180 175 
4 175 180 181 174 
4 174 181 182 173 
4 173 182 183 172 
4 172 183 184 171 
4 171 184 185 170 
4 170 185 186 169 
4 169 186 187 167 
4 167 187 188 168 
4 187 189 190 188 
4 186 191 189 187 
4 185 192 191 186 
4 184 193 192 185 
4 183 194 193 184 
4 182 195 194 183 
4 181 196 195 182 
4 180 197 196 181 
4 179 198 197 180 
4 178 199 198 179 
4 10 11 199 178 
4 11 12 200 199 
4 199 200 201 198 
4 198 201 202 197 
4 197 202 203 196 
4 196 203 204 195 
4 195 204 205 194 
4 194 205 206 193 
4 193 206 207 192 
4 192 207 208 191 
4 191 208 209 189 
4 189 209 210 190 
4 209 211 212 210 
4 208 213 211 209 
4 207 214 213 208 
4 206 215 214 207 
4 205 216 215 206 
4 204 217 216 205 
4 203 218 217 204 
4 202 219 218 203 
4 201 220 219 202 
4 200 221 220 201 
4 12 13 221 200 
4 13 14 222 221 
4 221 222 223 220 
4 220 223 224 219 
4 219 224 225 218 
4 218 225 226 217 
4 217 226 227 216 
4 216 227 228 215 
4 215 228 229 214 
4 214 229 230 213 
4 213 230 231 211 
4 211 231 232 212 
4 231 233 234 232 
4 230 235 233 231 
4 229 236 235 230 
4 228 237 236 229 
4 227 238 237 228 
4 226 239 238 227 
4 225 240 239 226 
4 224 241 240 225 
4 223 242 241 224 
4 222 243 242 223 
4 14 15 243 222 
4 15 16 244 243 
4 243 244 245 242 
4 242 245 246 241 
4 241 246 247 240 
4 240 247 248 239 
4 239 248 249 238 
4 238 249 250 237 
4 237 250 251 236 
4 236 251 252 235 
4 235 252 253 233 
4 233 253 254 234 
4 253 98 100 254 
4 252 96 98 253 
4 251 94 96 252 
4 250 92 94 251 
4 249 90 92 250 
4 248 88 90 249 
4 247 86 88 248 
4 246 84 86 247 
4 245 82 84 246 
4 244 80 82 245 
4 16 2 80 244 
4 254 100 255 256 
4 99 257 255 100 
4 102 258 257 99 
4 259 258 102 122 
4 124 260 259 122 
4 144 261 260 124 
4 146 262 261 144 
4 166 263 262 146 
4 168 264 263 166 
4 190 265 266 188 
4 55 19 18 53 
4 212 267 268 210 
4 232 269 267 212 
4 270 271 71 77 
4 234 272 269 232 
4 254 256 272 234 
4 273 274 71 271 
4 275 18 17 276 
4 266 264 168 188 
4 210 268 265 190 
4 277 278 279 280 
4 26 281 280 279 
4 23 282 28 30 
4 26 27 283 281 
4 23 25 284 282 
4 285 27 20 22 
4 29 286 279 278 
4 29 28 287 286 
4 37 288 289 38 
4 58 31 33 56 
4 33 32 40 42 
4 18 61 290 53 
4 291 292 293 294 
4 62 294 293 63 
4 295 52 51 44 
4 296 297 298 299 
4 297 296 58 57 
4 68 299 298 66 
4 71 37 59 72 
4 300 301 302 303 
4 40 303 302 41 
4 77 71 74 78 
4 34 55 54 65 
4 47 304 305 48 
4 306 307 308 309 
4 291 310 311 292 
4 70 312 313 34 
4 47 49 69 18 
4 314 50 52 315 
4 310 68 67 311 
4 307 301 300 308 
4 309 316 317 306 
4 315 62 64 314 
4 47 77 76 304 
4 44 46 318 319 
4 318 320 321 319 
4 316 321 320 317 
