ply
format ascii 1.0
comment Created by Blender3D 248 - www.blender.org, source file: 
element vertex 130
property float x
property float y
property float z
property float nx
property float ny
property float nz
element face 96
property list uchar uint vertex_indices
end_header
0.000000 0.000000 -0.060000 0.000000 0.000000 -1.000000 
0.036416 0.036416 -0.060000 0.000000 0.000000 -1.000000 
0.042821 0.028612 -0.060000 0.000000 0.000000 -1.000000 
0.000000 0.000000 0.060000 0.000000 0.000000 1.000000 
0.042821 0.028612 0.060000 0.000000 0.000000 1.000000 
0.036416 0.036416 0.060000 0.000000 0.000000 1.000000 
0.047580 0.019708 -0.060000 0.000000 0.000000 -1.000000 
0.047580 0.019708 0.060000 0.000000 0.000000 1.000000 
0.050510 0.010047 -0.060000 0.000000 0.000000 -1.000000 
0.050510 0.010047 0.060000 0.000000 0.000000 1.000000 
0.051500 0.000000 -0.060000 0.000000 0.000000 -1.000000 
0.051500 0.000000 0.060000 0.000000 0.000000 1.000000 
0.050510 -0.010047 -0.060000 0.000000 0.000000 -1.000000 
0.050510 -0.010047 0.060000 0.000000 0.000000 1.000000 
0.047580 -0.019708 -0.060000 0.000000 0.000000 -1.000000 
0.047580 -0.019708 0.060000 0.000000 0.000000 1.000000 
0.042821 -0.028612 -0.060000 0.000000 0.000000 -1.000000 
0.042821 -0.028612 0.060000 0.000000 0.000000 1.000000 
0.036416 -0.036416 -0.060000 0.000000 0.000000 -1.000000 
0.036416 -0.036416 0.060000 0.000000 0.000000 1.000000 
0.028612 -0.042821 -0.060000 0.000000 0.000000 -1.000000 
0.028612 -0.042821 0.060000 0.000000 0.000000 1.000000 
0.019708 -0.047580 -0.060000 0.000000 0.000000 -1.000000 
0.019708 -0.047580 0.060000 0.000000 0.000000 1.000000 
0.010047 -0.050510 -0.060000 0.000000 0.000000 -1.000000 
0.010047 -0.050510 0.060000 0.000000 0.000000 1.000000 
0.000000 -0.051500 -0.060000 0.000000 0.000000 -1.000000 
0.000000 -0.051500 0.060000 0.000000 0.000000 1.000000 
-0.010047 -0.050510 -0.060000 0.000000 0.000000 -1.000000 
-0.010047 -0.050510 0.060000 0.000000 0.000000 1.000000 
-0.019708 -0.047580 -0.060000 0.000000 0.000000 -1.000000 
-0.019708 -0.047580 0.060000 0.000000 0.000000 1.000000 
-0.028612 -0.042821 -0.060000 0.000000 0.000000 -1.000000 
-0.028612 -0.042821 0.060000 0.000000 0.000000 1.000000 
-0.036416 -0.036416 -0.060000 0.000000 0.000000 -1.000000 
-0.036416 -0.036416 0.060000 0.000000 0.000000 1.000000 
-0.042821 -0.028612 -0.060000 0.000000 0.000000 -1.000000 
-0.042821 -0.028612 0.060000 0.000000 0.000000 1.000000 
-0.047580 -0.019708 -0.060000 0.000000 0.000000 -1.000000 
-0.047580 -0.019708 0.060000 0.000000 0.000000 1.000000 
-0.050510 -0.010047 -0.060000 0.000000 0.000000 -1.000000 
-0.050510 -0.010047 0.060000 0.000000 0.000000 1.000000 
-0.051500 0.000000 -0.060000 0.000000 0.000000 -1.000000 
-0.051500 0.000000 0.060000 0.000000 0.000000 1.000000 
-0.050510 0.010047 -0.060000 0.000000 0.000000 -1.000000 
-0.050510 0.010047 0.060000 0.000000 0.000000 1.000000 
-0.047580 0.019708 -0.060000 0.000000 0.000000 -1.000000 
-0.047580 0.019708 0.060000 0.000000 0.000000 1.000000 
-0.042821 0.028612 -0.060000 0.000000 0.000000 -1.000000 
-0.042821 0.028612 0.060000 0.000000 0.000000 1.000000 
-0.036416 0.036416 -0.060000 0.000000 0.000000 -1.000000 
-0.036416 0.036416 0.060000 0.000000 0.000000 1.000000 
-0.028612 0.042821 -0.060000 0.000000 0.000000 -1.000000 
-0.028612 0.042821 0.060000 0.000000 0.000000 1.000000 
-0.019708 0.047580 -0.060000 0.000000 0.000000 -1.000000 
-0.019709 0.047580 0.060000 0.000000 0.000000 1.000000 
-0.010047 0.050510 -0.060000 0.000000 0.000000 -1.000000 
-0.010047 0.050510 0.060000 0.000000 0.000000 1.000000 
0.000000 0.051500 -0.060000 0.000000 0.000000 -1.000000 
0.000000 0.051500 0.060000 0.000000 0.000000 1.000000 
0.010047 0.050510 -0.060000 0.000000 0.000000 -1.000000 
0.010047 0.050511 0.060000 0.000000 0.000000 1.000000 
0.019708 0.047580 -0.060000 0.000000 0.000000 -1.000000 
0.019708 0.047580 0.060000 0.000000 0.000000 1.000000 
0.028612 0.042821 -0.060000 0.000000 0.000000 -1.000000 
0.028612 0.042821 0.060000 0.000000 0.000000 1.000000 
0.036416 0.036416 -0.060000 0.707083 0.707083 0.000000 
0.036416 0.036416 0.060000 0.707083 0.707083 0.000000 
0.042821 0.028612 0.060000 0.831446 0.555559 0.000000 
0.042821 0.028612 -0.060000 0.831446 0.555559 0.000000 
0.047580 0.019708 0.060000 0.923887 0.382641 0.000000 
0.047580 0.019708 -0.060000 0.923887 0.382641 0.000000 
0.050510 0.010047 0.060000 0.980773 0.195074 0.000000 
0.050510 0.010047 -0.060000 0.980773 0.195074 0.000000 
0.051500 0.000000 0.060000 1.000000 0.000000 0.000000 
0.051500 0.000000 -0.060000 1.000000 0.000000 0.000000 
0.050510 -0.010047 0.060000 0.980773 -0.195074 0.000000 
0.050510 -0.010047 -0.060000 0.980773 -0.195074 0.000000 
0.047580 -0.019708 0.060000 0.923887 -0.382641 0.000000 
0.047580 -0.019708 -0.060000 0.923887 -0.382641 0.000000 
0.042821 -0.028612 0.060000 0.831446 -0.555559 0.000000 
0.042821 -0.028612 -0.060000 0.831446 -0.555559 0.000000 
0.036416 -0.036416 0.060000 0.707083 -0.707083 0.000000 
0.036416 -0.036416 -0.060000 0.707083 -0.707083 0.000000 
0.028612 -0.042821 0.060000 0.555559 -0.831446 0.000000 
0.028612 -0.042821 -0.060000 0.555559 -0.831446 0.000000 
0.019708 -0.047580 0.060000 0.382641 -0.923887 0.000000 
0.019708 -0.047580 -0.060000 0.382641 -0.923887 0.000000 
0.010047 -0.050510 0.060000 0.195074 -0.980773 0.000000 
0.010047 -0.050510 -0.060000 0.195074 -0.980773 0.000000 
0.000000 -0.051500 0.060000 0.000000 -1.000000 0.000000 
0.000000 -0.051500 -0.060000 0.000000 -1.000000 0.000000 
-0.010047 -0.050510 0.060000 -0.195074 -0.980773 0.000000 
-0.010047 -0.050510 -0.060000 -0.195074 -0.980773 0.000000 
-0.019708 -0.047580 0.060000 -0.382641 -0.923887 0.000000 
-0.019708 -0.047580 -0.060000 -0.382641 -0.923887 0.000000 
-0.028612 -0.042821 0.060000 -0.555559 -0.831446 0.000000 
-0.028612 -0.042821 -0.060000 -0.555559 -0.831446 0.000000 
-0.036416 -0.036416 0.060000 -0.707083 -0.707083 0.000000 
-0.036416 -0.036416 -0.060000 -0.707083 -0.707083 0.000000 
-0.042821 -0.028612 0.060000 -0.831446 -0.555559 0.000000 
-0.042821 -0.028612 -0.060000 -0.831446 -0.555559 0.000000 
-0.047580 -0.019708 0.060000 -0.923887 -0.382641 0.000000 
-0.047580 -0.019708 -0.060000 -0.923887 -0.382641 0.000000 
-0.050510 -0.010047 0.060000 -0.980773 -0.195074 0.000000 
-0.050510 -0.010047 -0.060000 -0.980773 -0.195074 0.000000 
-0.051500 0.000000 0.060000 -1.000000 0.000000 0.000000 
-0.051500 0.000000 -0.060000 -1.000000 0.000000 0.000000 
-0.050510 0.010047 0.060000 -0.980773 0.195074 0.000000 
-0.050510 0.010047 -0.060000 -0.980773 0.195074 0.000000 
-0.047580 0.019708 0.060000 -0.923887 0.382641 0.000000 
-0.047580 0.019708 -0.060000 -0.923887 0.382641 0.000000 
-0.042821 0.028612 0.060000 -0.831446 0.555559 0.000000 
-0.042821 0.028612 -0.060000 -0.831446 0.555559 0.000000 
-0.036416 0.036416 0.060000 -0.707083 0.707083 0.000000 
-0.036416 0.036416 -0.060000 -0.707083 0.707083 0.000000 
-0.028612 0.042821 0.060000 -0.555559 0.831446 0.000000 
-0.028612 0.042821 -0.060000 -0.555559 0.831446 0.000000 
-0.019709 0.047580 0.060000 -0.382641 0.923887 0.000000 
-0.019708 0.047580 -0.060000 -0.382641 0.923887 0.000000 
-0.010047 0.050510 0.060000 -0.195074 0.980773 0.000000 
-0.010047 0.050510 -0.060000 -0.195074 0.980773 0.000000 
0.000000 0.051500 0.060000 0.000000 1.000000 0.000000 
0.000000 0.051500 -0.060000 0.000000 1.000000 0.000000 
0.010047 0.050511 0.060000 0.195074 0.980773 0.000000 
0.010047 0.050510 -0.060000 0.195074 0.980773 0.000000 
0.019708 0.047580 0.060000 0.382641 0.923856 0.000000 
0.019708 0.047580 -0.060000 0.382641 0.923856 0.000000 
0.028612 0.042821 0.060000 0.555559 0.831446 0.000000 
0.028612 0.042821 -0.060000 0.555559 0.831446 0.000000 
3 0 1 2 
3 3 4 5 
3 0 2 6 
3 3 7 4 
3 0 6 8 
3 3 9 7 
3 0 8 10 
3 3 11 9 
3 0 10 12 
3 3 13 11 
3 0 12 14 
3 3 15 13 
3 0 14 16 
3 3 17 15 
3 0 16 18 
3 3 19 17 
3 0 18 20 
3 3 21 19 
3 0 20 22 
3 3 23 21 
3 0 22 24 
3 3 25 23 
3 0 24 26 
3 3 27 25 
3 0 26 28 
3 3 29 27 
3 0 28 30 
3 3 31 29 
3 0 30 32 
3 3 33 31 
3 0 32 34 
3 3 35 33 
3 0 34 36 
3 3 37 35 
3 0 36 38 
3 3 39 37 
3 0 38 40 
3 3 41 39 
3 0 40 42 
3 3 43 41 
3 0 42 44 
3 3 45 43 
3 0 44 46 
3 3 47 45 
3 0 46 48 
3 3 49 47 
3 0 48 50 
3 3 51 49 
3 0 50 52 
3 3 53 51 
3 0 52 54 
3 3 55 53 
3 0 54 56 
3 3 57 55 
3 0 56 58 
3 3 59 57 
3 0 58 60 
3 3 61 59 
3 0 60 62 
3 3 63 61 
3 0 62 64 
3 3 65 63 
3 1 0 64 
3 3 5 65 
4 66 67 68 69 
4 69 68 70 71 
4 71 70 72 73 
4 73 72 74 75 
4 75 74 76 77 
4 77 76 78 79 
4 79 78 80 81 
4 81 80 82 83 
4 83 82 84 85 
4 85 84 86 87 
4 87 86 88 89 
4 89 88 90 91 
4 91 90 92 93 
4 93 92 94 95 
4 95 94 96 97 
4 97 96 98 99 
4 99 98 100 101 
4 101 100 102 103 
4 103 102 104 105 
4 105 104 106 107 
4 107 106 108 109 
4 109 108 110 111 
4 111 110 112 113 
4 113 112 114 115 
4 115 114 116 117 
4 117 116 118 119 
4 119 118 120 121 
4 121 120 122 123 
4 123 122 124 125 
4 125 124 126 127 
4 127 126 128 129 
4 67 66 129 128 
