ply
format ascii 1.0
comment Created by Blender3D 248 - www.blender.org, source file: casali.blend
obj_info casali.png
element vertex 24
property float x
property float y
property float z
property float s
property float t
element face 6
property list uchar uint vertex_indices
end_header
0.147500 -0.012500 -0.057500 0.927938 1.00000
0.147500 -0.012500 0.057500 0.927938 0.588315 
-0.147500 -0.012500 0.057500 0.075388 0.588315 
-0.147500 -0.012500 -0.057500 0.075388 1.00000
0.147500 0.012500 -0.057500 0.929047 0.088315 
-0.147500 0.012500 -0.057500 0.073171 0.088315 
-0.147500 0.012500 0.057500 0.073171 0.500000 
0.147500 0.012500 0.057500 0.929046 0.500000 
0.147500 -0.012500 -0.057500 1.00000 0.088315 
0.147500 0.012500 -0.057500 0.926829 0.088315 
0.147500 0.012500 0.057500 0.926829 0.500000 
0.147500 -0.012500 0.057500 1.00000 0.500000 
0.147500 -0.012500 0.057500 0.929046 0.589674 
0.147500 0.012500 0.057500 0.929047 0.500000 
-0.147500 0.012500 0.057500 0.075388 0.500000 
-0.147500 -0.012500 0.057500 0.075388 0.589674 
-0.147500 -0.012500 0.057500 0.001109 0.500000 
-0.147500 0.012500 0.057500 0.073171 0.500000 
-0.147500 0.012500 -0.057500 0.073171 0.088315 
-0.147500 -0.012500 -0.057500 0.001109 0.088315 
0.147500 0.012500 -0.057500 0.073171  0.00000
0.147500 -0.012500 -0.057500 0.073171 0.089674 
-0.147500 -0.012500 -0.057500 0.927938 0.089674 
-0.147500 0.012500 -0.057500 0.927938 0.00000 
4 0 1 2 3 
4 4 5 6 7 
4 8 9 10 11 
4 12 13 14 15 
4 16 17 18 19 
4 20 21 22 23 
