ply
format ascii 1.0
comment Created by Blender3D 248 - www.blender.org, source file: cylinder.blend
element vertex 132
property float x
property float y
property float z
property float nx
property float ny
property float nz
property float s
property float t
element face 96
property list uchar uint vertex_indices
end_header
0.000000 0.045500 0.000000 0.000000 0.000000 -1.000000 0.038416 1.190045 
0.023216 0.045500 0.023216 0.000000 0.000000 -1.000000 0.171193 1.230322 
0.027299 0.045500 0.018240 0.000000 0.000000 -1.000000 0.176499 1.203644 
0.000000 -0.045500 -0.000000 0.000000 0.000000 1.000000 0.028764 -0.178411 
0.027299 -0.045500 0.018240 0.000000 0.000000 1.000000 0.166861 -0.192012 
0.023216 -0.045500 0.023216 0.000000 0.000000 1.000000 0.161554 -0.218692 
0.030333 0.045500 0.012564 0.000000 0.000000 -1.000000 0.176499 1.176444 
0.030333 -0.045500 0.012564 0.000000 0.000000 1.000000 0.166861 -0.164809 
0.032201 0.045500 0.006405 0.000000 0.000000 -1.000000 0.171193 1.149767 
0.032201 -0.045500 0.006405 0.000000 0.000000 1.000000 0.161554 -0.138129 
0.032832 0.045500 0.000000 0.000000 0.000000 -1.000000 0.160784 1.124638 
0.032832 -0.045500 -0.000000 0.000000 0.000000 1.000000 0.151144 -0.112998 
0.032201 0.045500 -0.006405 0.000000 0.000000 -1.000000 0.145672 1.102022 
0.032201 -0.045500 -0.006405 0.000000 0.000000 1.000000 0.136031 -0.090379 
0.030333 0.045500 -0.012564 0.000000 0.000000 -1.000000 0.126439 1.082788 
0.030333 -0.045500 -0.012564 0.000000 0.000000 1.000000 0.116796 -0.071144 
0.027299 0.045500 -0.018240 0.000000 0.000000 -1.000000 0.103823 1.067677 
0.027299 -0.045500 -0.018241 0.000000 0.000000 1.000000 0.094178 -0.056031 
0.023216 0.045500 -0.023216 0.000000 0.000000 -1.000000 0.078693 1.057268 
0.023216 -0.045500 -0.023216 0.000000 0.000000 1.000000 0.069046 -0.045621 
0.018240 0.045500 -0.027299 0.000000 0.000000 -1.000000 0.033333 0.994842 
0.018240 -0.045500 -0.027299 0.000000 0.000000 1.000000 0.033129 0.001664 
0.012564 0.045500 -0.030333 0.000000 0.000000 -1.000000 0.002124 0.994842 
0.012564 -0.045500 -0.030333 0.000000 0.000000 1.000000 0.001919 0.001664 
0.006405 0.045500 -0.032201 0.000000 0.000000 -1.000000 -0.001863 1.057269 
0.006405 -0.045500 -0.032201 0.000000 0.000000 1.000000 -0.011517 -0.045621 
-0.000000 0.045500 -0.032832 0.000000 0.000000 -1.000000 -0.026992 1.067679 
0.000000 -0.045500 -0.032832 0.000000 0.000000 1.000000 -0.036649 -0.056030 
-0.006405 0.045500 -0.032201 0.000000 0.000000 -1.000000 -0.049608 1.082791 
-0.006405 -0.045500 -0.032201 0.000000 0.000000 1.000000 -0.059267 -0.071143 
-0.012564 0.045500 -0.030333 0.000000 0.000000 -1.000000 -0.068841 1.102024 
-0.012564 -0.045500 -0.030333 0.000000 0.000000 1.000000 -0.078502 -0.090379 
-0.018240 0.045500 -0.027299 0.000000 0.000000 -1.000000 -0.083952 1.124640 
-0.018240 -0.045500 -0.027299 0.000000 0.000000 1.000000 -0.093615 -0.112997 
-0.023216 0.045500 -0.023216 0.000000 0.000000 -1.000000 -0.094360 1.149770 
-0.023216 -0.045500 -0.023216 0.000000 0.000000 1.000000 -0.104026 -0.138129 
-0.027299 0.045500 -0.018240 0.000000 0.000000 -1.000000 -0.099666 1.176447 
-0.027299 -0.045500 -0.018241 0.000000 0.000000 1.000000 -0.109333 -0.164809 
-0.030333 0.045500 -0.012564 0.000000 0.000000 -1.000000 -0.099666 1.203647 
-0.030333 -0.045500 -0.012564 0.000000 0.000000 1.000000 -0.109333 -0.192012 
-0.032201 0.045500 -0.006405 0.000000 0.000000 -1.000000 -0.094359 1.230324 
-0.032201 -0.045500 -0.006405 0.000000 0.000000 1.000000 -0.104026 -0.218692 
-0.032832 0.045500 0.000000 0.000000 0.000000 -1.000000 -0.083950 1.255453 
-0.032832 -0.045500 -0.000000 0.000000 0.000000 1.000000 -0.093616 -0.243824 
-0.032201 0.045500 0.006405 0.000000 0.000000 -1.000000 -0.068838 1.278068 
-0.032201 -0.045500 0.006405 0.000000 0.000000 1.000000 -0.078503 -0.266442 
-0.030333 0.045500 0.012564 0.000000 0.000000 -1.000000 -0.049605 1.297301 
-0.030333 -0.045500 0.012564 0.000000 0.000000 1.000000 -0.059268 -0.285677 
-0.027299 0.045500 0.018241 0.000000 0.000000 -1.000000 -0.026989 1.312412 
-0.027299 -0.045500 0.018240 0.000000 0.000000 1.000000 -0.036650 -0.300790 
-0.023216 0.045500 0.023216 0.000000 0.000000 -1.000000 -0.001860 1.322821 
-0.023216 -0.045500 0.023216 0.000000 0.000000 1.000000 -0.011518 -0.311200 
-0.018240 0.045500 0.027299 0.000000 0.000000 -1.000000 0.024818 1.328127 
-0.018241 -0.045500 0.027299 0.000000 0.000000 1.000000 0.015162 -0.316507 
-0.012564 0.045500 0.030333 0.000000 0.000000 -1.000000 0.052017 1.328127 
-0.012564 -0.045500 0.030333 0.000000 0.000000 1.000000 0.042365 -0.316507 
-0.006405 0.045500 0.032201 0.000000 0.000000 -1.000000 0.078695 1.322821 
-0.006405 -0.045500 0.032201 0.000000 0.000000 1.000000 0.069044 -0.311200 
0.000000 0.045500 0.032832 0.000000 0.000000 -1.000000 0.103824 1.312412 
-0.000000 -0.045500 0.032832 0.000000 0.000000 1.000000 0.094176 -0.300791 
0.006405 0.045500 0.032201 0.000000 0.000000 -1.000000 0.126440 1.297300 
0.006405 -0.045500 0.032201 0.000000 0.000000 1.000000 0.116795 -0.285678 
0.012564 0.045500 0.030333 0.000000 0.000000 -1.000000 0.145673 1.278067 
0.012564 -0.045500 0.030333 0.000000 0.000000 1.000000 0.136030 -0.266443 
0.018241 0.045500 0.027299 0.000000 0.000000 -1.000000 0.160784 1.255451 
0.018240 -0.045500 0.027299 0.000000 0.000000 1.000000 0.151143 -0.243825 
0.023216 0.045500 0.023216 0.707083 0.707083 0.000000 0.313895 0.994842 
0.023216 -0.045500 0.023216 0.707083 0.707083 0.000000 0.313691 0.001664 
0.027299 -0.045500 0.018240 0.831446 0.555559 0.000000 0.282522 0.001664 
0.027299 0.045500 0.018240 0.831446 0.555559 0.000000 0.282726 0.994842 
0.030333 -0.045500 0.012564 0.923856 0.382672 0.000000 0.251353 0.001664 
0.030333 0.045500 0.012564 0.923856 0.382672 0.000000 0.251557 0.994842 
0.032201 -0.045500 0.006405 0.980773 0.195074 0.000000 0.220184 0.001664 
0.032201 0.045500 0.006405 0.980773 0.195074 0.000000 0.220388 0.994842 
0.032832 -0.045500 -0.000000 1.000000 0.000000 0.000000 0.189015 0.001664 
0.032832 0.045500 0.000000 1.000000 0.000000 0.000000 0.189219 0.994842 
0.032201 -0.045500 -0.006405 0.980773 -0.195074 0.000000 0.157847 0.001664 
0.032201 0.045500 -0.006405 0.980773 -0.195074 0.000000 0.158050 0.994842 
0.030333 -0.045500 -0.012564 0.923856 -0.382672 0.000000 0.126678 0.001664 
0.030333 0.045500 -0.012564 0.923856 -0.382672 0.000000 0.126881 0.994842 
0.027299 -0.045500 -0.018241 0.831446 -0.555559 0.000000 0.095509 0.001664 
0.027299 0.045500 -0.018240 0.831446 -0.555559 0.000000 0.095712 0.994842 
0.023216 -0.045500 -0.023216 0.707083 -0.707083 0.000000 0.064340 0.001664 
0.023216 0.045500 -0.023216 0.707083 -0.707083 0.000000 0.064544 0.994842 
0.018240 -0.045500 -0.027299 0.555559 -0.831446 0.000000 0.033129 0.001664 
0.018240 0.045500 -0.027299 0.555559 -0.831446 0.000000 0.033333 0.994842 
0.012564 -0.045500 -0.030333 0.382672 -0.923856 0.000000 0.001919 0.001664 
0.012564 0.045500 -0.030333 0.382672 -0.923856 0.000000 0.002124 0.994842 
0.012564 0.045500 -0.030333 0.382672 -0.923856 0.000000 1.000500 0.994842 
0.012564 -0.045500 -0.030333 0.382672 -0.923856 0.000000 1.000293 0.001664 
0.006405 -0.045500 -0.032201 0.195074 -0.980773 0.000000 0.969084 0.001664 
0.006405 0.045500 -0.032201 0.195074 -0.980773 0.000000 0.969291 0.994842 
0.000000 -0.045500 -0.032832 0.000000 -1.000000 0.000000 0.937875 0.001664 
-0.000000 0.045500 -0.032832 0.000000 -1.000000 0.000000 0.938082 0.994842 
-0.006405 -0.045500 -0.032201 -0.195074 -0.980773 0.000000 0.906666 0.001664 
-0.006405 0.045500 -0.032201 -0.195074 -0.980773 0.000000 0.906873 0.994842 
-0.012564 -0.045500 -0.030333 -0.382672 -0.923856 0.000000 0.875457 0.001664 
-0.012564 0.045500 -0.030333 -0.382672 -0.923856 0.000000 0.875664 0.994842 
-0.018240 -0.045500 -0.027299 -0.555559 -0.831446 0.000000 0.844248 0.001664 
-0.018240 0.045500 -0.027299 -0.555559 -0.831446 0.000000 0.844455 0.994842 
-0.023216 -0.045500 -0.023216 -0.707083 -0.707083 0.000000 0.813039 0.001664 
-0.023216 0.045500 -0.023216 -0.707083 -0.707083 0.000000 0.813245 0.994842 
-0.027299 -0.045500 -0.018241 -0.831446 -0.555559 0.000000 0.781830 0.001664 
-0.027299 0.045500 -0.018240 -0.831446 -0.555559 0.000000 0.782036 0.994842 
-0.030333 -0.045500 -0.012564 -0.923856 -0.382672 0.000000 0.750621 0.001664 
-0.030333 0.045500 -0.012564 -0.923856 -0.382672 0.000000 0.750827 0.994842 
-0.032201 -0.045500 -0.006405 -0.980773 -0.195074 0.000000 0.719412 0.001664 
-0.032201 0.045500 -0.006405 -0.980773 -0.195074 0.000000 0.719618 0.994842 
-0.032832 -0.045500 -0.000000 -1.000000 0.000000 0.000000 0.688203 0.001664 
-0.032832 0.045500 0.000000 -1.000000 0.000000 0.000000 0.688409 0.994842 
-0.032201 -0.045500 0.006405 -0.980773 0.195074 0.000000 0.656994 0.001664 
-0.032201 0.045500 0.006405 -0.980773 0.195074 0.000000 0.657200 0.994842 
-0.030333 -0.045500 0.012564 -0.923856 0.382672 0.000000 0.625785 0.001664 
-0.030333 0.045500 0.012564 -0.923856 0.382672 0.000000 0.625991 0.994842 
-0.027299 -0.045500 0.018240 -0.831446 0.555559 0.000000 0.594576 0.001664 
-0.027299 0.045500 0.018241 -0.831446 0.555559 0.000000 0.594782 0.994842 
-0.023216 -0.045500 0.023216 -0.707083 0.707083 0.000000 0.563367 0.001664 
-0.023216 0.045500 0.023216 -0.707083 0.707083 0.000000 0.563573 0.994842 
-0.018241 -0.045500 0.027299 -0.555559 0.831446 0.000000 0.532158 0.001664 
-0.018240 0.045500 0.027299 -0.555559 0.831446 0.000000 0.532363 0.994842 
-0.012564 -0.045500 0.030333 -0.382672 0.923856 0.000000 0.500949 0.001664 
-0.012564 0.045500 0.030333 -0.382672 0.923856 0.000000 0.501154 0.994842 
-0.006405 -0.045500 0.032201 -0.195074 0.980773 0.000000 0.469739 0.001664 
-0.006405 0.045500 0.032201 -0.195074 0.980773 0.000000 0.469945 0.994842 
-0.000000 -0.045500 0.032832 0.000000 1.000000 0.000000 0.438530 0.001664 
0.000000 0.045500 0.032832 0.000000 1.000000 0.000000 0.438735 0.994842 
0.006405 -0.045500 0.032201 0.195074 0.980773 0.000000 0.407320 0.001664 
0.006405 0.045500 0.032201 0.195074 0.980773 0.000000 0.407525 0.994842 
0.012564 -0.045500 0.030333 0.382672 0.923856 0.000000 0.376111 0.001664 
0.012564 0.045500 0.030333 0.382672 0.923856 0.000000 0.376315 0.994842 
0.018240 -0.045500 0.027299 0.555559 0.831446 0.000000 0.344901 0.001664 
0.018241 0.045500 0.027299 0.555559 0.831446 0.000000 0.345105 0.994842 
3 0 1 2 
3 3 4 5 
3 0 2 6 
3 3 7 4 
3 0 6 8 
3 3 9 7 
3 0 8 10 
3 3 11 9 
3 0 10 12 
3 3 13 11 
3 0 12 14 
3 3 15 13 
3 0 14 16 
3 3 17 15 
3 0 16 18 
3 3 19 17 
3 0 18 20 
3 3 21 19 
3 0 20 22 
3 3 23 21 
3 0 22 24 
3 3 25 23 
3 0 24 26 
3 3 27 25 
3 0 26 28 
3 3 29 27 
3 0 28 30 
3 3 31 29 
3 0 30 32 
3 3 33 31 
3 0 32 34 
3 3 35 33 
3 0 34 36 
3 3 37 35 
3 0 36 38 
3 3 39 37 
3 0 38 40 
3 3 41 39 
3 0 40 42 
3 3 43 41 
3 0 42 44 
3 3 45 43 
3 0 44 46 
3 3 47 45 
3 0 46 48 
3 3 49 47 
3 0 48 50 
3 3 51 49 
3 0 50 52 
3 3 53 51 
3 0 52 54 
3 3 55 53 
3 0 54 56 
3 3 57 55 
3 0 56 58 
3 3 59 57 
3 0 58 60 
3 3 61 59 
3 0 60 62 
3 3 63 61 
3 0 62 64 
3 3 65 63 
3 64 1 0 
3 3 5 65 
4 66 67 68 69 
4 69 68 70 71 
4 71 70 72 73 
4 73 72 74 75 
4 75 74 76 77 
4 77 76 78 79 
4 79 78 80 81 
4 81 80 82 83 
4 83 82 84 85 
4 85 84 86 87 
4 88 89 90 91 
4 91 90 92 93 
4 93 92 94 95 
4 95 94 96 97 
4 97 96 98 99 
4 99 98 100 101 
4 101 100 102 103 
4 103 102 104 105 
4 105 104 106 107 
4 107 106 108 109 
4 109 108 110 111 
4 111 110 112 113 
4 113 112 114 115 
4 115 114 116 117 
4 117 116 118 119 
4 119 118 120 121 
4 121 120 122 123 
4 123 122 124 125 
4 125 124 126 127 
4 127 126 128 129 
4 129 128 130 131 
4 67 66 131 130 
