ply
format ascii 1.0
comment Created by Blender3D 248 - www.blender.org, source file: camera.blend
element vertex 89
property float x
property float y
property float z
property float nx
property float ny
property float nz
element face 53
property list uchar uint vertex_indices
end_header
-0.000000 -0.000000 0.069780 0.000000 0.000000 1.000000 
0.012195 0.005051 0.069780 0.000000 0.000000 1.000000 
0.009334 0.009334 0.069780 0.000000 0.000000 1.000000 
0.013200 -0.000000 0.069780 0.000000 0.000000 1.000000 
0.012195 -0.005051 0.069780 0.000000 0.000000 1.000000 
0.009334 -0.009334 0.069780 0.000000 0.000000 1.000000 
0.005051 -0.012195 0.069780 0.000000 0.000000 1.000000 
-0.000000 -0.013200 0.069780 0.000000 0.000000 1.000000 
-0.005051 -0.012195 0.069780 0.000000 0.000000 1.000000 
-0.009334 -0.009334 0.069780 0.000000 0.000000 1.000000 
-0.012195 -0.005051 0.069780 0.000000 0.000000 1.000000 
-0.013200 0.000000 0.069780 0.000000 0.000000 1.000000 
-0.012195 0.005051 0.069780 0.000000 0.000000 1.000000 
-0.009334 0.009334 0.069780 0.000000 0.000000 1.000000 
-0.005051 0.012195 0.069780 0.000000 0.000000 1.000000 
0.000000 0.013200 0.069780 0.000000 0.000000 1.000000 
0.005051 0.012195 0.069780 0.000000 0.000000 1.000000 
-0.007644 -0.007644 0.015000 0.000000 0.000000 1.000000 
-0.009987 -0.004137 0.015000 0.000000 0.000000 1.000000 
-0.015000 -0.015000 0.015000 0.000000 0.000000 1.000000 
-0.010810 0.000000 0.015000 0.000000 0.000000 1.000000 
-0.009987 0.004137 0.015000 0.000000 0.000000 1.000000 
-0.015000 0.015000 0.015000 0.000000 0.000000 1.000000 
0.015000 0.015000 0.015000 0.000000 0.000000 1.000000 
0.007644 0.007644 0.015000 0.000000 0.000000 1.000000 
0.009987 0.004137 0.015000 0.000000 0.000000 1.000000 
-0.007644 0.007644 0.015000 0.000000 0.000000 1.000000 
-0.004137 -0.009987 0.015000 0.000000 0.000000 1.000000 
0.010810 -0.000000 0.015000 0.000000 0.000000 1.000000 
0.009987 -0.004137 0.015000 0.000000 0.000000 1.000000 
0.015000 -0.015000 0.015000 0.000000 0.000000 1.000000 
-0.004137 0.009987 0.015000 0.000000 0.000000 1.000000 
0.004137 0.009987 0.015000 0.000000 0.000000 1.000000 
0.007644 -0.007644 0.015000 0.000000 0.000000 1.000000 
0.004137 -0.009987 0.015000 0.000000 0.000000 1.000000 
0.000000 0.010810 0.015000 0.000000 0.000000 1.000000 
0.000000 -0.010810 0.015000 0.000000 0.000000 1.000000 
0.015000 0.015000 -0.015000 0.000000 0.000000 -1.000000 
0.015000 -0.015000 -0.015000 0.000000 0.000000 -1.000000 
-0.015000 -0.015000 -0.015000 0.000000 0.000000 -1.000000 
-0.015000 0.015000 -0.015000 0.000000 0.000000 -1.000000 
0.015000 0.015000 -0.015000 1.000000 0.000000 0.000000 
0.015000 0.015000 0.015000 1.000000 0.000000 0.000000 
0.015000 -0.015000 0.015000 1.000000 0.000000 0.000000 
0.015000 -0.015000 -0.015000 1.000000 0.000000 0.000000 
0.015000 -0.015000 -0.015000 0.000000 -1.000000 0.000000 
0.015000 -0.015000 0.015000 0.000000 -1.000000 0.000000 
-0.015000 -0.015000 0.015000 0.000000 -1.000000 0.000000 
-0.015000 -0.015000 -0.015000 0.000000 -1.000000 0.000000 
-0.015000 -0.015000 -0.015000 -1.000000 0.000000 0.000000 
-0.015000 -0.015000 0.015000 -1.000000 0.000000 0.000000 
-0.015000 0.015000 0.015000 -1.000000 0.000000 0.000000 
-0.015000 0.015000 -0.015000 -1.000000 0.000000 0.000000 
0.015000 0.015000 0.015000 0.000000 1.000000 0.000000 
0.015000 0.015000 -0.015000 0.000000 1.000000 0.000000 
-0.015000 0.015000 -0.015000 0.000000 1.000000 0.000000 
-0.015000 0.015000 0.015000 0.000000 1.000000 0.000000 
0.009987 0.004137 0.015000 0.922971 0.382305 -0.043580 
0.012195 0.005051 0.069780 0.922971 0.382305 -0.043580 
0.013200 -0.000000 0.069780 0.999023 0.000000 -0.043580 
0.010810 -0.000000 0.015000 0.999023 0.000000 -0.043580 
-0.009987 -0.004137 0.015000 -0.922971 -0.382305 -0.043580 
-0.012195 -0.005051 0.069780 -0.922971 -0.382305 -0.043580 
-0.013200 0.000000 0.069780 -0.999023 0.000000 -0.043580 
-0.010810 0.000000 0.015000 -0.999023 0.000000 -0.043580 
-0.012195 0.005051 0.069780 -0.922971 0.382305 -0.043580 
-0.009987 0.004137 0.015000 -0.922971 0.382305 -0.043580 
0.000000 -0.010810 0.015000 0.000000 -0.999023 -0.043580 
-0.000000 -0.013200 0.069780 0.000000 -0.999023 -0.043580 
-0.005051 -0.012195 0.069780 -0.382305 -0.922971 -0.043580 
-0.004137 -0.009987 0.015000 -0.382305 -0.922971 -0.043580 
-0.009334 0.009334 0.069780 -0.706412 0.706412 -0.043580 
-0.007644 0.007644 0.015000 -0.706412 0.706412 -0.043580 
-0.009334 -0.009334 0.069780 -0.706412 -0.706412 -0.043580 
-0.007644 -0.007644 0.015000 -0.706412 -0.706412 -0.043580 
0.012195 -0.005051 0.069780 0.922971 -0.382305 -0.043580 
0.009987 -0.004137 0.015000 0.922971 -0.382305 -0.043580 
-0.005051 0.012195 0.069780 -0.382305 0.923002 -0.043580 
-0.004137 0.009987 0.015000 -0.382305 0.923002 -0.043580 
0.004137 0.009987 0.015000 0.382305 0.922971 -0.043580 
0.005051 0.012195 0.069780 0.382305 0.922971 -0.043580 
0.009334 0.009334 0.069780 0.706412 0.706412 -0.043580 
0.007644 0.007644 0.015000 0.706412 0.706412 -0.043580 
0.009334 -0.009334 0.069780 0.706412 -0.706412 -0.043580 
0.007644 -0.007644 0.015000 0.706412 -0.706412 -0.043580 
0.000000 0.013200 0.069780 0.000000 0.999023 -0.043580 
0.000000 0.010810 0.015000 0.000000 0.999023 -0.043580 
0.005051 -0.012195 0.069780 0.382305 -0.922971 -0.043580 
0.004137 -0.009987 0.015000 0.382305 -0.922971 -0.043580 
3 0 1 2 
3 0 3 1 
3 0 4 3 
3 0 5 4 
3 0 6 5 
3 0 7 6 
3 0 8 7 
3 0 9 8 
3 0 10 9 
3 0 11 10 
3 0 12 11 
3 0 13 12 
3 0 14 13 
3 0 15 14 
3 0 16 15 
3 0 2 16 
3 17 18 19 
3 20 21 22 
3 23 24 25 
3 21 26 22 
3 19 27 17 
3 28 29 30 
3 26 31 22 
3 23 32 24 
3 29 33 30 
3 33 34 30 
3 23 35 32 
3 30 34 36 
4 37 38 39 40 
4 41 42 43 44 
4 45 46 47 48 
4 49 50 51 52 
4 53 54 55 56 
4 25 28 30 23 
4 57 58 59 60 
4 18 20 22 19 
4 61 62 63 64 
4 64 63 65 66 
4 36 27 19 30 
4 67 68 69 70 
4 66 65 71 72 
4 70 69 73 74 
4 60 59 75 76 
4 72 71 77 78 
4 79 80 81 82 
4 76 75 83 84 
4 31 35 23 22 
4 78 77 85 86 
4 84 83 87 88 
4 86 85 80 79 
4 88 87 68 67 
4 57 82 81 58 
4 61 74 73 62 
