ply
format ascii 1.0
comment Created by Blender3D 248 - www.blender.org, source file: 
element vertex 211
property float x
property float y
property float z
property float nx
property float ny
property float nz
element face 237
property list uchar uint vertex_indices
end_header
0.031550 0.011178 0.008934 0.618275 0.260811 -0.741417 
0.033276 0.002578 0.008934 0.672872 0.058565 -0.737388 
0.025786 0.008698 0.003774 0.650166 0.193884 -0.734611 
0.024827 0.001609 0.002373 0.632344 -0.063784 -0.772027 
0.032716 -0.006175 0.008934 0.594806 -0.153691 -0.788995 
0.018438 -0.016361 0.002373 0.516984 -0.425825 -0.742546 
0.025049 -0.021787 0.008934 0.528520 -0.375622 -0.761254 
0.018464 -0.027581 0.008934 0.409742 -0.537919 -0.736686 
0.025049 -0.021787 0.097405 0.691275 -0.604236 0.396191 
0.020899 -0.018159 0.108467 0.691275 -0.604236 0.396191 
0.018464 -0.027581 0.097405 0.544359 -0.739525 0.395886 
0.015394 -0.023003 0.108467 0.477493 -0.784387 0.395856 
0.010603 -0.031473 0.097405 0.334391 -0.855251 0.395825 
0.008823 -0.026257 0.108467 0.258187 -0.881252 0.395825 
0.002003 -0.033198 0.097405 0.101657 -0.912656 0.395825 
0.001634 -0.027699 0.108467 0.021302 -0.918058 0.395856 
-0.006750 -0.032639 0.097405 -0.138005 -0.907865 0.395856 
-0.005684 -0.027231 0.108467 -0.216987 -0.892270 0.395856 
-0.015061 -0.029833 0.097405 -0.368236 -0.841212 0.395856 
-0.012631 -0.024886 0.108467 -0.440535 -0.805719 0.395856 
-0.022362 -0.024972 0.097405 -0.604266 -0.691275 0.396191 
-0.018734 -0.020822 0.108467 -0.604236 -0.691275 0.396191 
-0.023578 -0.015317 0.108467 -0.762596 -0.511338 0.396161 
-0.028156 -0.018386 0.097405 -0.762596 -0.511307 0.396161 
-0.032048 -0.010526 0.097405 -0.855251 -0.334391 0.395825 
-0.026832 -0.008746 0.108467 -0.881252 -0.258187 0.395825 
-0.033773 -0.001926 0.097405 -0.912656 -0.101657 0.395825 
-0.028274 -0.001557 0.108467 -0.918058 -0.021302 0.395856 
-0.033214 0.006828 0.097405 -0.900815 0.177618 0.396191 
-0.027806 0.005761 0.108467 -0.900784 0.177618 0.396191 
-0.025461 0.012708 0.108467 -0.841212 0.368267 0.395856 
-0.030408 0.015138 0.097405 -0.805719 0.440535 0.395825 
-0.021397 0.018812 0.108467 -0.691275 0.604266 0.396161 
-0.025547 0.022439 0.097405 -0.691275 0.604266 0.396161 
-0.018961 0.028233 0.097405 -0.544328 0.739586 0.395825 
-0.015892 0.023655 0.108467 -0.477462 0.784387 0.395825 
-0.011101 0.032125 0.097405 -0.334422 0.855220 0.395825 
-0.009321 0.026909 0.108467 -0.258217 0.881252 0.395856 
-0.002501 0.033851 0.097405 -0.101627 0.912625 0.395856 
-0.002131 0.028351 0.108467 -0.021271 0.918027 0.395886 
0.006253 0.033291 0.097405 0.138035 0.907834 0.395886 
0.005186 0.027883 0.108467 0.216987 0.892270 0.395856 
0.014563 0.030485 0.097405 0.368267 0.841212 0.395856 
0.012133 0.025538 0.108467 0.440535 0.805719 0.395825 
0.021864 0.025624 0.097405 0.604266 0.691275 0.396161 
0.018237 0.021474 0.108467 0.604266 0.691275 0.396161 
0.023080 0.015969 0.108467 0.762596 0.511307 0.396161 
0.027658 0.019039 0.097405 0.762596 0.511307 0.396191 
0.031550 0.011178 0.097405 0.855251 0.334422 0.395825 
0.026334 0.009398 0.108467 0.881252 0.258217 0.395856 
0.033276 0.002578 0.097405 0.916074 0.061556 0.396161 
0.027776 0.002209 0.108467 0.916074 0.061556 0.396191 
0.027309 -0.005109 0.108467 0.907865 -0.138005 0.395825 
0.032716 -0.006175 0.097405 0.892300 -0.217048 0.395825 
0.024963 -0.012056 0.108467 0.841212 -0.368297 0.395825 
0.029910 -0.014486 0.097405 0.805719 -0.440565 0.395856 
0.014563 0.030485 0.008934 0.237770 0.568041 -0.787866 
0.021864 0.025624 0.008934 0.465072 0.531358 -0.708060 
0.017571 0.019869 0.002752 0.400006 0.482223 -0.779382 
0.027658 0.019039 0.008934 0.555254 0.378399 -0.740593 
0.005398 0.026732 0.005206 0.199927 0.527604 -0.825587 
0.006253 0.033291 0.008934 0.169591 0.566576 -0.806330 
-0.001333 0.025222 0.002373 0.079134 0.584094 -0.807794 
-0.002501 0.033851 0.008934 -0.128941 0.618793 -0.774865 
-0.007306 0.022733 0.002790 -0.182806 0.582476 -0.791986 
-0.011101 0.032125 0.008934 -0.173009 0.570360 -0.802942 
-0.013339 0.020839 0.002425 -0.257485 0.552843 -0.792474 
-0.018961 0.028233 0.008934 -0.361400 0.526749 -0.769341 
-0.018558 0.017033 0.002373 -0.431562 0.478530 -0.764641 
-0.025547 0.022439 0.008934 -0.501816 0.435316 -0.747429 
-0.023108 0.012115 0.002540 -0.570971 0.352550 -0.741386 
-0.030408 0.015138 0.008934 -0.625965 0.283975 -0.726279 
-0.025791 0.005838 0.002752 -0.664449 0.175329 -0.726432 
0.004788 0.023007 0.003086 0.198035 0.515458 -0.833705 
0.024827 0.001609 0.002373 0.816492 -0.132450 -0.561937 
0.025786 0.008698 0.003774 0.821070 0.019044 -0.570482 
0.027097 0.001725 0.005206 0.816492 -0.132450 -0.561937 
0.022960 -0.004587 0.002790 0.793085 -0.280923 -0.540422 
-0.015410 -0.016670 0.003439 0.257790 0.232459 -0.937803 
-0.012202 -0.023422 0.003037 -0.002441 0.067537 -0.997711 
-0.018130 -0.019684 0.003383 0.029115 -0.004730 -0.999542 
-0.022146 -0.013968 0.002752 0.133793 0.042634 -0.990081 
-0.022146 -0.013968 0.002752 -0.684713 -0.403699 0.606739 
-0.018130 -0.019684 0.003383 -0.684713 -0.403699 0.606739 
-0.025445 -0.007878 0.003037 -0.684713 -0.403699 0.606739 
0.010491 0.020980 0.003086 -0.136601 -0.436628 -0.889187 
0.004788 0.023007 0.003086 -0.143529 -0.467849 -0.872066 
0.017571 0.019869 0.002752 -0.249916 -0.323313 -0.912656 
0.017571 0.019869 0.002752 0.229286 0.066042 -0.971099 
0.025786 0.008698 0.003774 0.189184 0.097018 -0.977111 
0.019698 0.013132 0.002790 0.213965 0.043764 -0.975860 
0.021998 0.007473 0.003086 0.168859 0.112491 -0.979186 
0.024827 0.001609 0.002373 0.137730 0.202490 -0.969543 
-0.005639 -0.025755 0.003037 0.029328 0.082522 -0.996155 
-0.025445 -0.007878 0.003037 0.195288 0.116520 -0.973785 
-0.021684 -0.006661 0.003836 0.349712 0.215705 -0.911679 
-0.026706 -0.001028 0.003037 0.490249 0.051424 -0.870052 
0.012708 0.014480 0.006189 -0.295053 -0.324442 -0.898679 
0.001304 -0.026310 0.003037 -0.062502 0.545762 -0.835597 
0.001103 -0.022389 0.005267 -0.049837 0.433149 -0.899930 
0.008041 -0.024700 0.002752 -0.237312 0.464125 -0.853359 
0.005806 -0.017794 0.006189 -0.106662 0.275369 -0.955382 
-0.003260 -0.014630 0.006946 0.040773 0.195776 -0.979766 
0.000529 -0.011163 0.007536 -0.022248 0.110416 -0.993622 
0.002308 -0.006983 0.007959 -0.027650 0.105930 -0.993957 
-0.002919 0.002916 0.008214 0.050508 -0.038789 -0.997955 
0.003370 -0.001417 0.008214 -0.050630 0.019959 -0.998505 
0.010298 -0.015658 0.006189 -0.266793 0.310892 -0.912198 
0.013754 -0.020993 0.002411 -0.378002 0.426801 -0.821528 
0.018438 -0.016361 0.002373 -0.430158 0.287179 -0.855831 
0.011301 -0.009919 0.006946 -0.250130 0.152135 -0.956145 
0.021276 -0.010569 0.002566 -0.444563 0.211280 -0.870449 
0.012786 0.008655 0.006946 -0.269814 -0.147221 -0.951567 
0.021998 0.007473 0.003086 -0.499374 -0.211493 -0.840144 
0.018970 0.001310 0.006189 -0.428449 -0.024079 -0.903226 
0.006905 0.013963 0.006946 -0.114994 -0.253761 -0.960387 
-0.001034 0.019366 0.006189 0.021302 -0.431837 -0.901669 
-0.018558 0.017033 0.002373 0.337291 -0.302377 -0.891507 
-0.013339 0.020839 0.002425 0.274606 -0.409986 -0.869747 
-0.011420 0.010590 0.006946 0.231910 -0.214454 -0.948790 
-0.008379 0.013181 0.006946 0.153264 -0.267312 -0.951323 
-0.007582 0.001944 0.007959 0.065554 -0.002533 -0.997833 
0.002348 0.011595 0.007536 -0.033387 -0.137059 -0.989990 
-0.007306 0.022733 0.002790 0.223304 -0.501297 -0.835932 
-0.000453 0.008018 0.007959 -0.004852 -0.086886 -0.996185 
0.010895 0.003880 0.007536 -0.136204 -0.059114 -0.988891 
0.014906 -0.002865 0.006946 -0.311655 0.120426 -0.942503 
0.007623 0.000729 0.007959 -0.096042 -0.010468 -0.995300 
0.022960 -0.004587 0.002790 -0.512162 0.185034 -0.838679 
-0.015026 0.003536 0.006946 0.227271 -0.131077 -0.964934 
-0.023108 0.012115 0.002540 0.343638 -0.324686 -0.881161 
-0.025791 0.005838 0.002752 0.602557 -0.199500 -0.772698 
-0.022312 0.005094 0.005267 0.412214 -0.143925 -0.899625 
-0.022785 -0.000827 0.005267 0.438063 0.184240 -0.879849 
-0.014621 -0.004376 0.006946 0.196905 0.060945 -0.978515 
-0.005214 -0.005375 0.007959 0.065096 0.057680 -0.996185 
-0.012827 -0.013809 0.006189 0.312387 0.275399 -0.909146 
-0.004818 -0.021916 0.005267 0.181433 0.377209 -0.908139 
-0.010314 -0.011025 0.006946 0.129460 0.168706 -0.977111 
-0.007774 -0.008211 0.007536 0.101779 0.112766 -0.988372 
-0.005639 -0.025755 0.003037 0.160100 0.526139 -0.835170 
0.019698 0.013132 0.002790 -0.509201 -0.211524 -0.834223 
-0.001333 0.025222 0.002373 0.034974 -0.599689 -0.799432 
0.024827 0.001609 0.002373 -0.600055 -0.026399 -0.799493 
-0.018130 -0.019684 0.003383 -0.472274 -0.457503 -0.753380 
-0.032048 -0.010526 0.008934 -0.608020 -0.265908 -0.748039 
-0.025445 -0.007878 0.003037 -0.654439 -0.217750 -0.724052 
-0.033773 -0.001926 0.008934 -0.689108 -0.072878 -0.720969 
-0.033214 0.006828 0.008934 -0.683767 0.108493 -0.721549 
-0.026706 -0.001028 0.003037 -0.690481 -0.007904 -0.723258 
-0.022362 -0.024972 0.008934 -0.452803 -0.517563 -0.725974 
-0.015061 -0.029833 0.008934 -0.304147 -0.606159 -0.734855 
-0.005639 -0.025755 0.003037 -0.195868 -0.650166 -0.734062 
-0.006750 -0.032639 0.008934 -0.108982 -0.692038 -0.713553 
0.001304 -0.026310 0.003037 0.009827 -0.700064 -0.713981 
0.002003 -0.033198 0.008934 0.074984 -0.698508 -0.711631 
0.008041 -0.024700 0.002752 0.207465 -0.669607 -0.713126 
0.010603 -0.031473 0.008934 0.265542 -0.643544 -0.717826 
0.013754 -0.020993 0.002411 0.379070 -0.575549 -0.724570 
-0.028156 -0.018386 0.008934 -0.534501 -0.365215 -0.762139 
0.021276 -0.010569 0.002566 0.582324 -0.252480 -0.772729 
0.029910 -0.014486 0.008934 0.561663 -0.223426 -0.796594 
0.022960 -0.004587 0.002790 0.571001 -0.184362 -0.799951 
0.033276 0.002578 0.008934 0.999725 0.023194 0.000000 
0.032716 -0.006175 0.097405 0.988617 -0.150334 0.000000 
0.032716 -0.006175 0.008934 0.971648 -0.236305 0.000000 
0.029910 -0.014486 0.097405 0.916044 -0.401013 0.000000 
0.029910 -0.014486 0.008934 0.877407 -0.479720 0.000000 
0.025049 -0.021787 0.097405 0.752892 -0.658101 0.000000 
0.025049 -0.021787 0.008934 0.752892 -0.658101 0.000000 
0.018464 -0.027581 0.008934 0.592792 -0.805353 0.000000 
0.018464 -0.027581 0.097405 0.519944 -0.854183 0.000000 
0.033276 0.002578 0.097405 0.993835 0.110721 0.000000 
0.031550 0.011178 0.008934 0.959624 0.281198 0.000000 
0.031550 0.011178 0.097405 0.931333 0.364147 0.000000 
0.027658 0.019039 0.008934 0.854183 0.519944 0.000000 
0.027658 0.019039 0.097405 0.805353 0.592792 0.000000 
0.021864 0.025624 0.008934 0.658101 0.752892 0.000000 
0.021864 0.025624 0.097405 0.658101 0.752892 0.000000 
0.014563 0.030485 0.097405 0.479751 0.877377 0.000000 
0.014563 0.030485 0.008934 0.401044 0.916044 0.000000 
-0.032048 -0.010526 0.008934 -0.959655 -0.281137 0.000000 
-0.033773 -0.001926 0.097405 -0.993835 -0.110691 0.000000 
-0.033773 -0.001926 0.008934 -0.999725 -0.023225 0.000000 
-0.033214 0.006828 0.097405 -0.988617 0.150243 0.000000 
-0.033214 0.006828 0.008934 -0.971648 0.236305 0.000000 
-0.030408 0.015138 0.097405 -0.916044 0.401044 0.000000 
-0.030408 0.015138 0.008934 -0.877377 0.479751 0.000000 
-0.025547 0.022439 0.097405 -0.752892 0.658132 0.000000 
-0.025547 0.022439 0.008934 -0.752892 0.658132 0.000000 
-0.018961 0.028233 0.008934 -0.592761 0.805353 0.000000 
-0.018961 0.028233 0.097405 -0.519944 0.854183 0.000000 
-0.011101 0.032125 0.008934 -0.364177 0.931303 0.000000 
-0.011101 0.032125 0.097405 -0.281228 0.959624 0.000000 
-0.002501 0.033851 0.008934 -0.110721 0.993835 0.000000 
-0.002501 0.033851 0.097405 -0.023194 0.999725 0.000000 
0.006253 0.033291 0.008934 0.150334 0.988617 0.000000 
0.006253 0.033291 0.097405 0.236335 0.971648 0.000000 
-0.032048 -0.010526 0.097405 -0.931333 -0.364147 0.000000 
-0.028156 -0.018386 0.008934 -0.854183 -0.519944 0.000000 
-0.028156 -0.018386 0.097405 -0.805353 -0.592761 0.000000 
-0.022362 -0.024972 0.008934 -0.658132 -0.752892 0.000000 
-0.022362 -0.024972 0.097405 -0.658132 -0.752892 0.000000 
-0.015061 -0.029833 0.097405 -0.479720 -0.877407 0.000000 
-0.015061 -0.029833 0.008934 -0.401013 -0.916044 0.000000 
0.010603 -0.031473 0.097405 0.281137 -0.959655 0.000000 
0.002003 -0.033198 0.008934 0.110691 -0.993835 0.000000 
0.010603 -0.031473 0.008934 0.364116 -0.931333 0.000000 
0.002003 -0.033198 0.097405 0.023225 -0.999725 0.000000 
-0.006750 -0.032639 0.008934 -0.150243 -0.988617 0.000000 
-0.006750 -0.032639 0.097405 -0.236274 -0.971679 0.000000 
3 0 1 2 
3 2 1 3 
3 3 1 4 
3 5 6 7 
3 8 9 10 
3 11 10 9 
3 10 11 12 
3 13 12 11 
3 12 13 14 
3 15 14 13 
3 14 15 16 
3 17 16 15 
3 16 17 18 
3 19 18 17 
3 18 19 20 
3 21 20 19 
3 21 22 20 
3 23 20 22 
3 23 22 24 
3 25 24 22 
3 24 25 26 
3 27 26 25 
3 26 27 28 
3 29 28 27 
3 29 30 28 
3 31 28 30 
3 30 32 31 
3 33 31 32 
3 33 32 34 
3 35 34 32 
3 34 35 36 
3 37 36 35 
3 36 37 38 
3 39 38 37 
3 38 39 40 
3 41 40 39 
3 40 41 42 
3 43 42 41 
3 42 43 44 
3 45 44 43 
3 45 46 44 
3 47 44 46 
3 47 46 48 
3 49 48 46 
3 48 49 50 
3 51 50 49 
3 51 52 50 
3 53 50 52 
3 52 54 53 
3 55 53 54 
3 54 9 55 
3 8 55 9 
3 56 57 58 
3 57 59 58 
3 59 0 58 
3 58 0 2 
3 60 56 58 
3 61 56 60 
3 62 61 60 
3 63 61 62 
3 63 62 64 
3 65 63 64 
3 65 64 66 
3 67 65 66 
3 67 66 68 
3 69 67 68 
3 69 68 70 
3 69 70 71 
3 70 72 71 
3 73 62 60 
3 73 60 58 
3 74 75 76 
3 74 76 77 
3 78 79 80 
3 80 81 78 
3 82 83 84 
3 85 86 87 
3 88 89 90 
3 91 90 89 
3 89 92 91 
3 78 93 79 
3 81 94 78 
3 95 78 94 
3 94 96 95 
3 87 97 85 
3 98 99 100 
3 100 99 101 
3 102 101 99 
3 101 102 103 
3 104 105 106 
3 103 104 101 
3 107 101 104 
3 101 107 100 
3 108 100 107 
3 107 109 108 
3 109 107 110 
3 104 110 107 
3 104 106 110 
3 111 109 110 
3 112 113 114 
3 113 112 97 
3 115 86 97 
3 116 86 115 
3 117 118 119 
3 120 119 118 
3 105 121 119 
3 122 120 116 
3 123 116 120 
3 118 123 120 
3 119 120 105 
3 120 124 105 
3 124 120 122 
3 122 116 115 
3 115 97 112 
3 114 125 112 
3 125 114 126 
3 127 110 106 
3 126 110 127 
3 110 126 111 
3 128 111 126 
3 126 114 128 
3 125 127 122 
3 124 122 127 
3 105 124 106 
3 127 106 124 
3 122 115 125 
3 112 125 115 
3 126 127 125 
3 129 119 121 
3 119 129 117 
3 130 117 129 
3 131 130 132 
3 131 132 96 
3 133 96 132 
3 133 132 134 
3 129 134 132 
3 121 135 129 
3 129 132 130 
3 129 135 134 
3 96 133 95 
3 95 133 78 
3 136 78 133 
3 137 78 136 
3 137 102 99 
3 104 121 105 
3 138 136 134 
3 133 134 136 
3 136 138 137 
3 102 137 138 
3 104 103 121 
3 135 121 103 
3 134 135 139 
3 139 138 134 
3 102 138 139 
3 139 135 102 
3 103 102 135 
3 137 99 140 
3 98 140 99 
3 137 140 78 
3 97 87 141 
3 86 85 97 
3 116 123 142 
3 142 86 116 
3 143 114 113 
3 141 113 97 
3 143 128 114 
3 144 145 146 
3 147 146 145 
3 71 72 148 
3 148 72 149 
3 147 148 149 
3 147 149 146 
3 150 144 151 
3 144 152 151 
3 151 152 153 
3 152 154 153 
3 155 153 154 
3 154 156 155 
3 156 157 155 
3 158 7 157 
3 156 158 157 
3 158 5 7 
3 159 144 150 
3 145 144 159 
3 160 161 6 
3 160 6 5 
3 162 161 160 
3 162 4 161 
3 3 4 162 
3 163 164 165 
3 166 165 164 
3 165 166 167 
3 168 167 166 
3 167 168 169 
3 168 170 169 
3 170 168 171 
3 164 163 172 
3 172 163 173 
3 172 173 174 
3 175 174 173 
3 174 175 176 
3 177 176 175 
3 176 177 178 
3 177 179 178 
3 179 177 180 
3 181 182 183 
3 184 183 182 
3 183 184 185 
3 186 185 184 
3 185 186 187 
3 188 187 186 
3 187 188 189 
3 188 190 189 
3 190 188 191 
3 191 192 190 
3 192 191 193 
3 193 194 192 
3 194 193 195 
3 195 196 194 
3 196 195 197 
3 197 180 196 
3 180 197 179 
3 182 181 198 
3 199 198 181 
3 198 199 200 
3 201 200 199 
3 200 201 202 
3 201 203 202 
3 203 201 204 
3 205 206 207 
3 206 205 208 
3 208 209 206 
3 209 208 210 
3 210 204 209 
3 204 210 203 
3 207 171 205 
3 171 207 170 
