ply
format ascii 1.0
comment Created by Blender3D 248 - www.blender.org, source file: 
element vertex 284
property float x
property float y
property float z
property float nx
property float ny
property float nz
element face 221
property list uchar uint vertex_indices
end_header
0.035843 -0.034257 0.104997 0.000000 -1.000000 0.000000 
-0.034157 -0.034257 -0.093903 0.000000 -1.000000 0.000000 
0.035843 -0.034257 -0.093903 0.000000 -1.000000 0.000000 
-0.034157 -0.034257 0.104997 0.000000 -1.000000 0.000000 
0.035843 0.035743 -0.093903 0.000000 0.000000 -1.000000 
-0.034157 -0.034257 -0.093903 0.000000 0.000000 -1.000000 
-0.034157 0.035743 -0.093903 0.000000 0.000000 -1.000000 
0.035843 -0.034257 -0.093903 0.000000 0.000000 -1.000000 
-0.034157 0.035743 0.104997 0.000000 1.000000 0.000000 
0.035843 0.035743 -0.093903 0.000000 1.000000 0.000000 
-0.034157 0.035743 -0.093903 0.000000 1.000000 0.000000 
0.035843 0.035743 0.104997 0.000000 1.000000 0.000000 
0.035727 0.001243 0.128960 0.935331 0.000000 0.353679 
0.035628 0.000243 0.129199 0.906766 0.000000 0.421583 
0.035727 0.000243 0.128960 0.947752 0.000000 0.318949 
0.035628 0.001243 0.129199 0.890591 0.000000 0.454756 
0.035799 0.001243 0.128712 0.968657 0.000000 0.248299 
0.035799 0.000243 0.128712 0.977172 0.000000 0.212409 
0.035843 0.001243 0.128457 0.993011 0.000000 0.117924 
0.035843 0.000243 0.128457 0.998230 0.000000 0.058962 
-0.034123 0.001243 0.128717 -0.985412 0.000000 0.170141 
-0.034157 0.000243 0.128457 -0.996155 0.000000 0.087466 
-0.034123 0.000243 0.128717 -0.977874 0.000000 0.209082 
-0.034157 0.001243 0.128457 -0.999023 0.000000 0.043733 
-0.034059 0.001243 0.128971 -0.958251 0.000000 0.285836 
-0.034059 0.000243 0.128971 -0.946165 0.000000 0.323649 
-0.033967 0.001243 0.129215 -0.917570 0.000000 0.397504 
-0.033967 0.000243 0.129215 -0.901089 0.000000 0.433607 
-0.033846 0.001243 0.129446 -0.863948 0.000000 0.503555 
-0.033846 0.000243 0.129446 -0.843287 0.000000 0.537431 
-0.033700 0.001243 0.129662 -0.798090 0.000000 0.602496 
-0.033700 0.000243 0.129662 -0.773583 0.000000 0.633686 
-0.033529 0.001243 0.129857 -0.707114 0.000000 0.707083 
-0.033529 0.000243 0.129857 -0.707114 0.000000 0.707083 
-0.033337 0.000243 0.130031 -0.633686 0.000000 0.773553 
-0.033337 0.001243 0.130031 -0.602496 0.000000 0.798120 
-0.033126 0.000243 0.130181 -0.537431 0.000000 0.843287 
-0.033126 0.001243 0.130181 -0.503555 0.000000 0.863948 
-0.032899 0.000243 0.130304 -0.433607 0.000000 0.901089 
-0.032899 0.001243 0.130304 -0.397504 0.000000 0.917570 
-0.032660 0.000243 0.130398 -0.323649 0.000000 0.946165 
-0.032660 0.001243 0.130398 -0.285867 0.000000 0.958251 
-0.032411 0.000243 0.130463 -0.209113 0.000000 0.977874 
-0.032411 0.001243 0.130463 -0.170141 0.000000 0.985412 
-0.032157 0.000243 0.130497 -0.087466 0.000000 0.996155 
-0.032157 0.001243 0.130497 -0.043733 0.000000 0.999023 
0.035843 0.001243 0.120079 1.000000 0.000000 0.000000 
0.035843 0.000243 0.120079 1.000000 0.000000 0.000000 
-0.034157 -0.031719 0.104997 -1.000000 0.000000 0.000000 
-0.034157 -0.034257 -0.093903 -1.000000 0.000000 0.000000 
-0.034157 -0.034257 0.104997 -1.000000 0.000000 0.000000 
-0.034157 0.035743 -0.093903 -1.000000 0.000000 0.000000 
-0.034157 0.033204 0.104997 -1.000000 0.000000 0.000000 
-0.034157 0.035743 0.104997 -1.000000 0.000000 0.000000 
0.035843 0.001243 0.120079 0.000000 0.393902 0.919126 
-0.034157 0.035743 0.104997 0.000000 0.393902 0.919126 
-0.034157 0.001243 0.120079 0.000000 0.393902 0.919126 
0.035843 0.035743 0.104997 0.000000 0.393902 0.919126 
-0.034157 -0.034257 0.104997 -0.000122 -0.394330 0.918943 
-0.008090 -0.025133 0.108994 -0.000610 -0.394330 0.918943 
-0.034157 0.000243 0.120079 -0.000336 -0.393811 0.919187 
-0.005503 -0.026958 0.108196 -0.000153 -0.394177 0.919004 
-0.002489 -0.028106 0.107694 -0.000092 -0.394360 0.918943 
0.000745 -0.028497 0.107523 0.000000 -0.394635 0.918821 
0.035843 -0.034257 0.104997 0.000153 -0.394208 0.919004 
-0.010076 -0.022755 0.110034 -0.000977 -0.394513 0.918882 
-0.011324 -0.019985 0.111244 -0.000427 -0.394024 0.919065 
-0.011750 -0.017012 0.112544 -0.000305 -0.393902 0.919126 
0.003979 -0.028106 0.107694 0.000092 -0.394360 0.918943 
0.006992 -0.026958 0.108196 0.000153 -0.394177 0.919004 
0.009580 -0.025133 0.108994 0.000183 -0.394086 0.919065 
0.011566 -0.022755 0.110034 0.000214 -0.394024 0.919065 
0.012814 -0.019985 0.111244 0.000244 -0.393963 0.919095 
0.013240 -0.017012 0.112544 0.000275 -0.393902 0.919126 
0.000745 -0.005528 0.117564 0.000000 -0.393170 0.919462 
0.035843 0.000243 0.120079 0.000153 -0.393597 0.919248 
-0.002489 -0.005919 0.117393 -0.000092 -0.393445 0.919340 
-0.005503 -0.007066 0.116892 -0.000153 -0.393628 0.919248 
-0.008090 -0.008891 0.116094 -0.000183 -0.393719 0.919218 
-0.010076 -0.011270 0.115054 -0.000214 -0.393780 0.919187 
-0.011324 -0.014040 0.113843 -0.000244 -0.393841 0.919156 
0.003979 -0.005919 0.117393 0.000092 -0.393445 0.919340 
0.006992 -0.007066 0.116892 0.000153 -0.393628 0.919248 
0.009580 -0.008891 0.116094 0.000183 -0.393719 0.919218 
0.011566 -0.011270 0.115054 0.000214 -0.393780 0.919187 
0.012814 -0.014040 0.113843 0.000244 -0.393841 0.919156 
0.035843 0.033204 0.104997 0.224494 0.000000 0.974456 
0.005843 0.000743 0.112048 0.224494 0.000000 0.974456 
0.035843 -0.031719 0.104997 0.224494 0.000000 0.974456 
-0.004157 0.000743 0.112048 -0.209693 0.385144 -0.898679 
-0.034157 -0.031719 0.104997 -0.209693 0.385144 -0.898679 
-0.034157 0.000743 0.119188 -0.209693 0.385144 -0.898679 
-0.004157 0.000743 0.112048 -0.224494 0.000000 0.974456 
-0.034157 0.033204 0.104997 -0.224494 0.000000 0.974456 
-0.034157 -0.031719 0.104997 -0.224494 0.000000 0.974456 
-0.004157 0.000743 0.112048 -0.209693 -0.385144 -0.898679 
-0.034157 0.000743 0.119188 -0.209693 -0.385144 -0.898679 
-0.034157 0.033204 0.104997 -0.209693 -0.385144 -0.898679 
0.035843 0.000743 0.119188 0.209693 -0.385144 -0.898679 
0.005843 0.000743 0.112048 0.209693 -0.385144 -0.898679 
0.035843 0.033204 0.104997 0.209693 -0.385144 -0.898679 
0.035843 -0.031719 0.104997 0.209693 0.385144 -0.898679 
0.005843 0.000743 0.112048 0.209693 0.385144 -0.898679 
0.035843 0.000743 0.119188 0.209693 0.385144 -0.898679 
-0.034157 0.001243 0.128457 0.000000 1.000000 0.000000 
0.035843 0.001243 0.120079 0.000000 1.000000 0.000000 
-0.034157 0.001243 0.120079 0.000000 1.000000 0.000000 
0.035843 0.001243 0.128457 0.000000 1.000000 0.000000 
-0.034123 0.001243 0.128717 0.000000 1.000000 0.000000 
0.035799 0.001243 0.128712 0.000000 1.000000 0.000000 
0.035727 0.001243 0.128960 0.000000 1.000000 0.000000 
-0.034059 0.001243 0.128971 0.000000 1.000000 0.000000 
0.035628 0.001243 0.129199 0.000000 1.000000 0.000000 
-0.033967 0.001243 0.129215 0.000000 1.000000 0.000000 
0.035505 0.001243 0.129425 0.000000 1.000000 0.000000 
-0.033846 0.001243 0.129446 0.000000 1.000000 0.000000 
0.035357 0.001243 0.129636 0.000000 1.000000 0.000000 
-0.033700 0.001243 0.129662 0.000000 1.000000 0.000000 
0.035188 0.001243 0.129829 0.000000 1.000000 0.000000 
-0.033529 0.001243 0.129857 0.000000 1.000000 0.000000 
0.034999 0.001243 0.130001 0.000000 1.000000 0.000000 
-0.033337 0.001243 0.130031 0.000000 1.000000 0.000000 
0.034792 0.001243 0.130152 0.000000 1.000000 0.000000 
-0.033126 0.001243 0.130181 0.000000 1.000000 0.000000 
0.034571 0.001243 0.130278 0.000000 1.000000 0.000000 
-0.032899 0.001243 0.130304 0.000000 1.000000 0.000000 
0.034337 0.001243 0.130378 0.000000 1.000000 0.000000 
-0.032660 0.001243 0.130398 0.000000 1.000000 0.000000 
0.034093 0.001243 0.130452 0.000000 1.000000 0.000000 
-0.032411 0.001243 0.130463 0.000000 1.000000 0.000000 
0.033843 0.001243 0.130497 0.000000 1.000000 0.000000 
-0.032157 0.001243 0.130497 0.000000 1.000000 0.000000 
0.033843 0.000243 0.130497 0.058931 0.000000 0.998230 
0.033843 0.001243 0.130497 0.117893 0.000000 0.993011 
-0.034157 0.000243 0.120079 -1.000000 0.000000 0.000000 
-0.034157 0.001243 0.120079 -1.000000 0.000000 0.000000 
-0.034157 0.000243 0.120079 -1.000000 0.000000 0.000000 
-0.034157 -0.031719 0.104997 -1.000000 0.000000 0.000000 
-0.034157 -0.034257 0.104997 -1.000000 0.000000 0.000000 
-0.034157 0.000743 0.119188 -1.000000 0.000000 0.000000 
-0.034157 0.001243 0.120079 -1.000000 0.000000 0.000000 
-0.034157 0.033204 0.104997 -1.000000 0.000000 0.000000 
-0.034157 0.035743 0.104997 -1.000000 0.000000 0.000000 
0.035843 0.035743 -0.093903 1.000000 0.000000 0.000000 
0.035843 -0.034257 0.104997 1.000000 0.000000 0.000000 
0.035843 -0.034257 -0.093903 1.000000 0.000000 0.000000 
0.035843 -0.031719 0.104997 1.000000 0.000000 0.000000 
0.035843 0.033204 0.104997 1.000000 0.000000 0.000000 
0.035843 0.035743 0.104997 1.000000 0.000000 0.000000 
0.035843 0.000243 0.120079 0.000000 0.000000 1.000000 
-0.034157 0.001243 0.120079 0.000000 0.000000 1.000000 
-0.034157 0.000243 0.120079 0.000000 0.000000 1.000000 
0.035843 0.001243 0.120079 0.000000 0.000000 1.000000 
0.035843 0.000243 0.120079 1.000000 0.000000 0.000000 
0.035843 -0.034257 0.104997 1.000000 0.000000 0.000000 
0.035843 -0.031719 0.104997 1.000000 0.000000 0.000000 
0.035843 0.000743 0.119188 1.000000 0.000000 0.000000 
0.035843 0.001243 0.120079 1.000000 0.000000 0.000000 
0.035843 -0.034257 0.104997 0.000000 0.000000 1.000000 
-0.034157 -0.031719 0.104997 0.000000 0.000000 1.000000 
-0.034157 -0.034257 0.104997 0.000000 0.000000 1.000000 
-0.034157 0.033204 0.104997 0.000000 0.000000 1.000000 
-0.034157 0.035743 0.104997 0.000000 0.000000 1.000000 
0.035843 0.035743 0.104997 0.000000 0.000000 1.000000 
0.035843 0.035743 0.104997 0.000000 0.337840 0.941191 
0.035843 -0.034257 0.104997 0.000000 0.000000 1.000000 
0.035843 -0.031719 0.104997 0.000000 0.013001 0.999908 
0.035843 0.000243 0.128457 0.000000 -1.000000 0.000000 
-0.034157 0.000243 0.120079 0.000000 -1.000000 0.000000 
0.035843 0.000243 0.120079 0.000000 -1.000000 0.000000 
-0.034157 0.000243 0.128457 0.000000 -1.000000 0.000000 
0.035799 0.000243 0.128712 0.000000 -1.000000 0.000000 
-0.034123 0.000243 0.128717 0.000000 -1.000000 0.000000 
0.035727 0.000243 0.128960 0.000000 -1.000000 0.000000 
-0.034059 0.000243 0.128971 0.000000 -1.000000 0.000000 
0.035628 0.000243 0.129199 0.000000 -1.000000 0.000000 
-0.033967 0.000243 0.129215 0.000000 -1.000000 0.000000 
0.035505 0.000243 0.129425 0.000000 -1.000000 0.000000 
-0.033846 0.000243 0.129446 0.000000 -1.000000 0.000000 
0.035357 0.000243 0.129636 0.000000 -1.000000 0.000000 
-0.033700 0.000243 0.129662 0.000000 -1.000000 0.000000 
0.035188 0.000243 0.129829 0.000000 -1.000000 0.000000 
-0.033529 0.000243 0.129857 0.000000 -1.000000 0.000000 
0.034999 0.000243 0.130001 0.000000 -1.000000 0.000000 
-0.033337 0.000243 0.130031 0.000000 -1.000000 0.000000 
0.034792 0.000243 0.130152 0.000000 -1.000000 0.000000 
-0.033126 0.000243 0.130181 0.000000 -1.000000 0.000000 
0.034571 0.000243 0.130278 0.000000 -1.000000 0.000000 
-0.032899 0.000243 0.130304 0.000000 -1.000000 0.000000 
0.034337 0.000243 0.130378 0.000000 -1.000000 0.000000 
-0.032660 0.000243 0.130398 0.000000 -1.000000 0.000000 
0.034093 0.000243 0.130452 0.000000 -1.000000 0.000000 
-0.032411 0.000243 0.130463 0.000000 -1.000000 0.000000 
0.033843 0.000243 0.130497 0.000000 -1.000000 0.000000 
-0.032157 0.000243 0.130497 0.000000 -1.000000 0.000000 
0.034093 0.000243 0.130452 0.212409 0.000000 0.977172 
0.034093 0.001243 0.130452 0.248329 0.000000 0.968657 
0.034337 0.000243 0.130378 0.318979 0.000000 0.947752 
0.034337 0.001243 0.130378 0.353710 0.000000 0.935331 
0.034571 0.000243 0.130278 0.421583 0.000000 0.906766 
0.034571 0.001243 0.130278 0.454756 0.000000 0.890591 
0.034792 0.000243 0.130152 0.519059 0.000000 0.854701 
0.034792 0.001243 0.130152 0.550249 0.000000 0.834986 
0.034999 0.000243 0.130001 0.610218 0.000000 0.792199 
0.034999 0.001243 0.130001 0.639027 0.000000 0.769158 
0.035188 0.000243 0.129829 0.707083 0.000000 0.707083 
0.035188 0.001243 0.129829 0.707083 0.000000 0.707083 
0.035357 0.001243 0.129636 0.769127 0.000000 0.639058 
0.035357 0.000243 0.129636 0.792199 0.000000 0.610218 
0.035505 0.001243 0.129425 0.834986 0.000000 0.550249 
0.035505 0.000243 0.129425 0.854701 0.000000 0.519089 
0.013240 -0.017012 0.112544 0.999969 -0.000366 0.000885 
0.012814 -0.014040 0.113843 0.965911 0.237465 0.102939 
0.012803 -0.018640 0.124774 0.965911 0.237465 0.102939 
0.013229 -0.021612 0.123475 0.999969 -0.000366 0.000885 
0.011566 -0.011270 0.115054 0.866024 0.459120 0.197974 
0.011555 -0.015870 0.125985 0.866024 0.459120 0.197974 
0.009580 -0.008891 0.116094 0.707083 0.649495 0.279519 
0.009569 -0.013491 0.127025 0.707083 0.649495 0.279519 
0.006992 -0.007066 0.116892 0.499985 0.795618 0.342021 
0.006981 -0.011666 0.127823 0.499985 0.795618 0.342021 
0.003979 -0.005919 0.117393 0.258797 0.887509 0.381207 
0.003967 -0.010519 0.128324 0.258797 0.887509 0.381207 
0.000745 -0.005528 0.117564 0.000000 0.918912 0.394391 
0.000734 -0.010127 0.128495 0.000000 0.918912 0.394391 
-0.011324 -0.014040 0.113843 -0.965911 0.238197 0.101199 
-0.011750 -0.017012 0.112544 -0.999969 0.000366 -0.000885 
-0.011761 -0.021612 0.123475 -0.999969 0.000366 -0.000885 
-0.011336 -0.018640 0.124774 -0.965911 0.238197 0.101199 
-0.010076 -0.011270 0.115054 -0.866024 0.459792 0.196417 
-0.010087 -0.015870 0.125985 -0.866024 0.459792 0.196417 
-0.008090 -0.008891 0.116094 -0.707083 0.650044 0.278237 
-0.008102 -0.013491 0.127025 -0.707083 0.650044 0.278237 
-0.005503 -0.007066 0.116892 -0.499985 0.795984 0.341105 
-0.005514 -0.011666 0.127823 -0.499985 0.795984 0.341105 
-0.002489 -0.005919 0.117393 -0.258797 0.887692 0.380718 
-0.002500 -0.010519 0.128324 -0.258797 0.887692 0.380718 
0.012814 -0.019985 0.111244 0.965911 -0.238197 -0.101199 
0.012803 -0.024584 0.122175 0.965911 -0.238197 -0.101199 
0.011566 -0.022755 0.110034 0.866024 -0.459792 -0.196417 
0.011555 -0.027354 0.120964 0.866024 -0.459792 -0.196417 
0.009580 -0.025133 0.108994 0.707083 -0.650044 -0.278237 
0.009569 -0.029733 0.119925 0.707083 -0.650044 -0.278237 
0.006992 -0.026958 0.108196 0.499985 -0.795984 -0.341105 
0.006981 -0.031558 0.119127 0.499985 -0.795984 -0.341105 
0.003979 -0.028106 0.107694 0.258797 -0.887692 -0.380718 
0.003967 -0.032705 0.118625 0.258797 -0.887692 -0.380718 
0.000745 -0.028497 0.107523 0.000000 -0.918912 -0.394391 
0.000734 -0.033097 0.118454 0.000000 -0.918912 -0.394391 
-0.011324 -0.019985 0.111244 -0.965911 -0.237465 -0.102939 
-0.011336 -0.024584 0.122175 -0.965911 -0.237465 -0.102939 
-0.010076 -0.022755 0.110034 -0.866024 -0.459120 -0.197974 
-0.010087 -0.027354 0.120964 -0.866024 -0.459120 -0.197974 
-0.008090 -0.025133 0.108994 -0.707083 -0.649495 -0.279519 
-0.008102 -0.029733 0.119925 -0.707083 -0.649495 -0.279519 
-0.002489 -0.028106 0.107694 -0.258797 -0.887509 -0.381207 
-0.002500 -0.032705 0.118625 -0.258797 -0.887509 -0.381207 
-0.005503 -0.026958 0.108196 -0.499985 -0.795618 -0.342021 
-0.005514 -0.031558 0.119127 -0.499985 -0.795618 -0.342021 
0.003967 -0.010519 0.128324 0.007813 -0.366802 0.930235 
-0.000019 -0.022153 0.123679 -0.000946 -0.394391 0.918912 
0.006981 -0.011666 0.127823 0.014985 -0.369823 0.928953 
-0.011336 -0.024584 0.122175 -0.032868 -0.401776 0.915128 
-0.011761 -0.021612 0.123475 -0.033784 -0.393689 0.918607 
-0.005514 -0.011666 0.127823 -0.015931 -0.368389 0.929502 
-0.008102 -0.013491 0.127025 -0.022919 -0.372662 0.927671 
0.011555 -0.015870 0.125985 0.025727 -0.380078 0.924589 
0.012803 -0.018640 0.124774 0.028748 -0.386639 0.921751 
0.006981 -0.031558 0.119127 0.015809 -0.418989 0.907834 
0.009569 -0.029733 0.119925 0.022004 -0.414014 0.909970 
-0.002500 -0.032705 0.118625 -0.008667 -0.423322 0.905911 
-0.005514 -0.031558 0.119127 -0.016877 -0.420545 0.907102 
-0.008102 -0.029733 0.119925 -0.024049 -0.415784 0.909116 
-0.010087 -0.027354 0.120964 -0.029542 -0.409345 0.911863 
0.011555 -0.027354 0.120964 0.026551 -0.407849 0.912656 
0.009569 -0.013491 0.127025 0.021058 -0.374340 0.927030 
0.012803 -0.024584 0.122175 0.029237 -0.400952 0.915616 
-0.011336 -0.018640 0.124774 -0.032289 -0.385754 0.922025 
-0.002500 -0.010519 0.128324 -0.008118 -0.365978 0.930570 
0.000734 -0.010127 0.128495 -0.000031 -0.365459 0.930815 
-0.010087 -0.015870 0.125985 -0.028535 -0.378582 0.925108 
0.013229 -0.021612 0.123475 0.029969 -0.393750 0.918699 
0.000734 -0.033097 0.118454 -0.000031 -0.423902 0.905667 
0.003967 -0.032705 0.118625 0.008301 -0.422407 0.906339 
3 0 1 2 
3 1 0 3 
3 4 5 6 
3 5 4 7 
3 8 9 10 
3 9 8 11 
3 12 13 14 
3 13 12 15 
3 16 14 17 
3 14 16 12 
3 18 17 19 
3 17 18 16 
3 20 21 22 
3 21 20 23 
3 24 22 25 
3 22 24 20 
3 26 25 27 
3 25 26 24 
3 28 27 29 
3 27 28 26 
3 30 29 31 
3 29 30 28 
3 32 31 33 
3 31 32 30 
3 34 32 33 
3 32 34 35 
3 36 35 34 
3 35 36 37 
3 38 37 36 
3 37 38 39 
3 40 39 38 
3 39 40 41 
3 42 41 40 
3 41 42 43 
3 44 43 42 
3 43 44 45 
3 46 19 47 
3 19 46 18 
3 48 49 50 
3 49 48 51 
3 51 48 52 
3 51 52 53 
3 54 55 56 
3 55 54 57 
3 58 59 60 
3 59 58 61 
3 61 58 62 
3 62 58 63 
3 58 64 63 
3 60 59 65 
3 60 65 66 
3 60 66 67 
3 63 64 68 
3 68 64 69 
3 69 64 70 
3 70 64 71 
3 71 64 72 
3 72 64 73 
3 60 74 75 
3 74 60 76 
3 76 60 77 
3 77 60 78 
3 78 60 79 
3 79 60 80 
3 80 60 67 
3 75 74 81 
3 75 81 82 
3 75 82 83 
3 75 83 84 
3 75 84 85 
3 75 85 73 
3 73 64 75 
3 86 87 88 
3 89 90 91 
3 92 93 94 
3 95 96 97 
3 98 99 100 
3 101 102 103 
3 104 105 106 
3 105 104 107 
3 107 104 108 
3 107 108 109 
3 109 108 110 
3 110 108 111 
3 110 111 112 
3 112 111 113 
3 112 113 114 
3 114 113 115 
3 114 115 116 
3 116 115 117 
3 116 117 118 
3 118 117 119 
3 118 119 120 
3 120 119 121 
3 120 121 122 
3 122 121 123 
3 122 123 124 
3 124 123 125 
3 124 125 126 
3 126 125 127 
3 126 127 128 
3 128 127 129 
3 128 129 130 
3 130 129 131 
3 132 45 44 
3 45 132 133 
3 23 134 21 
3 134 23 135 
3 136 137 138 
3 137 136 139 
3 139 136 140 
3 139 140 141 
3 141 140 142 
3 143 144 145 
3 144 143 146 
3 146 143 147 
3 147 143 148 
3 149 150 151 
3 150 149 152 
3 153 154 155 
3 153 155 156 
3 153 156 157 
3 157 156 147 
3 157 147 148 
3 158 159 160 
3 159 158 161 
3 161 158 162 
3 162 158 163 
3 164 165 166 
3 167 168 169 
3 168 167 170 
3 170 167 171 
3 170 171 172 
3 172 171 173 
3 172 173 174 
3 174 173 175 
3 174 175 176 
3 176 175 177 
3 176 177 178 
3 178 177 179 
3 178 179 180 
3 180 179 181 
3 180 181 182 
3 182 181 183 
3 182 183 184 
3 184 183 185 
3 184 185 186 
3 186 185 187 
3 186 187 188 
3 188 187 189 
3 188 189 190 
3 190 189 191 
3 190 191 192 
3 192 191 193 
3 192 193 194 
3 195 133 132 
3 133 195 196 
3 197 196 195 
3 196 197 198 
3 199 198 197 
3 198 199 200 
3 201 200 199 
3 200 201 202 
3 203 202 201 
3 202 203 204 
3 205 204 203 
3 204 205 206 
3 207 205 208 
3 205 207 206 
3 209 208 210 
3 208 209 207 
3 15 210 13 
3 210 15 209 
4 211 212 213 214 
4 212 215 216 213 
4 215 217 218 216 
4 217 219 220 218 
4 219 221 222 220 
4 221 223 224 222 
4 225 226 227 228 
4 229 225 228 230 
4 231 229 230 232 
4 233 231 232 234 
4 235 233 234 236 
4 223 235 236 224 
4 237 211 214 238 
4 239 237 238 240 
4 241 239 240 242 
4 243 241 242 244 
4 245 243 244 246 
4 247 245 246 248 
4 226 249 250 227 
4 249 251 252 250 
4 251 253 254 252 
4 255 247 248 256 
4 257 255 256 258 
4 253 257 258 254 
3 259 260 261 
3 262 260 263 
3 260 264 265 
3 266 260 267 
3 260 268 269 
3 270 260 271 
3 272 260 273 
3 260 269 274 
3 261 260 275 
3 260 274 276 
3 260 277 263 
3 271 260 272 
3 260 278 264 
3 260 279 278 
3 275 260 266 
3 260 265 280 
3 279 260 259 
3 260 280 277 
3 260 276 281 
3 260 282 283 
3 260 283 268 
3 267 260 281 
3 273 260 262 
3 282 260 270 
