ply
format ascii 1.0
comment Created by Blender3D 248 - www.blender.org, source file: 
element vertex 486
property float x
property float y
property float z
property float nx
property float ny
property float nz
property float s
property float t
element face 384
property list uchar uint vertex_indices
end_header
0.009252 0.016001 -0.060002 0.000031 -0.000061 -1.000000 0.877458 0.540124 
0.000003 0.016002 -0.060003 0.000031 -0.000061 -1.000000 0.877464 0.509306 
0.000004 0.024002 -0.060003 0.000031 -0.000061 -1.000000 0.857088 0.509319 
0.009253 0.024002 -0.060003 0.000031 -0.000061 -1.000000 0.857082 0.540140 
0.000005 0.032003 -0.060004 0.000031 -0.000061 -1.000000 0.836712 0.509331 
0.009254 0.032002 -0.060003 0.000031 -0.000061 -1.000000 0.836706 0.540157 
0.018503 0.032002 -0.060003 0.000031 -0.000061 -1.000000 0.836700 0.570982 
0.018502 0.024001 -0.060002 0.000031 -0.000061 -1.000000 0.857076 0.570962 
0.018502 0.016001 -0.060002 0.000031 -0.000061 -1.000000 0.877452 0.570942 
0.027753 0.032001 -0.060002 0.000031 -0.000092 -1.000000 0.836694 0.601807 
0.027752 0.024001 -0.060002 0.000031 -0.000092 -1.000000 0.857070 0.601784 
0.037002 0.032001 -0.060002 0.000031 -0.000092 -1.000000 0.836688 0.632632 
0.037001 0.024001 -0.060001 0.000031 -0.000092 -1.000000 0.857064 0.632605 
0.037000 0.016000 -0.060001 0.000031 -0.000092 -1.000000 0.877440 0.632578 
0.027751 0.016001 -0.060001 0.000031 -0.000092 -1.000000 0.877446 0.601760 
0.037000 0.008000 -0.060000 0.000031 -0.000092 -1.000000 0.897816 0.632551 
0.027750 0.008000 -0.060000 0.000031 -0.000092 -1.000000 0.897822 0.601737 
0.036999 -0.000000 -0.059999 0.000031 -0.000092 -1.000000 0.918193 0.632524 
0.027750 -0.000000 -0.060000 0.000031 -0.000092 -1.000000 0.918198 0.601714 
0.018500 0.000000 -0.060000 0.000031 -0.000061 -1.000000 0.918204 0.570903 
0.018501 0.008001 -0.060001 0.000031 -0.000061 -1.000000 0.897828 0.570922 
0.009251 0.000001 -0.060001 0.000031 -0.000061 -1.000000 0.918209 0.540092 
0.009252 0.008001 -0.060001 0.000031 -0.000061 -1.000000 0.897833 0.540108 
0.000002 0.000001 -0.060001 0.000031 -0.000061 -1.000000 0.918215 0.509281 
0.000002 0.008001 -0.060002 0.000031 -0.000061 -1.000000 0.897839 0.509293 
0.018500 -0.008000 -0.059999 0.000061 -0.000061 -1.000000 0.938579 0.570883 
0.027749 -0.008000 -0.059999 0.000061 -0.000092 -1.000000 0.938574 0.601690 
0.036998 -0.008001 -0.059998 0.000061 -0.000092 -1.000000 0.938569 0.632498 
0.036998 -0.016001 -0.059997 0.000061 -0.000092 -1.000000 0.958945 0.632471 
0.027748 -0.016001 -0.059998 0.000061 -0.000092 -1.000000 0.958950 0.601667 
0.018499 -0.016000 -0.059999 0.000061 -0.000061 -1.000000 0.958955 0.570863 
0.036997 -0.024002 -0.059997 0.000061 -0.000092 -1.000000 0.979321 0.632444 
0.027747 -0.024001 -0.059997 0.000061 -0.000061 -1.000000 0.979326 0.601644 
0.036996 -0.032002 -0.059996 0.000061 -0.000092 -1.000000 0.999697 0.632417 
0.027747 -0.032002 -0.059997 0.000061 -0.000061 -1.000000 0.999702 0.601620 
0.018497 -0.032001 -0.059997 0.000061 -0.000061 -1.000000 0.999707 0.570823 
0.018498 -0.024001 -0.059998 0.000061 -0.000061 -1.000000 0.979331 0.570843 
0.009248 -0.032001 -0.059998 0.000061 -0.000061 -1.000000 0.999712 0.540027 
0.009249 -0.024000 -0.059999 0.000061 -0.000061 -1.000000 0.979336 0.540043 
-0.000001 -0.032000 -0.059999 0.000061 -0.000061 -1.000000 0.999717 0.509230 
-0.000001 -0.024000 -0.059999 0.000061 -0.000061 -1.000000 0.979341 0.509243 
0.000000 -0.016000 -0.060000 0.000061 -0.000061 -1.000000 0.958966 0.509255 
0.009249 -0.016000 -0.059999 0.000061 -0.000061 -1.000000 0.958961 0.540059 
0.000001 -0.007999 -0.060001 0.000061 -0.000061 -1.000000 0.938590 0.509268 
0.009250 -0.008000 -0.060000 0.000061 -0.000061 -1.000000 0.938585 0.540075 
-0.009249 -0.015999 -0.060000 0.000061 -0.000061 -1.000000 0.958971 0.478452 
-0.009250 -0.024000 -0.060000 0.000061 -0.000061 -1.000000 0.979347 0.478442 
-0.009251 -0.032000 -0.059999 0.000061 -0.000061 -1.000000 0.999722 0.478433 
-0.018500 -0.032000 -0.060000 0.000061 -0.000061 -1.000000 0.999727 0.447636 
-0.018499 -0.023999 -0.060000 0.000061 -0.000061 -1.000000 0.979352 0.447642 
-0.018499 -0.015999 -0.060001 0.000061 -0.000061 -1.000000 0.958976 0.447648 
-0.027750 -0.031999 -0.060000 0.000061 -0.000061 -1.000000 0.999732 0.416840 
-0.027749 -0.023999 -0.060001 0.000061 -0.000061 -1.000000 0.979357 0.416842 
-0.036999 -0.031999 -0.060001 0.000061 -0.000061 -1.000000 0.999737 0.386043 
-0.036998 -0.023999 -0.060002 0.000061 -0.000061 -1.000000 0.979362 0.386042 
-0.036997 -0.015998 -0.060002 0.000061 -0.000061 -1.000000 0.958987 0.386040 
-0.027748 -0.015999 -0.060002 0.000061 -0.000061 -1.000000 0.958982 0.416844 
-0.036997 -0.007998 -0.060003 0.000061 -0.000061 -1.000000 0.938612 0.386038 
-0.027747 -0.007998 -0.060002 0.000061 -0.000061 -1.000000 0.938607 0.416846 
-0.036996 0.000002 -0.060004 0.000031 -0.000061 -1.000000 0.918237 0.386037 
-0.027747 0.000002 -0.060003 0.000031 -0.000061 -1.000000 0.918231 0.416848 
-0.018497 0.000002 -0.060002 0.000031 -0.000061 -1.000000 0.918226 0.447659 
-0.018498 -0.007999 -0.060002 0.000061 -0.000061 -1.000000 0.938601 0.447653 
-0.009248 0.000001 -0.060002 0.000031 -0.000061 -1.000000 0.918220 0.478470 
-0.009249 -0.007999 -0.060001 0.000061 -0.000061 -1.000000 0.938596 0.478461 
-0.018496 0.008002 -0.060003 0.000031 -0.000061 -1.000000 0.897851 0.447664 
-0.027746 0.008002 -0.060004 0.000031 -0.000061 -1.000000 0.897856 0.416850 
-0.036995 0.008003 -0.060004 0.000031 -0.000061 -1.000000 0.897862 0.386036 
-0.036995 0.016003 -0.060005 0.000031 -0.000061 -1.000000 0.877487 0.386034 
-0.027745 0.016003 -0.060004 0.000031 -0.000061 -1.000000 0.877481 0.416852 
-0.018496 0.016002 -0.060004 0.000031 -0.000061 -1.000000 0.877475 0.447670 
-0.036994 0.024004 -0.060005 0.000031 -0.000061 -1.000000 0.857112 0.386032 
-0.027744 0.024003 -0.060005 0.000031 -0.000061 -1.000000 0.857106 0.416854 
-0.036993 0.032004 -0.060006 0.000031 -0.000061 -1.000000 0.836737 0.386031 
-0.027744 0.032004 -0.060006 0.000031 -0.000061 -1.000000 0.836731 0.416856 
-0.018494 0.032003 -0.060005 0.000031 -0.000061 -1.000000 0.836725 0.447681 
-0.018495 0.024003 -0.060004 0.000031 -0.000061 -1.000000 0.857100 0.447676 
-0.009245 0.032003 -0.060005 0.000031 -0.000061 -1.000000 0.836719 0.478506 
-0.009246 0.024002 -0.060004 0.000031 -0.000061 -1.000000 0.857094 0.478497 
-0.009246 0.016002 -0.060003 0.000031 -0.000061 -1.000000 0.877469 0.478488 
-0.009247 0.008002 -0.060002 0.000031 -0.000061 -1.000000 0.897845 0.478479 
0.018498 0.007999 0.060002 -0.000061 0.000061 1.000000 0.459257 0.571651 
0.018497 -0.000002 0.060002 -0.000031 0.000061 1.000000 0.438131 0.571877 
0.027747 -0.000002 0.060003 -0.000031 0.000061 1.000000 0.438125 0.602847 
0.027747 0.007998 0.060002 -0.000061 0.000061 1.000000 0.459249 0.602580 
0.036996 -0.000002 0.060004 -0.000031 0.000061 1.000000 0.438119 0.633817 
0.036997 0.007998 0.060003 -0.000061 0.000061 1.000000 0.459241 0.633510 
0.036997 0.015998 0.060002 -0.000061 0.000061 1.000000 0.480364 0.633202 
0.027748 0.015999 0.060002 -0.000061 0.000061 1.000000 0.480374 0.602314 
0.018499 0.015999 0.060001 -0.000061 0.000061 1.000000 0.480384 0.571425 
0.036998 0.023999 0.060002 -0.000061 0.000061 1.000000 0.501486 0.632894 
0.027749 0.023999 0.060001 -0.000061 0.000061 1.000000 0.501498 0.602047 
0.036999 0.031999 0.060001 -0.000061 0.000061 1.000000 0.522609 0.632586 
0.027750 0.031999 0.060000 -0.000061 0.000061 1.000000 0.522623 0.601780 
0.018500 0.032000 0.060000 -0.000061 0.000061 1.000000 0.522637 0.570974 
0.018499 0.023999 0.060000 -0.000061 0.000061 1.000000 0.501510 0.571200 
0.009251 0.032000 0.059999 -0.000061 0.000061 1.000000 0.522650 0.540168 
0.009250 0.024000 0.060000 -0.000061 0.000061 1.000000 0.501522 0.540352 
0.000001 0.032000 0.059999 -0.000061 0.000061 1.000000 0.522664 0.509362 
0.000001 0.024000 0.059999 -0.000061 0.000061 1.000000 0.501534 0.509505 
-0.000000 0.016000 0.060000 -0.000061 0.000061 1.000000 0.480404 0.509649 
0.009249 0.015999 0.060000 -0.000061 0.000061 1.000000 0.480394 0.540537 
-0.000001 0.007999 0.060001 -0.000061 0.000061 1.000000 0.459273 0.509793 
0.009249 0.007999 0.060001 -0.000061 0.000061 1.000000 0.459265 0.540722 
-0.000002 -0.000001 0.060001 -0.000031 0.000061 1.000000 0.438143 0.509936 
0.009248 -0.000001 0.060002 -0.000031 0.000061 1.000000 0.438137 0.540907 
-0.009249 0.016000 0.059999 -0.000061 0.000061 1.000000 0.480413 0.478761 
-0.009249 0.024000 0.059999 -0.000061 0.000061 1.000000 0.501546 0.478658 
-0.009248 0.032001 0.059998 -0.000061 0.000061 1.000000 0.522678 0.478555 
-0.018497 0.032001 0.059997 -0.000061 0.000061 1.000000 0.522691 0.447749 
-0.018498 0.024001 0.059998 -0.000061 0.000061 1.000000 0.501557 0.447811 
-0.018499 0.016000 0.059999 -0.000061 0.000061 1.000000 0.480423 0.447873 
-0.027747 0.032002 0.059997 -0.000061 0.000092 1.000000 0.522705 0.416943 
-0.027747 0.024001 0.059997 -0.000061 0.000092 1.000000 0.501569 0.416964 
-0.036996 0.032002 0.059996 -0.000061 0.000092 1.000000 0.522719 0.386137 
-0.036997 0.024002 0.059997 -0.000061 0.000092 1.000000 0.501581 0.386117 
-0.036998 0.016001 0.059997 -0.000061 0.000092 1.000000 0.480443 0.386096 
-0.027748 0.016001 0.059998 -0.000061 0.000092 1.000000 0.480433 0.416984 
-0.036998 0.008001 0.059998 -0.000061 0.000092 1.000000 0.459305 0.386076 
-0.027749 0.008000 0.059999 -0.000061 0.000092 1.000000 0.459297 0.417005 
-0.036999 0.000000 0.059999 -0.000031 0.000092 1.000000 0.438168 0.386055 
-0.027750 0.000000 0.060000 -0.000031 0.000092 1.000000 0.438161 0.417026 
-0.018500 -0.000000 0.060000 -0.000031 0.000061 1.000000 0.438155 0.447996 
-0.018500 0.008000 0.059999 -0.000061 0.000061 1.000000 0.459289 0.447934 
-0.009251 -0.000001 0.060001 -0.000031 0.000061 1.000000 0.438149 0.478966 
-0.009250 0.008000 0.060000 -0.000061 0.000061 1.000000 0.459281 0.478864 
-0.018501 -0.008001 0.060001 -0.000031 0.000061 1.000000 0.417021 0.448058 
-0.027750 -0.008000 0.060000 -0.000031 0.000092 1.000000 0.417025 0.417046 
-0.037000 -0.008000 0.060000 -0.000031 0.000092 1.000000 0.417030 0.386035 
-0.037000 -0.016000 0.060001 -0.000031 0.000092 1.000000 0.395892 0.386015 
-0.027751 -0.016001 0.060001 -0.000031 0.000092 1.000000 0.395889 0.417067 
-0.018502 -0.016001 0.060002 -0.000031 0.000061 1.000000 0.395887 0.448119 
-0.037001 -0.024001 0.060001 -0.000031 0.000092 1.000000 0.374754 0.385994 
-0.027752 -0.024001 0.060002 -0.000031 0.000092 1.000000 0.374753 0.417088 
-0.037002 -0.032001 0.060002 -0.000031 0.000092 1.000000 0.353616 0.385974 
-0.027753 -0.032001 0.060002 -0.000031 0.000092 1.000000 0.353617 0.417108 
-0.018503 -0.032002 0.060003 -0.000031 0.000061 1.000000 0.353619 0.448243 
-0.018502 -0.024001 0.060002 -0.000031 0.000061 1.000000 0.374753 0.448181 
-0.009254 -0.032002 0.060003 -0.000031 0.000061 1.000000 0.353621 0.479377 
-0.009253 -0.024002 0.060003 -0.000031 0.000061 1.000000 0.374753 0.479274 
-0.000005 -0.032003 0.060004 -0.000031 0.000061 1.000000 0.353622 0.510511 
-0.000004 -0.024002 0.060003 -0.000031 0.000061 1.000000 0.374752 0.510368 
-0.000003 -0.016002 0.060003 -0.000031 0.000061 1.000000 0.395883 0.510224 
-0.009252 -0.016001 0.060002 -0.000031 0.000061 1.000000 0.395885 0.479172 
-0.000002 -0.008001 0.060002 -0.000031 0.000061 1.000000 0.417013 0.510080 
-0.009252 -0.008001 0.060001 -0.000031 0.000061 1.000000 0.417017 0.479069 
0.009246 -0.016002 0.060003 -0.000031 0.000061 1.000000 0.395880 0.541276 
0.009246 -0.024003 0.060004 -0.000031 0.000061 1.000000 0.374752 0.541461 
0.009245 -0.032003 0.060005 -0.000031 0.000061 1.000000 0.353624 0.541646 
0.018494 -0.032003 0.060005 -0.000031 0.000061 1.000000 0.353625 0.572780 
0.018495 -0.024003 0.060004 -0.000031 0.000061 1.000000 0.374751 0.572554 
0.018496 -0.016002 0.060004 -0.000031 0.000061 1.000000 0.395878 0.572329 
0.027744 -0.032004 0.060006 -0.000031 0.000061 1.000000 0.353626 0.603915 
0.027744 -0.024003 0.060005 -0.000031 0.000061 1.000000 0.374751 0.603648 
0.036993 -0.032004 0.060006 -0.000031 0.000061 1.000000 0.353628 0.635049 
0.036994 -0.024004 0.060005 -0.000031 0.000061 1.000000 0.374751 0.634741 
0.036995 -0.016003 0.060005 -0.000031 0.000061 1.000000 0.395873 0.634433 
0.027745 -0.016003 0.060004 -0.000031 0.000061 1.000000 0.395876 0.603381 
0.036995 -0.008003 0.060004 -0.000031 0.000061 1.000000 0.416996 0.634125 
0.027746 -0.008002 0.060004 -0.000031 0.000061 1.000000 0.417000 0.603114 
0.018497 -0.008002 0.060003 -0.000031 0.000061 1.000000 0.417004 0.572103 
0.009247 -0.008002 0.060002 -0.000031 0.000061 1.000000 0.417009 0.541092 
0.036999 0.007999 -0.029999 1.000000 -0.000092 0.000000 0.116652 0.766508 
0.036998 -0.000001 -0.029998 1.000000 -0.000092 0.000000 0.116661 0.740248 
0.036999 -0.000001 -0.044999 1.000000 -0.000092 0.000000 0.077154 0.740177 
0.036999 0.008000 -0.044999 1.000000 -0.000092 0.000000 0.077140 0.766413 
0.036999 -0.000000 -0.059999 1.000000 -0.000092 0.000000 0.037647 0.740106 
0.037000 0.008000 -0.060000 1.000000 -0.000092 0.000000 0.037628 0.766318 
0.037000 0.016000 -0.060001 1.000000 -0.000092 0.000000 0.037610 0.792530 
0.037000 0.016000 -0.045000 1.000000 -0.000092 0.000000 0.077127 0.792649 
0.037000 0.016000 -0.030000 1.000000 -0.000092 0.000000 0.116643 0.792769 
0.037001 0.024001 -0.060001 1.000000 -0.000092 0.000000 0.037592 0.818742 
0.037001 0.024000 -0.045001 1.000000 -0.000092 0.000000 0.077113 0.818886 
0.037002 0.032001 -0.060002 1.000000 -0.000092 0.000000 0.037574 0.844954 
0.037002 0.032001 -0.045002 1.000000 -0.000092 0.000000 0.077100 0.845122 
0.037001 0.032000 -0.030001 1.000000 -0.000092 0.000000 0.116626 0.845290 
0.037000 0.024000 -0.030001 1.000000 -0.000092 0.000000 0.116635 0.819030 
0.037001 0.032000 -0.015001 1.000000 -0.000092 0.000000 0.156152 0.845458 
0.037000 0.024000 -0.015000 1.000000 -0.000092 0.000000 0.156156 0.819173 
0.037000 0.032000 -0.000000 1.000000 -0.000092 0.000000 0.195678 0.845627 
0.037000 0.024000 0.000000 1.000000 -0.000092 0.000000 0.195677 0.819317 
0.036999 0.015999 0.000001 1.000000 -0.000092 0.000000 0.195677 0.793008 
0.036999 0.015999 -0.014999 1.000000 -0.000092 0.000000 0.156160 0.792889 
0.036998 0.007999 0.000002 1.000000 -0.000092 0.000000 0.195676 0.766699 
0.036999 0.007999 -0.014999 1.000000 -0.000092 0.000000 0.156164 0.766604 
0.036997 -0.000002 0.000002 1.000000 -0.000092 0.000000 0.195676 0.740390 
0.036998 -0.000001 -0.014998 1.000000 -0.000092 0.000000 0.156168 0.740319 
0.036999 0.015999 0.015001 1.000000 -0.000092 0.000000 0.235193 0.793128 
0.036999 0.023999 0.015001 1.000000 -0.000092 0.000000 0.235198 0.819461 
0.037000 0.032000 0.015000 1.000000 -0.000092 0.000000 0.235203 0.845795 
0.037000 0.031999 0.030000 1.000000 -0.000092 0.000000 0.274729 0.845963 
0.036999 0.023999 0.030001 1.000000 -0.000092 0.000000 0.274719 0.819605 
0.036998 0.015999 0.030002 1.000000 -0.000092 0.000000 0.274710 0.793247 
0.036999 0.031999 0.045001 1.000000 -0.000092 0.000000 0.314255 0.846131 
0.036999 0.023999 0.045001 1.000000 -0.000092 0.000000 0.314241 0.819749 
0.036999 0.031999 0.060001 1.000000 -0.000092 0.000000 0.353781 0.846299 
0.036998 0.023999 0.060002 1.000000 -0.000092 0.000000 0.353762 0.819893 
0.036997 0.015998 0.060002 1.000000 -0.000092 0.000000 0.353743 0.793486 
0.036998 0.015998 0.045002 1.000000 -0.000092 0.000000 0.314226 0.793367 
0.036997 0.007998 0.060003 1.000000 -0.000092 0.000000 0.353724 0.767080 
0.036997 0.007998 0.045003 1.000000 -0.000092 0.000000 0.314212 0.766985 
0.036996 -0.000002 0.060004 1.000000 -0.000092 0.000000 0.353705 0.740674 
0.036996 -0.000002 0.045003 1.000000 -0.000092 0.000000 0.314197 0.740603 
0.036997 -0.000002 0.030003 1.000000 -0.000092 0.000000 0.274690 0.740532 
0.036997 0.007998 0.030002 1.000000 -0.000092 0.000000 0.274700 0.766890 
0.036997 -0.000002 0.015003 1.000000 -0.000092 0.000000 0.235183 0.740461 
0.036998 0.007999 0.015002 1.000000 -0.000092 0.000000 0.235188 0.766794 
0.036996 -0.008002 0.030004 1.000000 -0.000092 0.000000 0.274680 0.714174 
0.036996 -0.008003 0.045004 1.000000 -0.000092 0.000000 0.314183 0.714221 
0.036995 -0.008003 0.060004 1.000000 -0.000092 0.000000 0.353685 0.714268 
0.036995 -0.016003 0.060005 1.000000 -0.000092 0.000000 0.353666 0.687862 
0.036995 -0.016003 0.045004 1.000000 -0.000092 0.000000 0.314168 0.687839 
0.036995 -0.016003 0.030004 1.000000 -0.000092 0.000000 0.274670 0.687816 
0.036994 -0.024004 0.060005 1.000000 -0.000092 0.000000 0.353647 0.661455 
0.036994 -0.024003 0.045005 1.000000 -0.000092 0.000000 0.314154 0.661457 
0.036993 -0.032004 0.060006 1.000000 -0.000092 0.000000 0.353628 0.635049 
0.036993 -0.032004 0.045006 1.000000 -0.000092 0.000000 0.314139 0.635075 
0.036994 -0.032003 0.030005 1.000000 -0.000092 0.000000 0.274651 0.635101 
0.036995 -0.024003 0.030005 1.000000 -0.000092 0.000000 0.274661 0.661459 
0.036994 -0.032003 0.015005 1.000000 -0.000092 0.000000 0.235162 0.635127 
0.036995 -0.024003 0.015005 1.000000 -0.000092 0.000000 0.235167 0.661460 
0.036995 -0.032003 0.000005 1.000000 -0.000092 0.000000 0.195674 0.635153 
0.036995 -0.024003 0.000004 1.000000 -0.000092 0.000000 0.195674 0.661462 
0.036996 -0.016002 0.000004 1.000000 -0.000092 0.000000 0.195675 0.687771 
0.036996 -0.016003 0.015004 1.000000 -0.000092 0.000000 0.235172 0.687794 
0.036997 -0.008002 0.000003 1.000000 -0.000092 0.000000 0.195675 0.714081 
0.036996 -0.008002 0.015003 1.000000 -0.000092 0.000000 0.235178 0.714127 
0.036996 -0.016002 -0.014997 1.000000 -0.000092 0.000000 0.156177 0.687749 
0.036996 -0.024002 -0.014996 1.000000 -0.000092 0.000000 0.156181 0.661464 
0.036995 -0.032003 -0.014995 1.000000 -0.000092 0.000000 0.156185 0.635179 
0.036995 -0.032003 -0.029996 1.000000 -0.000092 0.000000 0.116696 0.635205 
0.036996 -0.024002 -0.029996 1.000000 -0.000092 0.000000 0.116687 0.661466 
0.036997 -0.016002 -0.029997 1.000000 -0.000092 0.000000 0.116679 0.687726 
0.036996 -0.032002 -0.044996 1.000000 -0.000092 0.000000 0.077208 0.635231 
0.036996 -0.024002 -0.044996 1.000000 -0.000092 0.000000 0.077194 0.661467 
0.036996 -0.032002 -0.059996 1.000000 -0.000092 0.000000 0.037719 0.635257 
0.036997 -0.024002 -0.059997 1.000000 -0.000092 0.000000 0.037701 0.661469 
0.036998 -0.016001 -0.059997 1.000000 -0.000092 0.000000 0.037683 0.687681 
0.036997 -0.016002 -0.044997 1.000000 -0.000092 0.000000 0.077181 0.687704 
0.036998 -0.008001 -0.059998 1.000000 -0.000092 0.000000 0.037665 0.713893 
0.036998 -0.008001 -0.044998 1.000000 -0.000092 0.000000 0.077167 0.713940 
0.036998 -0.008001 -0.029998 1.000000 -0.000092 0.000000 0.116670 0.713987 
0.036997 -0.008002 -0.014997 1.000000 -0.000092 0.000000 0.156172 0.714034 
0.009247 -0.032001 -0.029997 -0.000031 -1.000000 0.000000 0.116676 0.541724 
-0.000002 -0.032001 -0.029998 -0.000031 -1.000000 0.000000 0.116669 0.510563 
-0.000002 -0.032001 -0.044998 -0.000031 -1.000000 0.000000 0.077177 0.510572 
0.009248 -0.032001 -0.044998 -0.000031 -1.000000 0.000000 0.077185 0.541737 
-0.000001 -0.032000 -0.059999 -0.000031 -1.000000 0.000000 0.037685 0.510581 
0.009248 -0.032001 -0.059998 -0.000031 -1.000000 0.000000 0.037694 0.541750 
0.018497 -0.032001 -0.059997 -0.000031 -1.000000 0.000000 0.037702 0.572919 
0.018497 -0.032001 -0.044997 -0.000031 -1.000000 0.000000 0.077192 0.572901 
0.018497 -0.032002 -0.029997 -0.000031 -1.000000 0.000000 0.116683 0.572884 
0.027747 -0.032002 -0.059997 -0.000031 -1.000000 0.000000 0.037711 0.604088 
0.027746 -0.032002 -0.044996 -0.000031 -1.000000 0.000000 0.077200 0.604066 
0.036996 -0.032002 -0.059996 -0.000031 -1.000000 0.000000 0.037719 0.635257 
0.036996 -0.032002 -0.044996 -0.000031 -1.000000 0.000000 0.077208 0.635231 
0.036995 -0.032003 -0.029996 -0.000031 -1.000000 0.000000 0.116696 0.635205 
0.027746 -0.032002 -0.029996 -0.000031 -1.000000 0.000000 0.116690 0.604045 
0.036995 -0.032003 -0.014995 -0.000031 -1.000000 0.000000 0.156185 0.635179 
0.027746 -0.032002 -0.014996 -0.000031 -1.000000 0.000000 0.156179 0.604023 
0.036995 -0.032003 0.000005 -0.000031 -1.000000 0.000000 0.195674 0.635153 
0.027745 -0.032003 0.000004 -0.000031 -1.000000 0.000000 0.195669 0.604001 
0.018496 -0.032002 0.000004 -0.000031 -1.000000 0.000000 0.195664 0.572850 
0.018496 -0.032002 -0.014996 -0.000031 -1.000000 0.000000 0.156173 0.572867 
0.009246 -0.032002 0.000003 -0.000031 -1.000000 0.000000 0.195659 0.541698 
0.009247 -0.032002 -0.014997 -0.000031 -1.000000 0.000000 0.156167 0.541711 
-0.000003 -0.032002 0.000003 -0.000031 -1.000000 0.000000 0.195654 0.510546 
-0.000003 -0.032001 -0.014998 -0.000031 -1.000000 0.000000 0.156161 0.510555 
0.018495 -0.032003 0.015004 -0.000031 -1.000000 0.000000 0.235154 0.572832 
0.027745 -0.032003 0.015005 -0.000031 -1.000000 0.000000 0.235158 0.603980 
0.036994 -0.032003 0.015005 -0.000031 -1.000000 0.000000 0.235162 0.635127 
0.036994 -0.032003 0.030005 -0.000031 -1.000000 0.000000 0.274651 0.635101 
0.027744 -0.032003 0.030005 -0.000031 -1.000000 0.000000 0.274648 0.603958 
0.018495 -0.032003 0.030004 -0.000031 -1.000000 0.000000 0.274644 0.572815 
0.036993 -0.032004 0.045006 -0.000031 -1.000000 0.000000 0.314139 0.635075 
0.027744 -0.032003 0.045005 -0.000031 -1.000000 0.000000 0.314137 0.603936 
0.036993 -0.032004 0.060006 -0.000031 -1.000000 0.000000 0.353628 0.635049 
0.027744 -0.032004 0.060006 -0.000031 -1.000000 0.000000 0.353626 0.603915 
0.018494 -0.032003 0.060005 -0.000031 -1.000000 0.000000 0.353625 0.572780 
0.018495 -0.032003 0.045005 -0.000031 -1.000000 0.000000 0.314135 0.572798 
0.009245 -0.032003 0.060005 -0.000031 -1.000000 0.000000 0.353624 0.541646 
0.009245 -0.032003 0.045004 -0.000031 -1.000000 0.000000 0.314132 0.541659 
-0.000005 -0.032003 0.060004 -0.000031 -1.000000 0.000000 0.353622 0.510511 
-0.000004 -0.032002 0.045004 -0.000031 -1.000000 0.000000 0.314130 0.510520 
-0.000004 -0.032002 0.030003 -0.000031 -1.000000 0.000000 0.274638 0.510529 
0.009246 -0.032002 0.030004 -0.000031 -1.000000 0.000000 0.274641 0.541672 
-0.000003 -0.032002 0.015003 -0.000031 -1.000000 0.000000 0.235146 0.510537 
0.009246 -0.032002 0.015004 -0.000031 -1.000000 0.000000 0.235150 0.541685 
-0.009253 -0.032002 0.030003 -0.000031 -1.000000 0.000000 0.274635 0.479386 
-0.009254 -0.032002 0.045003 -0.000031 -1.000000 0.000000 0.314128 0.479381 
-0.009254 -0.032002 0.060003 -0.000031 -1.000000 0.000000 0.353621 0.479377 
-0.018503 -0.032002 0.060003 -0.000031 -1.000000 0.000000 0.353619 0.448243 
-0.018503 -0.032001 0.045003 -0.000031 -1.000000 0.000000 0.314125 0.448243 
-0.018502 -0.032001 0.030002 -0.000031 -1.000000 0.000000 0.274631 0.448243 
-0.027753 -0.032001 0.060002 -0.000031 -1.000000 0.000000 0.353617 0.417108 
-0.027752 -0.032001 0.045002 -0.000031 -1.000000 0.000000 0.314123 0.417104 
-0.037002 -0.032001 0.060002 -0.000031 -1.000000 0.000000 0.353616 0.385974 
-0.037002 -0.032001 0.045002 -0.000031 -1.000000 0.000000 0.314120 0.385965 
-0.037001 -0.032000 0.030001 -0.000031 -1.000000 0.000000 0.274625 0.385957 
-0.027752 -0.032001 0.030002 -0.000031 -1.000000 0.000000 0.274628 0.417100 
-0.037001 -0.032000 0.015001 -0.000031 -1.000000 0.000000 0.235129 0.385948 
-0.027752 -0.032001 0.015001 -0.000031 -1.000000 0.000000 0.235133 0.417095 
-0.037000 -0.032000 0.000000 -0.000031 -1.000000 0.000000 0.195634 0.385939 
-0.027751 -0.032000 0.000001 -0.000031 -1.000000 0.000000 0.195639 0.417091 
-0.018502 -0.032001 0.000002 -0.000031 -1.000000 0.000000 0.195644 0.448243 
-0.018502 -0.032001 0.015002 -0.000031 -1.000000 0.000000 0.235137 0.448243 
-0.009252 -0.032001 0.000002 -0.000031 -1.000000 0.000000 0.195649 0.479394 
-0.009253 -0.032001 0.015003 -0.000031 -1.000000 0.000000 0.235142 0.479390 
-0.018501 -0.032001 -0.014999 -0.000031 -1.000000 0.000000 0.156150 0.448242 
-0.027751 -0.032000 -0.014999 -0.000031 -1.000000 0.000000 0.156144 0.417086 
-0.037000 -0.032000 -0.015000 -0.000031 -1.000000 0.000000 0.156138 0.385930 
-0.037000 -0.031999 -0.030000 -0.000031 -1.000000 0.000000 0.116642 0.385921 
-0.027750 -0.032000 -0.030000 -0.000031 -1.000000 0.000000 0.116649 0.417082 
-0.018501 -0.032000 -0.029999 -0.000031 -1.000000 0.000000 0.116656 0.448242 
-0.036999 -0.031999 -0.045001 -0.000031 -1.000000 0.000000 0.077147 0.385913 
-0.027750 -0.032000 -0.045000 -0.000031 -1.000000 0.000000 0.077154 0.417078 
-0.036999 -0.031999 -0.060001 -0.000031 -1.000000 0.000000 0.037651 0.385904 
-0.027750 -0.031999 -0.060000 -0.000031 -1.000000 0.000000 0.037659 0.417073 
-0.018500 -0.032000 -0.060000 -0.000031 -1.000000 0.000000 0.037668 0.448242 
-0.018501 -0.032000 -0.044999 -0.000031 -1.000000 0.000000 0.077162 0.448242 
-0.009251 -0.032000 -0.059999 -0.000031 -1.000000 0.000000 0.037676 0.479411 
-0.009251 -0.032000 -0.044999 -0.000031 -1.000000 0.000000 0.077170 0.479407 
-0.009252 -0.032001 -0.029998 -0.000031 -1.000000 0.000000 0.116663 0.479403 
-0.009252 -0.032001 -0.014998 -0.000031 -1.000000 0.000000 0.156156 0.479399 
-0.036998 -0.007998 -0.030002 -1.000000 0.000092 0.000000 0.116622 0.306820 
-0.036997 0.000002 -0.030003 -1.000000 0.000092 0.000000 0.116616 0.280452 
-0.036996 0.000002 -0.045003 -1.000000 0.000092 0.000000 0.077108 0.280436 
-0.036997 -0.007998 -0.045003 -1.000000 0.000092 0.000000 0.077118 0.306805 
-0.036996 0.000002 -0.060004 -1.000000 0.000092 0.000000 0.037600 0.280419 
-0.036997 -0.007998 -0.060003 -1.000000 0.000092 0.000000 0.037613 0.306791 
-0.036997 -0.015998 -0.060002 -1.000000 0.000092 0.000000 0.037626 0.333162 
-0.036998 -0.015998 -0.045002 -1.000000 0.000092 0.000000 0.077127 0.333174 
-0.036998 -0.015999 -0.030002 -1.000000 0.000092 0.000000 0.116629 0.333187 
-0.036998 -0.023999 -0.060002 -1.000000 0.000092 0.000000 0.037638 0.359533 
-0.036999 -0.023999 -0.045001 -1.000000 0.000092 0.000000 0.077137 0.359544 
-0.036999 -0.031999 -0.060001 -1.000000 0.000092 0.000000 0.037651 0.385904 
-0.036999 -0.031999 -0.045001 -1.000000 0.000092 0.000000 0.077147 0.385913 
-0.037000 -0.031999 -0.030000 -1.000000 0.000092 0.000000 0.116642 0.385921 
-0.036999 -0.023999 -0.030001 -1.000000 0.000092 0.000000 0.116636 0.359554 
-0.037000 -0.032000 -0.015000 -1.000000 0.000092 0.000000 0.156138 0.385930 
-0.036999 -0.023999 -0.015001 -1.000000 0.000092 0.000000 0.156134 0.359565 
-0.037000 -0.032000 0.000000 -1.000000 0.000092 0.000000 0.195634 0.385939 
-0.037000 -0.024000 -0.000000 -1.000000 0.000092 0.000000 0.195633 0.359576 
-0.036999 -0.015999 -0.000001 -1.000000 0.000092 0.000000 0.195632 0.333212 
-0.036999 -0.015999 -0.015001 -1.000000 0.000092 0.000000 0.156131 0.333200 
-0.036998 -0.007999 -0.000002 -1.000000 0.000092 0.000000 0.195632 0.306849 
-0.036998 -0.007999 -0.015002 -1.000000 0.000092 0.000000 0.156127 0.306834 
-0.036998 0.000002 -0.000002 -1.000000 0.000092 0.000000 0.195631 0.280485 
-0.036997 0.000002 -0.015003 -1.000000 0.000092 0.000000 0.156124 0.280469 
-0.036999 -0.015999 0.014999 -1.000000 0.000092 0.000000 0.235134 0.333225 
-0.037000 -0.024000 0.015000 -1.000000 0.000092 0.000000 0.235132 0.359586 
-0.037001 -0.032000 0.015001 -1.000000 0.000092 0.000000 0.235129 0.385948 
-0.037001 -0.032000 0.030001 -1.000000 0.000092 0.000000 0.274625 0.385957 
-0.037000 -0.024000 0.030001 -1.000000 0.000092 0.000000 0.274630 0.359597 
-0.037000 -0.016000 0.030000 -1.000000 0.000092 0.000000 0.274636 0.333237 
-0.037002 -0.032001 0.045002 -1.000000 0.000092 0.000000 0.314120 0.385965 
-0.037001 -0.024000 0.045001 -1.000000 0.000092 0.000000 0.314129 0.359608 
-0.037002 -0.032001 0.060002 -1.000000 0.000092 0.000000 0.353616 0.385974 
-0.037001 -0.024001 0.060001 -1.000000 0.000092 0.000000 0.353628 0.359618 
-0.037000 -0.016000 0.060001 -1.000000 0.000092 0.000000 0.353639 0.333262 
-0.037000 -0.016000 0.045000 -1.000000 0.000092 0.000000 0.314137 0.333250 
-0.037000 -0.008000 0.060000 -1.000000 0.000092 0.000000 0.353651 0.306907 
-0.036999 -0.008000 0.044999 -1.000000 0.000092 0.000000 0.314146 0.306892 
-0.036999 0.000000 0.059999 -1.000000 0.000092 0.000000 0.353662 0.280551 
-0.036999 0.000001 0.044999 -1.000000 0.000092 0.000000 0.314154 0.280535 
-0.036998 0.000001 0.029998 -1.000000 0.000092 0.000000 0.274647 0.280518 
-0.036999 -0.007999 0.029999 -1.000000 0.000092 0.000000 0.274641 0.306878 
-0.036998 0.000001 0.014998 -1.000000 0.000092 0.000000 0.235139 0.280502 
-0.036999 -0.007999 0.014999 -1.000000 0.000092 0.000000 0.235136 0.306863 
-0.036998 0.008001 0.029998 -1.000000 0.000092 0.000000 0.274652 0.254158 
-0.036998 0.008001 0.044998 -1.000000 0.000092 0.000000 0.314163 0.254177 
-0.036998 0.008001 0.059998 -1.000000 0.000092 0.000000 0.353674 0.254195 
-0.036998 0.016001 0.059997 -1.000000 0.000092 0.000000 0.353685 0.227839 
-0.036997 0.016001 0.044997 -1.000000 0.000092 0.000000 0.314171 0.227819 
-0.036997 0.016002 0.029997 -1.000000 0.000092 0.000000 0.274658 0.227799 
-0.036997 0.024002 0.059997 -1.000000 0.000092 0.000000 0.353697 0.201484 
-0.036996 0.024002 0.044996 -1.000000 0.000092 0.000000 0.314180 0.201462 
-0.036996 0.032002 0.059996 -1.000000 0.000092 0.000000 0.353708 0.175128 
-0.036996 0.032002 0.044996 -1.000000 0.000092 0.000000 0.314188 0.175104 
-0.036995 0.032003 0.029996 -1.000000 0.000092 0.000000 0.274669 0.175080 
-0.036996 0.024002 0.029996 -1.000000 0.000092 0.000000 0.274663 0.201439 
-0.036995 0.032003 0.014995 -1.000000 0.000092 0.000000 0.235149 0.175056 
-0.036996 0.024002 0.014996 -1.000000 0.000092 0.000000 0.235146 0.201417 
-0.036995 0.032003 -0.000005 -1.000000 0.000092 0.000000 0.195629 0.175031 
-0.036995 0.024003 -0.000004 -1.000000 0.000092 0.000000 0.195630 0.201395 
-0.036996 0.016002 -0.000004 -1.000000 0.000092 0.000000 0.195630 0.227758 
-0.036996 0.016002 0.014997 -1.000000 0.000092 0.000000 0.235144 0.227779 
-0.036997 0.008002 -0.000003 -1.000000 0.000092 0.000000 0.195631 0.254122 
-0.036997 0.008002 0.014997 -1.000000 0.000092 0.000000 0.235141 0.254140 
-0.036996 0.016003 -0.015004 -1.000000 0.000092 0.000000 0.156116 0.227738 
-0.036995 0.024003 -0.015005 -1.000000 0.000092 0.000000 0.156113 0.201373 
-0.036994 0.032003 -0.015005 -1.000000 0.000092 0.000000 0.156109 0.175007 
-0.036994 0.032003 -0.030005 -1.000000 0.000092 0.000000 0.116590 0.174983 
-0.036995 0.024003 -0.030005 -1.000000 0.000092 0.000000 0.116596 0.201351 
-0.036995 0.016003 -0.030004 -1.000000 0.000092 0.000000 0.116603 0.227718 
-0.036993 0.032004 -0.045006 -1.000000 0.000092 0.000000 0.077070 0.174959 
-0.036994 0.024003 -0.045005 -1.000000 0.000092 0.000000 0.077079 0.201328 
-0.036993 0.032004 -0.060006 -1.000000 0.000092 0.000000 0.037550 0.174935 
-0.036994 0.024004 -0.060005 -1.000000 0.000092 0.000000 0.037563 0.201306 
-0.036995 0.016003 -0.060005 -1.000000 0.000092 0.000000 0.037575 0.227677 
-0.036995 0.016003 -0.045004 -1.000000 0.000092 0.000000 0.077089 0.227697 
-0.036995 0.008003 -0.060004 -1.000000 0.000092 0.000000 0.037588 0.254048 
-0.036996 0.008003 -0.045004 -1.000000 0.000092 0.000000 0.077099 0.254067 
-0.036996 0.008002 -0.030004 -1.000000 0.000092 0.000000 0.116609 0.254085 
-0.036996 0.008002 -0.015003 -1.000000 0.000092 0.000000 0.156120 0.254103 
0.009252 0.032001 0.029998 0.000031 1.000000 0.000000 0.601164 0.540165 
0.000002 0.032001 0.029998 0.000031 1.000000 0.000000 0.601176 0.509354 
0.000002 0.032001 0.044998 0.000031 1.000000 0.000000 0.561920 0.509358 
0.009251 0.032000 0.044999 0.000031 1.000000 0.000000 0.561907 0.540166 
0.000001 0.032000 0.059999 0.000031 1.000000 0.000000 0.522664 0.509362 
0.009251 0.032000 0.059999 0.000031 1.000000 0.000000 0.522650 0.540168 
0.018500 0.032000 0.060000 0.000031 1.000000 0.000000 0.522637 0.570974 
0.018501 0.032000 0.044999 0.000031 1.000000 0.000000 0.561894 0.570975 
0.018501 0.032000 0.029999 0.000031 1.000000 0.000000 0.601152 0.570976 
0.027750 0.031999 0.060000 0.000031 1.000000 0.000000 0.522623 0.601780 
0.027750 0.032000 0.045000 0.000031 1.000000 0.000000 0.561882 0.601783 
0.036999 0.031999 0.060001 0.000031 1.000000 0.000000 0.522609 0.632586 
0.036999 0.031999 0.045001 0.000031 1.000000 0.000000 0.561869 0.632592 
0.037000 0.031999 0.030000 0.000031 1.000000 0.000000 0.601129 0.632598 
0.027750 0.032000 0.030000 0.000031 1.000000 0.000000 0.601141 0.601787 
0.037000 0.032000 0.015000 0.000031 1.000000 0.000000 0.640389 0.632603 
0.027751 0.032000 0.014999 0.000031 1.000000 0.000000 0.640400 0.601790 
0.037000 0.032000 -0.000000 0.000031 1.000000 0.000000 0.679649 0.632609 
0.027751 0.032000 -0.000001 0.000031 1.000000 0.000000 0.679658 0.601793 
0.018502 0.032001 -0.000002 0.000031 1.000000 0.000000 0.679668 0.570978 
0.018501 0.032000 0.014999 0.000031 1.000000 0.000000 0.640410 0.570977 
0.009252 0.032001 -0.000002 0.000031 1.000000 0.000000 0.679678 0.540162 
0.009252 0.032001 0.014998 0.000031 1.000000 0.000000 0.640421 0.540164 
0.000003 0.032001 -0.000003 0.000031 1.000000 0.000000 0.679688 0.509346 
0.000003 0.032001 0.014998 0.000031 1.000000 0.000000 0.640432 0.509350 
0.018502 0.032001 -0.015002 0.000031 1.000000 0.000000 0.718926 0.570979 
0.027752 0.032001 -0.015001 0.000031 1.000000 0.000000 0.718917 0.601797 
0.037001 0.032000 -0.015001 0.000031 1.000000 0.000000 0.718908 0.632615 
0.037001 0.032000 -0.030001 0.000031 1.000000 0.000000 0.758168 0.632621 
0.027752 0.032001 -0.030002 0.000031 1.000000 0.000000 0.758176 0.601800 
0.018503 0.032001 -0.030002 0.000031 1.000000 0.000000 0.758184 0.570980 
0.037002 0.032001 -0.045002 0.000031 1.000000 0.000000 0.797428 0.632626 
0.027752 0.032001 -0.045002 0.000031 1.000000 0.000000 0.797435 0.601803 
0.037002 0.032001 -0.060002 0.000031 1.000000 0.000000 0.836688 0.632632 
0.027753 0.032001 -0.060002 0.000031 1.000000 0.000000 0.836694 0.601807 
0.018503 0.032002 -0.060003 0.000031 1.000000 0.000000 0.836700 0.570982 
0.018503 0.032001 -0.045003 0.000031 1.000000 0.000000 0.797442 0.570981 
0.009254 0.032002 -0.060003 0.000031 1.000000 0.000000 0.836706 0.540157 
0.009254 0.032002 -0.045003 0.000031 1.000000 0.000000 0.797449 0.540158 
0.000005 0.032003 -0.060004 0.000031 1.000000 0.000000 0.836712 0.509331 
0.000004 0.032002 -0.045004 0.000031 1.000000 0.000000 0.797456 0.509335 
0.000004 0.032002 -0.030003 0.000031 1.000000 0.000000 0.758200 0.509339 
0.009253 0.032002 -0.030003 0.000031 1.000000 0.000000 0.758192 0.540159 
0.000003 0.032002 -0.015003 0.000031 1.000000 0.000000 0.718944 0.509343 
0.009253 0.032001 -0.015003 0.000031 1.000000 0.000000 0.718935 0.540161 
-0.009246 0.032002 -0.030004 0.000031 1.000000 0.000000 0.758208 0.478519 
-0.009245 0.032003 -0.045004 0.000031 1.000000 0.000000 0.797463 0.478512 
-0.009245 0.032003 -0.060005 0.000031 1.000000 0.000000 0.836719 0.478506 
-0.018494 0.032003 -0.060005 0.000031 1.000000 0.000000 0.836725 0.447681 
-0.018495 0.032003 -0.045005 0.000031 1.000000 0.000000 0.797471 0.447690 
-0.018495 0.032003 -0.030004 0.000031 1.000000 0.000000 0.758216 0.447698 
-0.027744 0.032004 -0.060006 0.000031 1.000000 0.000000 0.836731 0.416856 
-0.027744 0.032003 -0.045005 0.000031 1.000000 0.000000 0.797478 0.416867 
-0.036993 0.032004 -0.060006 0.000031 1.000000 0.000000 0.836737 0.386031 
-0.036993 0.032004 -0.045006 0.000031 1.000000 0.000000 0.797485 0.386044 
-0.036994 0.032003 -0.030005 0.000031 1.000000 0.000000 0.758232 0.386057 
-0.027744 0.032003 -0.030005 0.000031 1.000000 0.000000 0.758224 0.416878 
-0.036994 0.032003 -0.015005 0.000031 1.000000 0.000000 0.718980 0.386071 
-0.027745 0.032003 -0.015005 0.000031 1.000000 0.000000 0.718971 0.416889 
-0.036995 0.032003 -0.000005 0.000031 1.000000 0.000000 0.679728 0.386084 
-0.027745 0.032003 -0.000004 0.000031 1.000000 0.000000 0.679718 0.416900 
-0.018496 0.032002 -0.000004 0.000031 1.000000 0.000000 0.679708 0.447715 
-0.018495 0.032003 -0.015004 0.000031 1.000000 0.000000 0.718962 0.447707 
-0.009246 0.032002 -0.000003 0.000031 1.000000 0.000000 0.679698 0.478531 
-0.009246 0.032002 -0.015004 0.000031 1.000000 0.000000 0.718953 0.478525 
-0.018496 0.032002 0.014996 0.000031 1.000000 0.000000 0.640454 0.447724 
-0.027746 0.032002 0.014996 0.000031 1.000000 0.000000 0.640465 0.416910 
-0.036995 0.032003 0.014995 0.000031 1.000000 0.000000 0.640476 0.386097 
-0.036995 0.032003 0.029996 0.000031 1.000000 0.000000 0.601224 0.386110 
-0.027746 0.032002 0.029996 0.000031 1.000000 0.000000 0.601212 0.416921 
-0.018497 0.032002 0.029997 0.000031 1.000000 0.000000 0.601200 0.447732 
-0.036996 0.032002 0.044996 0.000031 1.000000 0.000000 0.561971 0.386124 
-0.027746 0.032002 0.044996 0.000031 1.000000 0.000000 0.561958 0.416932 
-0.036996 0.032002 0.059996 0.000031 1.000000 0.000000 0.522719 0.386137 
-0.027747 0.032002 0.059997 0.000031 1.000000 0.000000 0.522705 0.416943 
-0.018497 0.032001 0.059997 0.000031 1.000000 0.000000 0.522691 0.447749 
-0.018497 0.032001 0.044997 0.000031 1.000000 0.000000 0.561946 0.447741 
-0.009248 0.032001 0.059998 0.000031 1.000000 0.000000 0.522678 0.478555 
-0.009248 0.032001 0.044998 0.000031 1.000000 0.000000 0.561933 0.478549 
-0.009247 0.032001 0.029997 0.000031 1.000000 0.000000 0.601188 0.478543 
-0.009247 0.032002 0.014997 0.000031 1.000000 0.000000 0.640443 0.478537 
4 0 1 2 3 
4 2 4 5 3 
4 5 6 7 3 
4 7 8 0 3 
4 7 6 9 10 
4 9 11 12 10 
4 12 13 14 10 
4 14 8 7 10 
4 14 13 15 16 
4 15 17 18 16 
4 18 19 20 16 
4 20 8 14 16 
4 20 19 21 22 
4 21 23 24 22 
4 24 1 0 22 
4 0 8 20 22 
4 25 19 18 26 
4 18 17 27 26 
4 27 28 29 26 
4 29 30 25 26 
4 29 28 31 32 
4 31 33 34 32 
4 34 35 36 32 
4 36 30 29 32 
4 36 35 37 38 
4 37 39 40 38 
4 40 41 42 38 
4 42 30 36 38 
4 42 41 43 44 
4 43 23 21 44 
4 21 19 25 44 
4 25 30 42 44 
4 45 41 40 46 
4 40 39 47 46 
4 47 48 49 46 
4 49 50 45 46 
4 49 48 51 52 
4 51 53 54 52 
4 54 55 56 52 
4 56 50 49 52 
4 56 55 57 58 
4 57 59 60 58 
4 60 61 62 58 
4 62 50 56 58 
4 62 61 63 64 
4 63 23 43 64 
4 43 41 45 64 
4 45 50 62 64 
4 65 61 60 66 
4 60 59 67 66 
4 67 68 69 66 
4 69 70 65 66 
4 69 68 71 72 
4 71 73 74 72 
4 74 75 76 72 
4 76 70 69 72 
4 76 75 77 78 
4 77 4 2 78 
4 2 1 79 78 
4 79 70 76 78 
4 79 1 24 80 
4 24 23 63 80 
4 63 61 65 80 
4 65 70 79 80 
4 81 82 83 84 
4 83 85 86 84 
4 86 87 88 84 
4 88 89 81 84 
4 88 87 90 91 
4 90 92 93 91 
4 93 94 95 91 
4 95 89 88 91 
4 95 94 96 97 
4 96 98 99 97 
4 99 100 101 97 
4 101 89 95 97 
4 101 100 102 103 
4 102 104 105 103 
4 105 82 81 103 
4 81 89 101 103 
4 106 100 99 107 
4 99 98 108 107 
4 108 109 110 107 
4 110 111 106 107 
4 110 109 112 113 
4 112 114 115 113 
4 115 116 117 113 
4 117 111 110 113 
4 117 116 118 119 
4 118 120 121 119 
4 121 122 123 119 
4 123 111 117 119 
4 123 122 124 125 
4 124 104 102 125 
4 102 100 106 125 
4 106 111 123 125 
4 126 122 121 127 
4 121 120 128 127 
4 128 129 130 127 
4 130 131 126 127 
4 130 129 132 133 
4 132 134 135 133 
4 135 136 137 133 
4 137 131 130 133 
4 137 136 138 139 
4 138 140 141 139 
4 141 142 143 139 
4 143 131 137 139 
4 143 142 144 145 
4 144 104 124 145 
4 124 122 126 145 
4 126 131 143 145 
4 146 142 141 147 
4 141 140 148 147 
4 148 149 150 147 
4 150 151 146 147 
4 150 149 152 153 
4 152 154 155 153 
4 155 156 157 153 
4 157 151 150 153 
4 157 156 158 159 
4 158 85 83 159 
4 83 82 160 159 
4 160 151 157 159 
4 160 82 105 161 
4 105 104 144 161 
4 144 142 146 161 
4 146 151 160 161 
4 162 163 164 165 
4 164 166 167 165 
4 167 168 169 165 
4 169 170 162 165 
4 169 168 171 172 
4 171 173 174 172 
4 174 175 176 172 
4 176 170 169 172 
4 176 175 177 178 
4 177 179 180 178 
4 180 181 182 178 
4 182 170 176 178 
4 182 181 183 184 
4 183 185 186 184 
4 186 163 162 184 
4 162 170 182 184 
4 187 181 180 188 
4 180 179 189 188 
4 189 190 191 188 
4 191 192 187 188 
4 191 190 193 194 
4 193 195 196 194 
4 196 197 198 194 
4 198 192 191 194 
4 198 197 199 200 
4 199 201 202 200 
4 202 203 204 200 
4 204 192 198 200 
4 204 203 205 206 
4 205 185 183 206 
4 183 181 187 206 
4 187 192 204 206 
4 207 203 202 208 
4 202 201 209 208 
4 209 210 211 208 
4 211 212 207 208 
4 211 210 213 214 
4 213 215 216 214 
4 216 217 218 214 
4 218 212 211 214 
4 218 217 219 220 
4 219 221 222 220 
4 222 223 224 220 
4 224 212 218 220 
4 224 223 225 226 
4 225 185 205 226 
4 205 203 207 226 
4 207 212 224 226 
4 227 223 222 228 
4 222 221 229 228 
4 229 230 231 228 
4 231 232 227 228 
4 231 230 233 234 
4 233 235 236 234 
4 236 237 238 234 
4 238 232 231 234 
4 238 237 239 240 
4 239 166 164 240 
4 164 163 241 240 
4 241 232 238 240 
4 241 163 186 242 
4 186 185 225 242 
4 225 223 227 242 
4 227 232 241 242 
4 243 244 245 246 
4 245 247 248 246 
4 248 249 250 246 
4 250 251 243 246 
4 250 249 252 253 
4 252 254 255 253 
4 255 256 257 253 
4 257 251 250 253 
4 257 256 258 259 
4 258 260 261 259 
4 261 262 263 259 
4 263 251 257 259 
4 263 262 264 265 
4 264 266 267 265 
4 267 244 243 265 
4 243 251 263 265 
4 268 262 261 269 
4 261 260 270 269 
4 270 271 272 269 
4 272 273 268 269 
4 272 271 274 275 
4 274 276 277 275 
4 277 278 279 275 
4 279 273 272 275 
4 279 278 280 281 
4 280 282 283 281 
4 283 284 285 281 
4 285 273 279 281 
4 285 284 286 287 
4 286 266 264 287 
4 264 262 268 287 
4 268 273 285 287 
4 288 284 283 289 
4 283 282 290 289 
4 290 291 292 289 
4 292 293 288 289 
4 292 291 294 295 
4 294 296 297 295 
4 297 298 299 295 
4 299 293 292 295 
4 299 298 300 301 
4 300 302 303 301 
4 303 304 305 301 
4 305 293 299 301 
4 305 304 306 307 
4 306 266 286 307 
4 286 284 288 307 
4 288 293 305 307 
4 308 304 303 309 
4 303 302 310 309 
4 310 311 312 309 
4 312 313 308 309 
4 312 311 314 315 
4 314 316 317 315 
4 317 318 319 315 
4 319 313 312 315 
4 319 318 320 321 
4 320 247 245 321 
4 245 244 322 321 
4 322 313 319 321 
4 322 244 267 323 
4 267 266 306 323 
4 306 304 308 323 
4 308 313 322 323 
4 324 325 326 327 
4 326 328 329 327 
4 329 330 331 327 
4 331 332 324 327 
4 331 330 333 334 
4 333 335 336 334 
4 336 337 338 334 
4 338 332 331 334 
4 338 337 339 340 
4 339 341 342 340 
4 342 343 344 340 
4 344 332 338 340 
4 344 343 345 346 
4 345 347 348 346 
4 348 325 324 346 
4 324 332 344 346 
4 349 343 342 350 
4 342 341 351 350 
4 351 352 353 350 
4 353 354 349 350 
4 353 352 355 356 
4 355 357 358 356 
4 358 359 360 356 
4 360 354 353 356 
4 360 359 361 362 
4 361 363 364 362 
4 364 365 366 362 
4 366 354 360 362 
4 366 365 367 368 
4 367 347 345 368 
4 345 343 349 368 
4 349 354 366 368 
4 369 365 364 370 
4 364 363 371 370 
4 371 372 373 370 
4 373 374 369 370 
4 373 372 375 376 
4 375 377 378 376 
4 378 379 380 376 
4 380 374 373 376 
4 380 379 381 382 
4 381 383 384 382 
4 384 385 386 382 
4 386 374 380 382 
4 386 385 387 388 
4 387 347 367 388 
4 367 365 369 388 
4 369 374 386 388 
4 389 385 384 390 
4 384 383 391 390 
4 391 392 393 390 
4 393 394 389 390 
4 393 392 395 396 
4 395 397 398 396 
4 398 399 400 396 
4 400 394 393 396 
4 400 399 401 402 
4 401 328 326 402 
4 326 325 403 402 
4 403 394 400 402 
4 403 325 348 404 
4 348 347 387 404 
4 387 385 389 404 
4 389 394 403 404 
4 405 406 407 408 
4 407 409 410 408 
4 410 411 412 408 
4 412 413 405 408 
4 412 411 414 415 
4 414 416 417 415 
4 417 418 419 415 
4 419 413 412 415 
4 419 418 420 421 
4 420 422 423 421 
4 423 424 425 421 
4 425 413 419 421 
4 425 424 426 427 
4 426 428 429 427 
4 429 406 405 427 
4 405 413 425 427 
4 430 424 423 431 
4 423 422 432 431 
4 432 433 434 431 
4 434 435 430 431 
4 434 433 436 437 
4 436 438 439 437 
4 439 440 441 437 
4 441 435 434 437 
4 441 440 442 443 
4 442 444 445 443 
4 445 446 447 443 
4 447 435 441 443 
4 447 446 448 449 
4 448 428 426 449 
4 426 424 430 449 
4 430 435 447 449 
4 450 446 445 451 
4 445 444 452 451 
4 452 453 454 451 
4 454 455 450 451 
4 454 453 456 457 
4 456 458 459 457 
4 459 460 461 457 
4 461 455 454 457 
4 461 460 462 463 
4 462 464 465 463 
4 465 466 467 463 
4 467 455 461 463 
4 467 466 468 469 
4 468 428 448 469 
4 448 446 450 469 
4 450 455 467 469 
4 470 466 465 471 
4 465 464 472 471 
4 472 473 474 471 
4 474 475 470 471 
4 474 473 476 477 
4 476 478 479 477 
4 479 480 481 477 
4 481 475 474 477 
4 481 480 482 483 
4 482 409 407 483 
4 407 406 484 483 
4 484 475 481 483 
4 484 406 429 485 
4 429 428 468 485 
4 468 466 470 485 
4 470 475 484 485 
