ply
format ascii 1.0
comment Created by Blender3D 249 - www.blender.org, source file: pringels.blend
element vertex 602
property float x
property float y
property float z
property float nx
property float ny
property float nz
element face 300
property list uchar uint vertex_indices
end_header
0.000000 0.000000 -0.115000 -0.000000 0.000000 -1.000000 
0.026530 0.026530 -0.115000 -0.000000 0.000000 -1.000000 
0.028143 0.024811 -0.115000 -0.000000 0.000000 -1.000000 
0.000000 0.000000 0.115000 0.000000 0.000000 1.000000 
0.028143 0.024811 0.115000 0.000000 0.000000 1.000000 
0.026530 0.026530 0.115000 0.000000 0.000000 1.000000 
0.029645 0.022995 -0.115000 -0.000000 0.000000 -1.000000 
0.029645 0.022995 0.115000 0.000000 0.000000 1.000000 
0.031031 0.021089 -0.115000 -0.000000 0.000000 -1.000000 
0.031031 0.021088 0.115000 0.000000 0.000000 1.000000 
0.032294 0.019098 -0.115000 -0.000000 0.000000 -1.000000 
0.032294 0.019098 0.115000 0.000000 0.000000 1.000000 
0.033429 0.017033 -0.115000 -0.000000 0.000000 -1.000000 
0.033429 0.017033 0.115000 0.000000 0.000000 1.000000 
0.034433 0.014900 -0.115000 -0.000000 0.000000 -1.000000 
0.034433 0.014900 0.115000 0.000000 0.000000 1.000000 
0.035300 0.012709 -0.115000 -0.000000 0.000000 -1.000000 
0.035300 0.012709 0.115000 0.000000 0.000000 1.000000 
0.036029 0.010467 -0.115000 -0.000000 0.000000 -1.000000 
0.036029 0.010467 0.115000 0.000000 0.000000 1.000000 
0.036615 0.008184 -0.115000 -0.000000 0.000000 -1.000000 
0.036615 0.008184 0.115000 0.000000 0.000000 1.000000 
0.037057 0.005869 -0.115000 -0.000000 0.000000 -1.000000 
0.037057 0.005869 0.115000 0.000000 0.000000 1.000000 
0.037352 0.003531 -0.115000 -0.000000 0.000000 -1.000000 
0.037352 0.003531 0.115000 0.000000 0.000000 1.000000 
0.037500 0.001178 -0.115000 -0.000000 0.000000 -1.000000 
0.037500 0.001178 0.115000 0.000000 0.000000 1.000000 
0.037500 -0.001178 -0.115000 -0.000000 0.000000 -1.000000 
0.037500 -0.001179 0.115000 0.000000 0.000000 1.000000 
0.037352 -0.003531 -0.115000 0.000000 0.000000 -1.000000 
0.037352 -0.003531 0.115000 0.000000 0.000000 1.000000 
0.037057 -0.005869 -0.115000 0.000000 0.000000 -1.000000 
0.037057 -0.005869 0.115000 0.000000 0.000000 1.000000 
0.036615 -0.008184 -0.115000 0.000000 0.000000 -1.000000 
0.036615 -0.008184 0.115000 0.000000 0.000000 1.000000 
0.036029 -0.010467 -0.115000 0.000000 0.000000 -1.000000 
0.036029 -0.010467 0.115000 0.000000 0.000000 1.000000 
0.035300 -0.012709 -0.115000 0.000000 0.000000 -1.000000 
0.035300 -0.012709 0.115000 0.000000 0.000000 1.000000 
0.034433 -0.014900 -0.115000 0.000000 0.000000 -1.000000 
0.034433 -0.014900 0.115000 0.000000 0.000000 1.000000 
0.033429 -0.017033 -0.115000 0.000000 0.000000 -1.000000 
0.033429 -0.017033 0.115000 0.000000 0.000000 1.000000 
0.032294 -0.019098 -0.115000 0.000000 0.000000 -1.000000 
0.032294 -0.019099 0.115000 0.000000 0.000000 1.000000 
0.031031 -0.021089 -0.115000 0.000000 0.000000 -1.000000 
0.031031 -0.021089 0.115000 0.000000 0.000000 1.000000 
0.029645 -0.022995 -0.115000 0.000000 0.000000 -1.000000 
0.029645 -0.022995 0.115000 0.000000 0.000000 1.000000 
0.028143 -0.024811 -0.115000 0.000000 0.000000 -1.000000 
0.028143 -0.024812 0.115000 0.000000 0.000000 1.000000 
0.026530 -0.026530 -0.115000 0.000000 0.000000 -1.000000 
0.026530 -0.026530 0.115000 0.000000 0.000000 1.000000 
0.024811 -0.028143 -0.115000 0.000000 0.000000 -1.000000 
0.024811 -0.028143 0.115000 0.000000 0.000000 1.000000 
0.022995 -0.029645 -0.115000 0.000000 0.000000 -1.000000 
0.022995 -0.029645 0.115000 0.000000 0.000000 1.000000 
0.021089 -0.031031 -0.115000 0.000000 0.000000 -1.000000 
0.021088 -0.031031 0.115000 0.000000 0.000000 1.000000 
0.019098 -0.032294 -0.115000 0.000000 0.000000 -1.000000 
0.019098 -0.032294 0.115000 0.000000 0.000000 1.000000 
0.017033 -0.033429 -0.115000 0.000000 0.000000 -1.000000 
0.017033 -0.033429 0.115000 0.000000 0.000000 1.000000 
0.014900 -0.034433 -0.115000 0.000000 0.000000 -1.000000 
0.014900 -0.034433 0.115000 0.000000 0.000000 1.000000 
0.012709 -0.035300 -0.115000 0.000000 0.000000 -1.000000 
0.012709 -0.035300 0.115000 0.000000 0.000000 1.000000 
0.010467 -0.036029 -0.115000 0.000000 0.000000 -1.000000 
0.010467 -0.036029 0.115000 0.000000 0.000000 1.000000 
0.008184 -0.036615 -0.115000 0.000000 0.000000 -1.000000 
0.008184 -0.036615 0.115000 0.000000 0.000000 1.000000 
0.005869 -0.037057 -0.115000 0.000000 0.000000 -1.000000 
0.005869 -0.037057 0.115000 0.000000 0.000000 1.000000 
0.003531 -0.037352 -0.115000 0.000000 0.000000 -1.000000 
0.003531 -0.037352 0.115000 0.000000 0.000000 1.000000 
0.001178 -0.037500 -0.115000 0.000000 0.000000 -1.000000 
0.001178 -0.037500 0.115000 0.000000 0.000000 1.000000 
-0.001179 -0.037500 -0.115000 0.000000 0.000000 -1.000000 
-0.001179 -0.037500 0.115000 0.000000 -0.000000 1.000000 
-0.003531 -0.037352 -0.115000 0.000000 0.000000 -1.000000 
-0.003531 -0.037352 0.115000 0.000000 -0.000000 1.000000 
-0.005869 -0.037057 -0.115000 0.000000 0.000000 -1.000000 
-0.005869 -0.037057 0.115000 0.000000 -0.000000 1.000000 
-0.008184 -0.036615 -0.115000 0.000000 0.000000 -1.000000 
-0.008185 -0.036615 0.115000 0.000000 -0.000000 1.000000 
-0.010467 -0.036029 -0.115000 0.000000 0.000000 -1.000000 
-0.010467 -0.036029 0.115000 0.000000 -0.000000 1.000000 
-0.012709 -0.035300 -0.115000 0.000000 0.000000 -1.000000 
-0.012709 -0.035300 0.115000 0.000000 -0.000000 1.000000 
-0.014900 -0.034433 -0.115000 0.000000 0.000000 -1.000000 
-0.014901 -0.034433 0.115000 0.000000 -0.000000 1.000000 
-0.017033 -0.033429 -0.115000 0.000000 0.000000 -1.000000 
-0.017033 -0.033429 0.115000 0.000000 -0.000000 1.000000 
-0.019099 -0.032294 -0.115000 0.000000 0.000000 -1.000000 
-0.019099 -0.032294 0.115000 0.000000 -0.000000 1.000000 
-0.021089 -0.031031 -0.115000 0.000000 0.000000 -1.000000 
-0.021089 -0.031031 0.115000 0.000000 -0.000000 1.000000 
-0.022995 -0.029645 -0.115000 0.000000 0.000000 -1.000000 
-0.022995 -0.029645 0.115000 0.000000 -0.000000 1.000000 
-0.024811 -0.028143 -0.115000 0.000000 0.000000 -1.000000 
-0.024812 -0.028143 0.115000 0.000000 -0.000000 1.000000 
-0.026530 -0.026530 -0.115000 0.000000 0.000000 -1.000000 
-0.026530 -0.026530 0.115000 0.000000 -0.000000 1.000000 
-0.028143 -0.024811 -0.115000 0.000000 0.000000 -1.000000 
-0.028143 -0.024811 0.115000 0.000000 -0.000000 1.000000 
-0.029645 -0.022995 -0.115000 0.000000 0.000000 -1.000000 
-0.029646 -0.022995 0.115000 0.000000 -0.000000 1.000000 
-0.031031 -0.021088 -0.115000 0.000000 0.000000 -1.000000 
-0.031031 -0.021088 0.115000 0.000000 -0.000000 1.000000 
-0.032294 -0.019098 -0.115000 0.000000 0.000000 -1.000000 
-0.032294 -0.019098 0.115000 0.000000 -0.000000 1.000000 
-0.033429 -0.017033 -0.115000 0.000000 0.000000 -1.000000 
-0.033429 -0.017033 0.115000 0.000000 -0.000000 1.000000 
-0.034433 -0.014900 -0.115000 0.000000 0.000000 -1.000000 
-0.034433 -0.014900 0.115000 0.000000 -0.000000 1.000000 
-0.035300 -0.012709 -0.115000 0.000000 0.000000 -1.000000 
-0.035300 -0.012709 0.115000 0.000000 -0.000000 1.000000 
-0.036029 -0.010467 -0.115000 0.000000 0.000000 -1.000000 
-0.036029 -0.010467 0.115000 0.000000 -0.000000 1.000000 
-0.036615 -0.008184 -0.115000 0.000000 0.000000 -1.000000 
-0.036615 -0.008184 0.115000 0.000000 -0.000000 1.000000 
-0.037057 -0.005869 -0.115000 0.000000 0.000000 -1.000000 
-0.037057 -0.005869 0.115000 0.000000 -0.000000 1.000000 
-0.037352 -0.003531 -0.115000 0.000000 0.000000 -1.000000 
-0.037352 -0.003531 0.115000 0.000000 -0.000000 1.000000 
-0.037500 -0.001178 -0.115000 0.000000 0.000000 -1.000000 
-0.037500 -0.001178 0.115000 0.000000 -0.000000 1.000000 
-0.037500 0.001179 -0.115000 0.000000 -0.000000 -1.000000 
-0.037500 0.001179 0.115000 -0.000000 0.000000 1.000000 
-0.037352 0.003531 -0.115000 0.000000 -0.000000 -1.000000 
-0.037352 0.003531 0.115000 -0.000000 0.000000 1.000000 
-0.037057 0.005869 -0.115000 0.000000 -0.000000 -1.000000 
-0.037057 0.005869 0.115000 -0.000000 0.000000 1.000000 
-0.036615 0.008184 -0.115000 0.000000 -0.000000 -1.000000 
-0.036615 0.008185 0.115000 -0.000000 0.000000 1.000000 
-0.036029 0.010467 -0.115000 0.000000 -0.000000 -1.000000 
-0.036029 0.010467 0.115000 -0.000000 0.000000 1.000000 
-0.035300 0.012709 -0.115000 0.000000 -0.000000 -1.000000 
-0.035300 0.012709 0.115000 -0.000000 0.000000 1.000000 
-0.034433 0.014900 -0.115000 0.000000 -0.000000 -1.000000 
-0.034433 0.014901 0.115000 -0.000000 0.000000 1.000000 
-0.033429 0.017033 -0.115000 0.000000 -0.000000 -1.000000 
-0.033429 0.017033 0.115000 -0.000000 0.000000 1.000000 
-0.032294 0.019099 -0.115000 0.000000 -0.000000 -1.000000 
-0.032294 0.019099 0.115000 -0.000000 0.000000 1.000000 
-0.031031 0.021089 -0.115000 0.000000 -0.000000 -1.000000 
-0.031031 0.021089 0.115000 -0.000000 0.000000 1.000000 
-0.029645 0.022995 -0.115000 0.000000 -0.000000 -1.000000 
-0.029645 0.022995 0.115000 -0.000000 0.000000 1.000000 
-0.028143 0.024811 -0.115000 0.000000 -0.000000 -1.000000 
-0.028143 0.024812 0.115000 -0.000000 0.000000 1.000000 
-0.026530 0.026530 -0.115000 0.000000 -0.000000 -1.000000 
-0.026529 0.026530 0.115000 -0.000000 0.000000 1.000000 
-0.024811 0.028143 -0.115000 0.000000 -0.000000 -1.000000 
-0.024811 0.028143 0.115000 -0.000000 0.000000 1.000000 
-0.022995 0.029645 -0.115000 0.000000 -0.000000 -1.000000 
-0.022995 0.029646 0.115000 -0.000000 0.000000 1.000000 
-0.021088 0.031031 -0.115000 0.000000 -0.000000 -1.000000 
-0.021088 0.031031 0.115000 -0.000000 0.000000 1.000000 
-0.019098 0.032294 -0.115000 0.000000 -0.000000 -1.000000 
-0.019098 0.032294 0.115000 -0.000000 0.000000 1.000000 
-0.017033 0.033429 -0.115000 0.000000 -0.000000 -1.000000 
-0.017033 0.033429 0.115000 -0.000000 0.000000 1.000000 
-0.014900 0.034433 -0.115000 0.000000 -0.000000 -1.000000 
-0.014900 0.034433 0.115000 -0.000000 0.000000 1.000000 
-0.012709 0.035300 -0.115000 0.000000 -0.000000 -1.000000 
-0.012709 0.035300 0.115000 -0.000000 0.000000 1.000000 
-0.010467 0.036029 -0.115000 0.000000 -0.000000 -1.000000 
-0.010467 0.036029 0.115000 -0.000000 0.000000 1.000000 
-0.008184 0.036615 -0.115000 0.000000 -0.000000 -1.000000 
-0.008184 0.036615 0.115000 -0.000000 0.000000 1.000000 
-0.005869 0.037057 -0.115000 0.000000 -0.000000 -1.000000 
-0.005869 0.037057 0.115000 -0.000000 0.000000 1.000000 
-0.003531 0.037352 -0.115000 0.000000 -0.000000 -1.000000 
-0.003531 0.037352 0.115000 -0.000000 0.000000 1.000000 
-0.001178 0.037500 -0.115000 0.000000 -0.000000 -1.000000 
-0.001178 0.037500 0.115000 -0.000000 0.000000 1.000000 
0.001179 0.037500 -0.115000 -0.000000 -0.000000 -1.000000 
0.001179 0.037500 0.115000 0.000000 0.000000 1.000000 
0.003531 0.037352 -0.115000 -0.000000 0.000000 -1.000000 
0.003531 0.037352 0.115000 0.000000 0.000000 1.000000 
0.005869 0.037057 -0.115000 -0.000000 0.000000 -1.000000 
0.005869 0.037057 0.115000 0.000000 0.000000 1.000000 
0.008184 0.036615 -0.115000 -0.000000 0.000000 -1.000000 
0.008185 0.036615 0.115000 0.000000 0.000000 1.000000 
0.010467 0.036029 -0.115000 -0.000000 0.000000 -1.000000 
0.010467 0.036029 0.115000 0.000000 0.000000 1.000000 
0.012709 0.035300 -0.115000 -0.000000 0.000000 -1.000000 
0.012709 0.035300 0.115000 0.000000 0.000000 1.000000 
0.014900 0.034433 -0.115000 -0.000000 0.000000 -1.000000 
0.014901 0.034433 0.115000 0.000000 0.000000 1.000000 
0.017033 0.033429 -0.115000 -0.000000 0.000000 -1.000000 
0.017033 0.033429 0.115000 0.000000 0.000000 1.000000 
0.019099 0.032294 -0.115000 -0.000000 0.000000 -1.000000 
0.019099 0.032294 0.115000 0.000000 0.000000 1.000000 
0.021089 0.031031 -0.115000 -0.000000 0.000000 -1.000000 
0.021089 0.031031 0.115000 0.000000 0.000000 1.000000 
0.022995 0.029645 -0.115000 -0.000000 0.000000 -1.000000 
0.022995 0.029645 0.115000 0.000000 0.000000 1.000000 
0.024812 0.028143 -0.115000 -0.000000 0.000000 -1.000000 
0.024812 0.028143 0.115000 0.000000 0.000000 1.000000 
0.026530 0.026530 -0.115000 0.728969 0.684547 -0.000000 
0.026530 0.026530 0.115000 0.728969 0.684547 -0.000000 
0.028143 0.024811 0.115000 0.728969 0.684547 -0.000000 
0.028143 0.024811 -0.115000 0.728969 0.684547 -0.000000 
0.028143 0.024811 -0.115000 0.770514 0.637423 0.000000 
0.028143 0.024811 0.115000 0.770514 0.637423 0.000000 
0.029645 0.022995 0.115000 0.770514 0.637423 0.000000 
0.029645 0.022995 -0.115000 0.770514 0.637423 0.000000 
0.029645 0.022995 -0.115000 0.809018 0.587784 -0.000000 
0.029645 0.022995 0.115000 0.809018 0.587784 -0.000000 
0.031031 0.021088 0.115000 0.809018 0.587784 -0.000000 
0.031031 0.021089 -0.115000 0.809018 0.587784 -0.000000 
0.031031 0.021089 -0.115000 0.844329 0.535826 -0.000000 
0.031031 0.021088 0.115000 0.844329 0.535826 -0.000000 
0.032294 0.019098 0.115000 0.844329 0.535826 -0.000000 
0.032294 0.019098 -0.115000 0.844329 0.535826 -0.000000 
0.032294 0.019098 -0.115000 0.876307 0.481753 -0.000000 
0.032294 0.019098 0.115000 0.876307 0.481753 -0.000000 
0.033429 0.017033 0.115000 0.876307 0.481753 -0.000000 
0.033429 0.017033 -0.115000 0.876307 0.481753 -0.000000 
0.033429 0.017033 -0.115000 0.904828 0.425778 -0.000000 
0.033429 0.017033 0.115000 0.904828 0.425778 -0.000000 
0.034433 0.014900 0.115000 0.904828 0.425778 -0.000000 
0.034433 0.014900 -0.115000 0.904828 0.425778 -0.000000 
0.034433 0.014900 -0.115000 0.929777 0.368124 0.000000 
0.034433 0.014900 0.115000 0.929777 0.368124 0.000000 
0.035300 0.012709 0.115000 0.929777 0.368124 0.000000 
0.035300 0.012709 -0.115000 0.929777 0.368124 0.000000 
0.035300 0.012709 -0.115000 0.951057 0.309016 0.000000 
0.035300 0.012709 0.115000 0.951057 0.309016 0.000000 
0.036029 0.010467 0.115000 0.951057 0.309016 0.000000 
0.036029 0.010467 -0.115000 0.951057 0.309016 0.000000 
0.036029 0.010467 -0.115000 0.968583 0.248689 0.000000 
0.036029 0.010467 0.115000 0.968583 0.248689 0.000000 
0.036615 0.008184 0.115000 0.968583 0.248689 0.000000 
0.036615 0.008184 -0.115000 0.968583 0.248689 0.000000 
0.036615 0.008184 -0.115000 0.982287 0.187380 0.000000 
0.036615 0.008184 0.115000 0.982287 0.187380 0.000000 
0.037057 0.005869 0.115000 0.982287 0.187380 0.000000 
0.037057 0.005869 -0.115000 0.982287 0.187380 0.000000 
0.037057 0.005869 -0.115000 0.992115 0.125331 -0.000000 
0.037057 0.005869 0.115000 0.992115 0.125331 -0.000000 
0.037352 0.003531 0.115000 0.992115 0.125331 -0.000000 
0.037352 0.003531 -0.115000 0.992115 0.125331 -0.000000 
0.037352 0.003531 -0.115000 0.998027 0.062789 0.000000 
0.037352 0.003531 0.115000 0.998027 0.062789 0.000000 
0.037500 0.001178 0.115000 0.998027 0.062789 0.000000 
0.037500 0.001178 -0.115000 0.998027 0.062789 0.000000 
0.037500 0.001178 -0.115000 1.000000 -0.000002 -0.000000 
0.037500 0.001178 0.115000 1.000000 -0.000002 -0.000000 
0.037500 -0.001179 0.115000 1.000000 -0.000002 -0.000000 
0.037500 -0.001178 -0.115000 1.000000 -0.000002 -0.000000 
0.037500 -0.001178 -0.115000 0.998027 -0.062792 -0.000000 
0.037500 -0.001179 0.115000 0.998027 -0.062792 -0.000000 
0.037352 -0.003531 0.115000 0.998027 -0.062792 -0.000000 
0.037352 -0.003531 -0.115000 0.998027 -0.062792 -0.000000 
0.037352 -0.003531 -0.115000 0.992114 -0.125335 -0.000000 
0.037352 -0.003531 0.115000 0.992114 -0.125335 -0.000000 
0.037057 -0.005869 0.115000 0.992114 -0.125335 -0.000000 
0.037057 -0.005869 -0.115000 0.992114 -0.125335 -0.000000 
0.037057 -0.005869 -0.115000 0.982287 -0.187382 -0.000000 
0.037057 -0.005869 0.115000 0.982287 -0.187382 -0.000000 
0.036615 -0.008184 0.115000 0.982287 -0.187382 -0.000000 
0.036615 -0.008184 -0.115000 0.982287 -0.187382 -0.000000 
0.036615 -0.008184 -0.115000 0.968583 -0.248692 0.000000 
0.036615 -0.008184 0.115000 0.968583 -0.248692 0.000000 
0.036029 -0.010467 0.115000 0.968583 -0.248692 0.000000 
0.036029 -0.010467 -0.115000 0.968583 -0.248692 0.000000 
0.036029 -0.010467 -0.115000 0.951056 -0.309019 0.000000 
0.036029 -0.010467 0.115000 0.951056 -0.309019 0.000000 
0.035300 -0.012709 0.115000 0.951056 -0.309019 0.000000 
0.035300 -0.012709 -0.115000 0.951056 -0.309019 0.000000 
0.035300 -0.012709 -0.115000 0.929776 -0.368125 0.000000 
0.035300 -0.012709 0.115000 0.929776 -0.368125 0.000000 
0.034433 -0.014900 0.115000 0.929776 -0.368125 0.000000 
0.034433 -0.014900 -0.115000 0.929776 -0.368125 0.000000 
0.034433 -0.014900 -0.115000 0.904826 -0.425781 0.000000 
0.034433 -0.014900 0.115000 0.904826 -0.425781 0.000000 
0.033429 -0.017033 0.115000 0.904826 -0.425781 0.000000 
0.033429 -0.017033 -0.115000 0.904826 -0.425781 0.000000 
0.033429 -0.017033 -0.115000 0.876306 -0.481754 0.000000 
0.033429 -0.017033 0.115000 0.876306 -0.481754 0.000000 
0.032294 -0.019099 0.115000 0.876306 -0.481754 0.000000 
0.032294 -0.019098 -0.115000 0.876306 -0.481754 0.000000 
0.032294 -0.019098 -0.115000 0.844327 -0.535829 0.000000 
0.032294 -0.019099 0.115000 0.844327 -0.535829 0.000000 
0.031031 -0.021089 0.115000 0.844327 -0.535829 0.000000 
0.031031 -0.021089 -0.115000 0.844327 -0.535829 0.000000 
0.031031 -0.021089 -0.115000 0.809016 -0.587786 0.000000 
0.031031 -0.021089 0.115000 0.809016 -0.587786 0.000000 
0.029645 -0.022995 0.115000 0.809016 -0.587786 0.000000 
0.029645 -0.022995 -0.115000 0.809016 -0.587786 0.000000 
0.029645 -0.022995 -0.115000 0.770512 -0.637425 -0.000000 
0.029645 -0.022995 0.115000 0.770512 -0.637425 -0.000000 
0.028143 -0.024812 0.115000 0.770512 -0.637425 -0.000000 
0.028143 -0.024811 -0.115000 0.770512 -0.637425 -0.000000 
0.028143 -0.024811 -0.115000 0.728967 -0.684549 -0.000000 
0.028143 -0.024812 0.115000 0.728967 -0.684549 -0.000000 
0.026530 -0.026530 0.115000 0.728967 -0.684549 -0.000000 
0.026530 -0.026530 -0.115000 0.728967 -0.684549 -0.000000 
0.026530 -0.026530 -0.115000 0.684547 -0.728969 0.000000 
0.026530 -0.026530 0.115000 0.684547 -0.728969 0.000000 
0.024811 -0.028143 0.115000 0.684547 -0.728969 0.000000 
0.024811 -0.028143 -0.115000 0.684547 -0.728969 0.000000 
0.024811 -0.028143 -0.115000 0.637423 -0.770514 -0.000000 
0.024811 -0.028143 0.115000 0.637423 -0.770514 -0.000000 
0.022995 -0.029645 0.115000 0.637423 -0.770514 -0.000000 
0.022995 -0.029645 -0.115000 0.637423 -0.770514 -0.000000 
0.022995 -0.029645 -0.115000 0.587784 -0.809018 0.000000 
0.022995 -0.029645 0.115000 0.587784 -0.809018 0.000000 
0.021088 -0.031031 0.115000 0.587784 -0.809018 0.000000 
0.021089 -0.031031 -0.115000 0.587784 -0.809018 0.000000 
0.021089 -0.031031 -0.115000 0.535826 -0.844329 0.000000 
0.021088 -0.031031 0.115000 0.535826 -0.844329 0.000000 
0.019098 -0.032294 0.115000 0.535826 -0.844329 0.000000 
0.019098 -0.032294 -0.115000 0.535826 -0.844329 0.000000 
0.019098 -0.032294 -0.115000 0.481752 -0.876308 0.000000 
0.019098 -0.032294 0.115000 0.481752 -0.876308 0.000000 
0.017033 -0.033429 0.115000 0.481752 -0.876308 0.000000 
0.017033 -0.033429 -0.115000 0.481752 -0.876308 0.000000 
0.017033 -0.033429 -0.115000 0.425778 -0.904828 0.000000 
0.017033 -0.033429 0.115000 0.425778 -0.904828 0.000000 
0.014900 -0.034433 0.115000 0.425778 -0.904828 0.000000 
0.014900 -0.034433 -0.115000 0.425778 -0.904828 0.000000 
0.014900 -0.034433 -0.115000 0.368123 -0.929777 0.000000 
0.014900 -0.034433 0.115000 0.368123 -0.929777 0.000000 
0.012709 -0.035300 0.115000 0.368123 -0.929777 0.000000 
0.012709 -0.035300 -0.115000 0.368123 -0.929777 0.000000 
0.012709 -0.035300 -0.115000 0.309015 -0.951057 0.000000 
0.012709 -0.035300 0.115000 0.309015 -0.951057 0.000000 
0.010467 -0.036029 0.115000 0.309015 -0.951057 0.000000 
0.010467 -0.036029 -0.115000 0.309015 -0.951057 0.000000 
0.010467 -0.036029 -0.115000 0.248688 -0.968584 0.000000 
0.010467 -0.036029 0.115000 0.248688 -0.968584 0.000000 
0.008184 -0.036615 0.115000 0.248688 -0.968584 0.000000 
0.008184 -0.036615 -0.115000 0.248688 -0.968584 0.000000 
0.008184 -0.036615 -0.115000 0.187380 -0.982287 0.000000 
0.008184 -0.036615 0.115000 0.187380 -0.982287 0.000000 
0.005869 -0.037057 0.115000 0.187380 -0.982287 0.000000 
0.005869 -0.037057 -0.115000 0.187380 -0.982287 0.000000 
0.005869 -0.037057 -0.115000 0.125331 -0.992115 0.000000 
0.005869 -0.037057 0.115000 0.125331 -0.992115 0.000000 
0.003531 -0.037352 0.115000 0.125331 -0.992115 0.000000 
0.003531 -0.037352 -0.115000 0.125331 -0.992115 0.000000 
0.003531 -0.037352 -0.115000 0.062789 -0.998027 0.000000 
0.003531 -0.037352 0.115000 0.062789 -0.998027 0.000000 
0.001178 -0.037500 0.115000 0.062789 -0.998027 0.000000 
0.001178 -0.037500 -0.115000 0.062789 -0.998027 0.000000 
0.001178 -0.037500 -0.115000 -0.000002 -1.000000 -0.000000 
0.001178 -0.037500 0.115000 -0.000002 -1.000000 -0.000000 
-0.001179 -0.037500 0.115000 -0.000002 -1.000000 -0.000000 
-0.001179 -0.037500 -0.115000 -0.000002 -1.000000 -0.000000 
-0.001179 -0.037500 -0.115000 -0.062792 -0.998027 -0.000000 
-0.001179 -0.037500 0.115000 -0.062792 -0.998027 -0.000000 
-0.003531 -0.037352 0.115000 -0.062792 -0.998027 -0.000000 
-0.003531 -0.037352 -0.115000 -0.062792 -0.998027 -0.000000 
-0.003531 -0.037352 -0.115000 -0.125336 -0.992114 -0.000000 
-0.003531 -0.037352 0.115000 -0.125336 -0.992114 -0.000000 
-0.005869 -0.037057 0.115000 -0.125336 -0.992114 -0.000000 
-0.005869 -0.037057 -0.115000 -0.125336 -0.992114 -0.000000 
-0.005869 -0.037057 -0.115000 -0.187383 -0.982287 0.000000 
-0.005869 -0.037057 0.115000 -0.187383 -0.982287 0.000000 
-0.008185 -0.036615 0.115000 -0.187383 -0.982287 0.000000 
-0.008184 -0.036615 -0.115000 -0.187383 -0.982287 0.000000 
-0.008184 -0.036615 -0.115000 -0.248692 -0.968583 -0.000000 
-0.008185 -0.036615 0.115000 -0.248692 -0.968583 -0.000000 
-0.010467 -0.036029 0.115000 -0.248692 -0.968583 -0.000000 
-0.010467 -0.036029 -0.115000 -0.248692 -0.968583 -0.000000 
-0.010467 -0.036029 -0.115000 -0.309019 -0.951056 0.000000 
-0.010467 -0.036029 0.115000 -0.309019 -0.951056 0.000000 
-0.012709 -0.035300 0.115000 -0.309019 -0.951056 0.000000 
-0.012709 -0.035300 -0.115000 -0.309019 -0.951056 0.000000 
-0.012709 -0.035300 -0.115000 -0.368127 -0.929775 0.000000 
-0.012709 -0.035300 0.115000 -0.368127 -0.929775 0.000000 
-0.014901 -0.034433 0.115000 -0.368127 -0.929775 0.000000 
-0.014900 -0.034433 -0.115000 -0.368127 -0.929775 0.000000 
-0.014900 -0.034433 -0.115000 -0.425781 -0.904826 0.000000 
-0.014901 -0.034433 0.115000 -0.425781 -0.904826 0.000000 
-0.017033 -0.033429 0.115000 -0.425781 -0.904826 0.000000 
-0.017033 -0.033429 -0.115000 -0.425781 -0.904826 0.000000 
-0.017033 -0.033429 -0.115000 -0.481755 -0.876306 -0.000000 
-0.017033 -0.033429 0.115000 -0.481755 -0.876306 -0.000000 
-0.019099 -0.032294 0.115000 -0.481755 -0.876306 -0.000000 
-0.019099 -0.032294 -0.115000 -0.481755 -0.876306 -0.000000 
-0.019099 -0.032294 -0.115000 -0.535828 -0.844327 -0.000000 
-0.019099 -0.032294 0.115000 -0.535828 -0.844327 -0.000000 
-0.021089 -0.031031 0.115000 -0.535828 -0.844327 -0.000000 
-0.021089 -0.031031 -0.115000 -0.535828 -0.844327 -0.000000 
-0.021089 -0.031031 -0.115000 -0.587787 -0.809016 0.000000 
-0.021089 -0.031031 0.115000 -0.587787 -0.809016 0.000000 
-0.022995 -0.029645 0.115000 -0.587787 -0.809016 0.000000 
-0.022995 -0.029645 -0.115000 -0.587787 -0.809016 0.000000 
-0.022995 -0.029645 -0.115000 -0.637426 -0.770512 0.000000 
-0.022995 -0.029645 0.115000 -0.637426 -0.770512 0.000000 
-0.024812 -0.028143 0.115000 -0.637426 -0.770512 0.000000 
-0.024811 -0.028143 -0.115000 -0.637426 -0.770512 0.000000 
-0.024811 -0.028143 -0.115000 -0.684549 -0.728967 0.000000 
-0.024812 -0.028143 0.115000 -0.684549 -0.728967 0.000000 
-0.026530 -0.026530 0.115000 -0.684549 -0.728967 0.000000 
-0.026530 -0.026530 -0.115000 -0.684549 -0.728967 0.000000 
-0.026530 -0.026530 -0.115000 -0.728970 -0.684546 0.000000 
-0.026530 -0.026530 0.115000 -0.728970 -0.684546 0.000000 
-0.028143 -0.024811 0.115000 -0.728970 -0.684546 0.000000 
-0.028143 -0.024811 -0.115000 -0.728970 -0.684546 0.000000 
-0.028143 -0.024811 -0.115000 -0.770515 -0.637422 -0.000000 
-0.028143 -0.024811 0.115000 -0.770515 -0.637422 -0.000000 
-0.029646 -0.022995 0.115000 -0.770515 -0.637422 -0.000000 
-0.029645 -0.022995 -0.115000 -0.770515 -0.637422 -0.000000 
-0.029645 -0.022995 -0.115000 -0.809018 -0.587783 0.000000 
-0.029646 -0.022995 0.115000 -0.809018 -0.587783 0.000000 
-0.031031 -0.021088 0.115000 -0.809018 -0.587783 0.000000 
-0.031031 -0.021088 -0.115000 -0.809018 -0.587783 0.000000 
-0.031031 -0.021088 -0.115000 -0.844329 -0.535824 0.000000 
-0.031031 -0.021088 0.115000 -0.844329 -0.535824 0.000000 
-0.032294 -0.019098 0.115000 -0.844329 -0.535824 0.000000 
-0.032294 -0.019098 -0.115000 -0.844329 -0.535824 0.000000 
-0.032294 -0.019098 -0.115000 -0.876307 -0.481752 0.000000 
-0.032294 -0.019098 0.115000 -0.876307 -0.481752 0.000000 
-0.033429 -0.017033 0.115000 -0.876307 -0.481752 0.000000 
-0.033429 -0.017033 -0.115000 -0.876307 -0.481752 0.000000 
-0.033429 -0.017033 -0.115000 -0.904828 -0.425777 -0.000000 
-0.033429 -0.017033 0.115000 -0.904828 -0.425777 -0.000000 
-0.034433 -0.014900 0.115000 -0.904828 -0.425777 -0.000000 
-0.034433 -0.014900 -0.115000 -0.904828 -0.425777 -0.000000 
-0.034433 -0.014900 -0.115000 -0.929777 -0.368122 -0.000000 
-0.034433 -0.014900 0.115000 -0.929777 -0.368122 -0.000000 
-0.035300 -0.012709 0.115000 -0.929777 -0.368122 -0.000000 
-0.035300 -0.012709 -0.115000 -0.929777 -0.368122 -0.000000 
-0.035300 -0.012709 -0.115000 -0.951057 -0.309015 0.000000 
-0.035300 -0.012709 0.115000 -0.951057 -0.309015 0.000000 
-0.036029 -0.010467 0.115000 -0.951057 -0.309015 0.000000 
-0.036029 -0.010467 -0.115000 -0.951057 -0.309015 0.000000 
-0.036029 -0.010467 -0.115000 -0.968584 -0.248687 0.000000 
-0.036029 -0.010467 0.115000 -0.968584 -0.248687 0.000000 
-0.036615 -0.008184 0.115000 -0.968584 -0.248687 0.000000 
-0.036615 -0.008184 -0.115000 -0.968584 -0.248687 0.000000 
-0.036615 -0.008184 -0.115000 -0.982288 -0.187380 -0.000000 
-0.036615 -0.008184 0.115000 -0.982288 -0.187380 -0.000000 
-0.037057 -0.005869 0.115000 -0.982288 -0.187380 -0.000000 
-0.037057 -0.005869 -0.115000 -0.982288 -0.187380 -0.000000 
-0.037057 -0.005869 -0.115000 -0.992115 -0.125331 -0.000000 
-0.037057 -0.005869 0.115000 -0.992115 -0.125331 -0.000000 
-0.037352 -0.003531 0.115000 -0.992115 -0.125331 -0.000000 
-0.037352 -0.003531 -0.115000 -0.992115 -0.125331 -0.000000 
-0.037352 -0.003531 -0.115000 -0.998027 -0.062788 -0.000000 
-0.037352 -0.003531 0.115000 -0.998027 -0.062788 -0.000000 
-0.037500 -0.001178 0.115000 -0.998027 -0.062788 -0.000000 
-0.037500 -0.001178 -0.115000 -0.998027 -0.062788 -0.000000 
-0.037500 -0.001178 -0.115000 -1.000000 0.000002 -0.000000 
-0.037500 -0.001178 0.115000 -1.000000 0.000002 -0.000000 
-0.037500 0.001179 0.115000 -1.000000 0.000002 -0.000000 
-0.037500 0.001179 -0.115000 -1.000000 0.000002 -0.000000 
-0.037500 0.001179 -0.115000 -0.998027 0.062793 -0.000000 
-0.037500 0.001179 0.115000 -0.998027 0.062793 -0.000000 
-0.037352 0.003531 0.115000 -0.998027 0.062793 -0.000000 
-0.037352 0.003531 -0.115000 -0.998027 0.062793 -0.000000 
-0.037352 0.003531 -0.115000 -0.992114 0.125336 -0.000000 
-0.037352 0.003531 0.115000 -0.992114 0.125336 -0.000000 
-0.037057 0.005869 0.115000 -0.992114 0.125336 -0.000000 
-0.037057 0.005869 -0.115000 -0.992114 0.125336 -0.000000 
-0.037057 0.005869 -0.115000 -0.982287 0.187384 -0.000000 
-0.037057 0.005869 0.115000 -0.982287 0.187384 -0.000000 
-0.036615 0.008185 0.115000 -0.982287 0.187384 -0.000000 
-0.036615 0.008184 -0.115000 -0.982287 0.187384 -0.000000 
-0.036615 0.008184 -0.115000 -0.968582 0.248693 -0.000000 
-0.036615 0.008185 0.115000 -0.968582 0.248693 -0.000000 
-0.036029 0.010467 0.115000 -0.968582 0.248693 -0.000000 
-0.036029 0.010467 -0.115000 -0.968582 0.248693 -0.000000 
-0.036029 0.010467 -0.115000 -0.951056 0.309020 -0.000000 
-0.036029 0.010467 0.115000 -0.951056 0.309020 -0.000000 
-0.035300 0.012709 0.115000 -0.951056 0.309020 -0.000000 
-0.035300 0.012709 -0.115000 -0.951056 0.309020 -0.000000 
-0.035300 0.012709 -0.115000 -0.929775 0.368127 0.000000 
-0.035300 0.012709 0.115000 -0.929775 0.368127 0.000000 
-0.034433 0.014901 0.115000 -0.929775 0.368127 0.000000 
-0.034433 0.014900 -0.115000 -0.929775 0.368127 0.000000 
-0.034433 0.014900 -0.115000 -0.904826 0.425781 0.000000 
-0.034433 0.014901 0.115000 -0.904826 0.425781 0.000000 
-0.033429 0.017033 0.115000 -0.904826 0.425781 0.000000 
-0.033429 0.017033 -0.115000 -0.904826 0.425781 0.000000 
-0.033429 0.017033 -0.115000 -0.876305 0.481756 0.000000 
-0.033429 0.017033 0.115000 -0.876305 0.481756 0.000000 
-0.032294 0.019099 0.115000 -0.876305 0.481756 0.000000 
-0.032294 0.019099 -0.115000 -0.876305 0.481756 0.000000 
-0.032294 0.019099 -0.115000 -0.844327 0.535829 -0.000000 
-0.032294 0.019099 0.115000 -0.844327 0.535829 -0.000000 
-0.031031 0.021089 0.115000 -0.844327 0.535829 -0.000000 
-0.031031 0.021089 -0.115000 -0.844327 0.535829 -0.000000 
-0.031031 0.021089 -0.115000 -0.809015 0.587787 -0.000000 
-0.031031 0.021089 0.115000 -0.809015 0.587787 -0.000000 
-0.029645 0.022995 0.115000 -0.809015 0.587787 -0.000000 
-0.029645 0.022995 -0.115000 -0.809015 0.587787 -0.000000 
-0.029645 0.022995 -0.115000 -0.770511 0.637426 -0.000000 
-0.029645 0.022995 0.115000 -0.770511 0.637426 -0.000000 
-0.028143 0.024812 0.115000 -0.770511 0.637426 -0.000000 
-0.028143 0.024811 -0.115000 -0.770511 0.637426 -0.000000 
-0.028143 0.024811 -0.115000 -0.728967 0.684549 -0.000000 
-0.028143 0.024812 0.115000 -0.728967 0.684549 -0.000000 
-0.026529 0.026530 0.115000 -0.728967 0.684549 -0.000000 
-0.026530 0.026530 -0.115000 -0.728967 0.684549 -0.000000 
-0.026530 0.026530 -0.115000 -0.684545 0.728971 0.000000 
-0.026529 0.026530 0.115000 -0.684545 0.728971 0.000000 
-0.024811 0.028143 0.115000 -0.684545 0.728971 0.000000 
-0.024811 0.028143 -0.115000 -0.684545 0.728971 0.000000 
-0.024811 0.028143 -0.115000 -0.637422 0.770515 0.000000 
-0.024811 0.028143 0.115000 -0.637422 0.770515 0.000000 
-0.022995 0.029646 0.115000 -0.637422 0.770515 0.000000 
-0.022995 0.029645 -0.115000 -0.637422 0.770515 0.000000 
-0.022995 0.029645 -0.115000 -0.587783 0.809019 0.000000 
-0.022995 0.029646 0.115000 -0.587783 0.809019 0.000000 
-0.021088 0.031031 0.115000 -0.587783 0.809019 0.000000 
-0.021088 0.031031 -0.115000 -0.587783 0.809019 0.000000 
-0.021088 0.031031 -0.115000 -0.535824 0.844330 0.000000 
-0.021088 0.031031 0.115000 -0.535824 0.844330 0.000000 
-0.019098 0.032294 0.115000 -0.535824 0.844330 0.000000 
-0.019098 0.032294 -0.115000 -0.535824 0.844330 0.000000 
-0.019098 0.032294 -0.115000 -0.481752 0.876308 0.000000 
-0.019098 0.032294 0.115000 -0.481752 0.876308 0.000000 
-0.017033 0.033429 0.115000 -0.481752 0.876308 0.000000 
-0.017033 0.033429 -0.115000 -0.481752 0.876308 0.000000 
-0.017033 0.033429 -0.115000 -0.425777 0.904828 0.000000 
-0.017033 0.033429 0.115000 -0.425777 0.904828 0.000000 
-0.014900 0.034433 0.115000 -0.425777 0.904828 0.000000 
-0.014900 0.034433 -0.115000 -0.425777 0.904828 0.000000 
-0.014900 0.034433 -0.115000 -0.368122 0.929778 0.000000 
-0.014900 0.034433 0.115000 -0.368122 0.929778 0.000000 
-0.012709 0.035300 0.115000 -0.368122 0.929778 0.000000 
-0.012709 0.035300 -0.115000 -0.368122 0.929778 0.000000 
-0.012709 0.035300 -0.115000 -0.309015 0.951057 0.000000 
-0.012709 0.035300 0.115000 -0.309015 0.951057 0.000000 
-0.010467 0.036029 0.115000 -0.309015 0.951057 0.000000 
-0.010467 0.036029 -0.115000 -0.309015 0.951057 0.000000 
-0.010467 0.036029 -0.115000 -0.248686 0.968584 0.000000 
-0.010467 0.036029 0.115000 -0.248686 0.968584 0.000000 
-0.008184 0.036615 0.115000 -0.248686 0.968584 0.000000 
-0.008184 0.036615 -0.115000 -0.248686 0.968584 0.000000 
-0.008184 0.036615 -0.115000 -0.187379 0.982288 0.000000 
-0.008184 0.036615 0.115000 -0.187379 0.982288 0.000000 
-0.005869 0.037057 0.115000 -0.187379 0.982288 0.000000 
-0.005869 0.037057 -0.115000 -0.187379 0.982288 0.000000 
-0.005869 0.037057 -0.115000 -0.125330 0.992115 0.000000 
-0.005869 0.037057 0.115000 -0.125330 0.992115 0.000000 
-0.003531 0.037352 0.115000 -0.125330 0.992115 0.000000 
-0.003531 0.037352 -0.115000 -0.125330 0.992115 0.000000 
-0.003531 0.037352 -0.115000 -0.062788 0.998027 -0.000000 
-0.003531 0.037352 0.115000 -0.062788 0.998027 -0.000000 
-0.001178 0.037500 0.115000 -0.062788 0.998027 -0.000000 
-0.001178 0.037500 -0.115000 -0.062788 0.998027 -0.000000 
-0.001178 0.037500 -0.115000 0.000003 1.000000 -0.000000 
-0.001178 0.037500 0.115000 0.000003 1.000000 -0.000000 
0.001179 0.037500 0.115000 0.000003 1.000000 -0.000000 
0.001179 0.037500 -0.115000 0.000003 1.000000 -0.000000 
0.001179 0.037500 -0.115000 0.062793 0.998027 -0.000000 
0.001179 0.037500 0.115000 0.062793 0.998027 -0.000000 
0.003531 0.037352 0.115000 0.062793 0.998027 -0.000000 
0.003531 0.037352 -0.115000 0.062793 0.998027 -0.000000 
0.003531 0.037352 -0.115000 0.125337 0.992114 -0.000000 
0.003531 0.037352 0.115000 0.125337 0.992114 -0.000000 
0.005869 0.037057 0.115000 0.125337 0.992114 -0.000000 
0.005869 0.037057 -0.115000 0.125337 0.992114 -0.000000 
0.005869 0.037057 -0.115000 0.187384 0.982287 0.000000 
0.005869 0.037057 0.115000 0.187384 0.982287 0.000000 
0.008185 0.036615 0.115000 0.187384 0.982287 0.000000 
0.008184 0.036615 -0.115000 0.187384 0.982287 0.000000 
0.008184 0.036615 -0.115000 0.248693 0.968582 0.000000 
0.008185 0.036615 0.115000 0.248693 0.968582 0.000000 
0.010467 0.036029 0.115000 0.248693 0.968582 0.000000 
0.010467 0.036029 -0.115000 0.248693 0.968582 0.000000 
0.010467 0.036029 -0.115000 0.309020 0.951055 0.000000 
0.010467 0.036029 0.115000 0.309020 0.951055 0.000000 
0.012709 0.035300 0.115000 0.309020 0.951055 0.000000 
0.012709 0.035300 -0.115000 0.309020 0.951055 0.000000 
0.012709 0.035300 -0.115000 0.368127 0.929775 0.000000 
0.012709 0.035300 0.115000 0.368127 0.929775 0.000000 
0.014901 0.034433 0.115000 0.368127 0.929775 0.000000 
0.014900 0.034433 -0.115000 0.368127 0.929775 0.000000 
0.014900 0.034433 -0.115000 0.425783 0.904826 0.000000 
0.014901 0.034433 0.115000 0.425783 0.904826 0.000000 
0.017033 0.033429 0.115000 0.425783 0.904826 0.000000 
0.017033 0.033429 -0.115000 0.425783 0.904826 0.000000 
0.017033 0.033429 -0.115000 0.481756 0.876305 0.000000 
0.017033 0.033429 0.115000 0.481756 0.876305 0.000000 
0.019099 0.032294 0.115000 0.481756 0.876305 0.000000 
0.019099 0.032294 -0.115000 0.481756 0.876305 0.000000 
0.019099 0.032294 -0.115000 0.535830 0.844326 0.000000 
0.019099 0.032294 0.115000 0.535830 0.844326 0.000000 
0.021089 0.031031 0.115000 0.535830 0.844326 0.000000 
0.021089 0.031031 -0.115000 0.535830 0.844326 0.000000 
0.021089 0.031031 -0.115000 0.587788 0.809015 0.000000 
0.021089 0.031031 0.115000 0.587788 0.809015 0.000000 
0.022995 0.029645 0.115000 0.587788 0.809015 0.000000 
0.022995 0.029645 -0.115000 0.587788 0.809015 0.000000 
0.022995 0.029645 -0.115000 0.637427 0.770511 -0.000000 
0.022995 0.029645 0.115000 0.637427 0.770511 -0.000000 
0.024812 0.028143 0.115000 0.637427 0.770511 -0.000000 
0.024812 0.028143 -0.115000 0.637427 0.770511 -0.000000 
0.026530 0.026530 0.115000 0.684549 0.728967 -0.000000 
0.026530 0.026530 -0.115000 0.684549 0.728967 -0.000000 
0.024812 0.028143 -0.115000 0.684549 0.728967 -0.000000 
0.024812 0.028143 0.115000 0.684549 0.728967 -0.000000 
3 0 1 2 
3 3 4 5 
3 0 2 6 
3 3 7 4 
3 0 6 8 
3 3 9 7 
3 0 8 10 
3 3 11 9 
3 0 10 12 
3 3 13 11 
3 0 12 14 
3 3 15 13 
3 0 14 16 
3 3 17 15 
3 0 16 18 
3 3 19 17 
3 0 18 20 
3 3 21 19 
3 0 20 22 
3 3 23 21 
3 0 22 24 
3 3 25 23 
3 0 24 26 
3 3 27 25 
3 0 26 28 
3 3 29 27 
3 0 28 30 
3 3 31 29 
3 0 30 32 
3 3 33 31 
3 0 32 34 
3 3 35 33 
3 0 34 36 
3 3 37 35 
3 0 36 38 
3 3 39 37 
3 0 38 40 
3 3 41 39 
3 0 40 42 
3 3 43 41 
3 0 42 44 
3 3 45 43 
3 0 44 46 
3 3 47 45 
3 0 46 48 
3 3 49 47 
3 0 48 50 
3 3 51 49 
3 0 50 52 
3 3 53 51 
3 0 52 54 
3 3 55 53 
3 0 54 56 
3 3 57 55 
3 0 56 58 
3 3 59 57 
3 0 58 60 
3 3 61 59 
3 0 60 62 
3 3 63 61 
3 0 62 64 
3 3 65 63 
3 0 64 66 
3 3 67 65 
3 0 66 68 
3 3 69 67 
3 0 68 70 
3 3 71 69 
3 0 70 72 
3 3 73 71 
3 0 72 74 
3 3 75 73 
3 0 74 76 
3 3 77 75 
3 0 76 78 
3 3 79 77 
3 0 78 80 
3 3 81 79 
3 0 80 82 
3 3 83 81 
3 0 82 84 
3 3 85 83 
3 0 84 86 
3 3 87 85 
3 0 86 88 
3 3 89 87 
3 0 88 90 
3 3 91 89 
3 0 90 92 
3 3 93 91 
3 0 92 94 
3 3 95 93 
3 0 94 96 
3 3 97 95 
3 0 96 98 
3 3 99 97 
3 0 98 100 
3 3 101 99 
3 0 100 102 
3 3 103 101 
3 0 102 104 
3 3 105 103 
3 0 104 106 
3 3 107 105 
3 0 106 108 
3 3 109 107 
3 0 108 110 
3 3 111 109 
3 0 110 112 
3 3 113 111 
3 0 112 114 
3 3 115 113 
3 0 114 116 
3 3 117 115 
3 0 116 118 
3 3 119 117 
3 0 118 120 
3 3 121 119 
3 0 120 122 
3 3 123 121 
3 0 122 124 
3 3 125 123 
3 0 124 126 
3 3 127 125 
3 0 126 128 
3 3 129 127 
3 0 128 130 
3 3 131 129 
3 0 130 132 
3 3 133 131 
3 0 132 134 
3 3 135 133 
3 0 134 136 
3 3 137 135 
3 0 136 138 
3 3 139 137 
3 0 138 140 
3 3 141 139 
3 0 140 142 
3 3 143 141 
3 0 142 144 
3 3 145 143 
3 0 144 146 
3 3 147 145 
3 0 146 148 
3 3 149 147 
3 0 148 150 
3 3 151 149 
3 0 150 152 
3 3 153 151 
3 0 152 154 
3 3 155 153 
3 0 154 156 
3 3 157 155 
3 0 156 158 
3 3 159 157 
3 0 158 160 
3 3 161 159 
3 0 160 162 
3 3 163 161 
3 0 162 164 
3 3 165 163 
3 0 164 166 
3 3 167 165 
3 0 166 168 
3 3 169 167 
3 0 168 170 
3 3 171 169 
3 0 170 172 
3 3 173 171 
3 0 172 174 
3 3 175 173 
3 0 174 176 
3 3 177 175 
3 0 176 178 
3 3 179 177 
3 0 178 180 
3 3 181 179 
3 0 180 182 
3 3 183 181 
3 0 182 184 
3 3 185 183 
3 0 184 186 
3 3 187 185 
3 0 186 188 
3 3 189 187 
3 0 188 190 
3 3 191 189 
3 0 190 192 
3 3 193 191 
3 0 192 194 
3 3 195 193 
3 0 194 196 
3 3 197 195 
3 0 196 198 
3 3 199 197 
3 0 198 200 
3 3 201 199 
3 200 1 0 
3 3 5 201 
4 202 203 204 205 
4 206 207 208 209 
4 210 211 212 213 
4 214 215 216 217 
4 218 219 220 221 
4 222 223 224 225 
4 226 227 228 229 
4 230 231 232 233 
4 234 235 236 237 
4 238 239 240 241 
4 242 243 244 245 
4 246 247 248 249 
4 250 251 252 253 
4 254 255 256 257 
4 258 259 260 261 
4 262 263 264 265 
4 266 267 268 269 
4 270 271 272 273 
4 274 275 276 277 
4 278 279 280 281 
4 282 283 284 285 
4 286 287 288 289 
4 290 291 292 293 
4 294 295 296 297 
4 298 299 300 301 
4 302 303 304 305 
4 306 307 308 309 
4 310 311 312 313 
4 314 315 316 317 
4 318 319 320 321 
4 322 323 324 325 
4 326 327 328 329 
4 330 331 332 333 
4 334 335 336 337 
4 338 339 340 341 
4 342 343 344 345 
4 346 347 348 349 
4 350 351 352 353 
4 354 355 356 357 
4 358 359 360 361 
4 362 363 364 365 
4 366 367 368 369 
4 370 371 372 373 
4 374 375 376 377 
4 378 379 380 381 
4 382 383 384 385 
4 386 387 388 389 
4 390 391 392 393 
4 394 395 396 397 
4 398 399 400 401 
4 402 403 404 405 
4 406 407 408 409 
4 410 411 412 413 
4 414 415 416 417 
4 418 419 420 421 
4 422 423 424 425 
4 426 427 428 429 
4 430 431 432 433 
4 434 435 436 437 
4 438 439 440 441 
4 442 443 444 445 
4 446 447 448 449 
4 450 451 452 453 
4 454 455 456 457 
4 458 459 460 461 
4 462 463 464 465 
4 466 467 468 469 
4 470 471 472 473 
4 474 475 476 477 
4 478 479 480 481 
4 482 483 484 485 
4 486 487 488 489 
4 490 491 492 493 
4 494 495 496 497 
4 498 499 500 501 
4 502 503 504 505 
4 506 507 508 509 
4 510 511 512 513 
4 514 515 516 517 
4 518 519 520 521 
4 522 523 524 525 
4 526 527 528 529 
4 530 531 532 533 
4 534 535 536 537 
4 538 539 540 541 
4 542 543 544 545 
4 546 547 548 549 
4 550 551 552 553 
4 554 555 556 557 
4 558 559 560 561 
4 562 563 564 565 
4 566 567 568 569 
4 570 571 572 573 
4 574 575 576 577 
4 578 579 580 581 
4 582 583 584 585 
4 586 587 588 589 
4 590 591 592 593 
4 594 595 596 597 
4 598 599 600 601 
