# Blender3D v245 OBJ File: laptop.blend
# www.blender3d.org
mtllib laptop_bottom.mtl
o Cube.001
v 0.306280 -0.006724 0.023690
v -0.306280 -0.006724 0.023690
v -0.295546 -0.002130 0.024929
v 0.295546 -0.002131 0.024929
v -0.294261 0.425421 -0.000208
v 0.294261 0.425420 -0.000208
v 0.294261 0.004161 -0.000208
v -0.294261 0.004161 -0.000208
v -0.295546 0.426429 0.020507
v -0.295546 0.003152 0.020507
v 0.295546 0.003152 0.020507
v 0.295546 0.426429 0.020507
v 0.306280 -0.007840 0.007508
v 0.306281 0.434852 0.007508
v -0.306280 0.434853 0.007508
v -0.306281 -0.007840 0.007508
v 0.306280 -0.007840 0.017822
v 0.306281 0.434853 0.017822
v -0.306280 0.434853 0.017822
v -0.306280 -0.007840 0.017822
vt 0.719682 0.120375 0.0
vt 0.809290 0.120375 0.0
vt 0.809290 0.030767 0.0
vt 0.719682 0.030767 0.0
vt 0.809290 0.030767 0.0
vt 0.719682 0.030767 0.0
vt 0.719682 0.120375 0.0
vt 0.809290 0.120375 0.0
vt 0.719682 0.120375 0.0
vt 0.809290 0.120375 0.0
vt 0.809290 0.030767 0.0
vt 0.719682 0.030767 0.0
vt 0.719682 0.120375 0.0
vt 0.809290 0.120375 0.0
vt 0.809290 0.030767 0.0
vt 0.719682 0.030767 0.0
vt 0.719682 0.120375 0.0
vt 0.809290 0.120375 0.0
vt 0.809290 0.030767 0.0
vt 0.719682 0.030767 0.0
vt 0.719682 0.120375 0.0
vt 0.809290 0.120375 0.0
vt 0.809290 0.030767 0.0
vt 0.719682 0.030767 0.0
vt 0.719682 0.120375 0.0
vt 0.809290 0.120375 0.0
vt 0.809290 0.030767 0.0
vt 0.719682 0.030767 0.0
vt 0.719682 0.120375 0.0
vt 0.809290 0.120375 0.0
vt 0.809290 0.030767 0.0
vt 0.719682 0.030767 0.0
vt 0.719682 0.120375 0.0
vt 0.809290 0.120375 0.0
vt 0.809290 0.030767 0.0
vt 0.719682 0.030767 0.0
vt 0.719682 0.120375 0.0
vt 0.809290 0.120375 0.0
vt 0.809290 0.030767 0.0
vt 0.719682 0.030767 0.0
vt 0.719682 0.120375 0.0
vt 0.809290 0.120375 0.0
vt 0.809290 0.030767 0.0
vt 0.719682 0.030767 0.0
vt 0.719682 0.120375 0.0
vt 0.809290 0.120375 0.0
vt 0.809290 0.030767 0.0
vt 0.719682 0.030767 0.0
vt 0.719682 0.120375 0.0
vt 0.809290 0.120375 0.0
vt 0.809290 0.030767 0.0
vt 0.719682 0.030767 0.0
vt 0.719682 0.120375 0.0
vt 0.809290 0.120375 0.0
vt 0.809290 0.030767 0.0
vt 0.719682 0.030767 0.0
vt 0.719682 0.120375 0.0
vt 0.809290 0.120375 0.0
vt 0.809290 0.030767 0.0
vt 0.719682 0.030767 0.0
vt 0.719682 0.120375 0.0
vt 0.809290 0.120375 0.0
vt 0.809290 0.030767 0.0
vt 0.719682 0.030767 0.0
vt 0.719682 0.120375 0.0
vt 0.809290 0.120375 0.0
vt 0.809290 0.030767 0.0
vt 0.719682 0.030767 0.0
vt 0.999311 0.000845 0.0
vt 0.001051 0.000845 0.0
vt 0.001051 0.472114 0.0
vt 0.999311 0.472114 0.0
vn -0.000000 -0.260622 0.965441
vn -0.000000 -0.982389 0.186849
vn 0.595610 0.744560 0.301463
vn -0.595608 0.744561 0.301463
vn 0.000000 0.641959 0.766739
vn 0.000000 0.000000 -1.000000
vn -0.540225 0.000000 -0.841521
vn 0.000000 0.633182 -0.774003
vn 0.540225 -0.000000 -0.841521
vn -0.000000 -0.540844 -0.841123
vn 0.000000 0.303664 0.952779
vn -0.242632 0.000000 0.970118
vn 0.242632 -0.000000 0.970118
vn -0.000000 -1.000000 -0.000009
vn 1.000000 -0.000000 0.000007
vn 0.000000 1.000000 0.000003
vn -1.000000 0.000000 -0.000001
vn 0.000000 0.000000 1.000000
usemtl Material
s off
f 1/1/1 4/2/1 3/3/1 2/4/1
f 17/5/2 1/6/2 2/7/2 20/8/2
f 1/9/3 17/10/3 11/11/3 4/12/3
f 20/13/4 2/14/4 3/15/4 10/16/4
f 10/17/5 3/18/5 4/19/5 11/20/5
f 8/21/6 5/22/6 6/23/6 7/24/6
f 15/25/7 5/26/7 8/27/7 16/28/7
f 14/29/8 6/30/8 5/31/8 15/32/8
f 13/33/9 7/34/9 6/35/9 14/36/9
f 16/37/10 8/38/10 7/39/10 13/40/10
f 19/41/11 9/42/11 12/43/11 18/44/11
f 20/45/12 10/46/12 9/47/12 19/48/12
f 18/49/13 12/50/13 11/51/13 17/52/13
f 17/53/14 20/54/14 16/55/14 13/56/14
f 18/57/15 17/58/15 13/59/15 14/60/15
f 19/61/16 18/62/16 14/63/16 15/64/16
f 20/65/17 19/66/17 15/67/17 16/68/17
usemtl Material_laptop.png
f 12/69/18 9/70/18 10/71/18 11/72/18
