# Blender3D v245 OBJ File: musli.blend
# www.blender3d.org
mtllib musli.mtl
o Cube
v 0.190000 0.060000 0.001576
v 0.190000 -0.060000 0.001576
v -0.190000 -0.060000 0.001576
v -0.190000 0.060000 0.001576
v 0.190000 0.060000 0.561576
v 0.190000 -0.060000 0.561576
v -0.190000 -0.060000 0.561576
v -0.190000 0.060000 0.561576
vt 0.739002 0.929894 0.0
vt 0.739002 0.988255 0.0
vt 0.680641 0.988255 0.0
vt 0.680641 0.929894 0.0
vt 0.019504 0.991957 0.0
vt 0.744933 0.991957 0.0
vt 0.744934 0.998295 0.0
vt 0.019505 0.998296 0.0
vt 1.000661 0.002313 0.0
vt 1.000661 1.001181 0.0
vt 0.752632 1.001181 0.0
vt 0.752632 0.002313 0.0
vt 0.753182 0.001746 0.0
vt 0.753182 1.000923 0.0
vt 0.005505 1.000923 0.0
vt 0.005505 0.001746 0.0
vt 0.998719 0.003246 0.0
vt 0.998719 1.002114 0.0
vt 0.752661 1.002114 0.0
vt 0.752661 0.003246 0.0
vt 0.001606 1.002491 0.0
vt 0.001606 0.000889 0.0
vt 0.749651 0.000889 0.0
vt 0.749651 1.002491 0.0
vn 0.000000 0.000000 -1.000000
vn 0.000000 0.000000 1.000000
vn 1.000000 -0.000001 0.000000
vn -0.000000 -1.000000 -0.000000
vn -1.000000 0.000001 -0.000000
vn 0.000000 1.000000 0.000000
usemtl Material_musli.png
s off
f 1/1/1 2/2/1 3/3/1 4/4/1
f 5/5/2 8/6/2 7/7/2 6/8/2
f 1/9/3 5/10/3 6/11/3 2/12/3
f 2/13/4 6/14/4 7/15/4 3/16/4
f 3/17/5 7/18/5 8/19/5 4/20/5
f 5/21/6 1/22/6 4/23/6 8/24/6
