ply
format ascii 1.0
comment Created by Blender3D 248 - www.blender.org, source file: jasmin.blend
element vertex 24
property float x
property float y
property float z
property float nx
property float ny
property float nz
property float s
property float t
element face 6
property list uchar uint vertex_indices
end_header
0.037002 0.032001 -0.060002 0.000062 -0.000085 -1.000000 0.836688 0.632632 
0.036996 -0.032002 -0.059996 0.000062 -0.000085 -1.000000 0.999697 0.632417 
-0.036999 -0.031999 -0.060001 0.000062 -0.000085 -1.000000 0.999737 0.386043 
-0.036993 0.032004 -0.060006 0.000062 -0.000085 -1.000000 0.836737 0.386031 
0.036999 0.031999 0.060001 -0.000062 0.000085 1.000000 0.522609 0.632586 
-0.036996 0.032002 0.059996 -0.000062 0.000085 1.000000 0.522719 0.386137 
-0.037002 -0.032001 0.060002 -0.000062 0.000085 1.000000 0.353616 0.385974 
0.036993 -0.032004 0.060006 -0.000062 0.000085 1.000000 0.353628 0.635049 
0.037002 0.032001 -0.060002 1.000000 -0.000095 0.000025 0.037574 0.844954 
0.036999 0.031999 0.060001 1.000000 -0.000095 0.000025 0.353781 0.846299 
0.036993 -0.032004 0.060006 1.000000 -0.000095 0.000025 0.353628 0.635049 
0.036996 -0.032002 -0.059996 1.000000 -0.000095 0.000025 0.037719 0.635257 
0.036996 -0.032002 -0.059996 -0.000034 -1.000000 -0.000013 0.037719 0.635257 
0.036993 -0.032004 0.060006 -0.000034 -1.000000 -0.000013 0.353628 0.635049 
-0.037002 -0.032001 0.060002 -0.000034 -1.000000 -0.000013 0.353616 0.385974 
-0.036999 -0.031999 -0.060001 -0.000034 -1.000000 -0.000013 0.037651 0.385904 
-0.036999 -0.031999 -0.060001 -1.000000 0.000095 -0.000026 0.037651 0.385904 
-0.037002 -0.032001 0.060002 -1.000000 0.000095 -0.000026 0.353616 0.385974 
-0.036996 0.032002 0.059996 -1.000000 0.000095 -0.000026 0.353708 0.175128 
-0.036993 0.032004 -0.060006 -1.000000 0.000095 -0.000026 0.037550 0.174935 
0.036999 0.031999 0.060001 0.000034 1.000000 0.000013 0.522609 0.632586 
0.037002 0.032001 -0.060002 0.000034 1.000000 0.000013 0.836688 0.632632 
-0.036993 0.032004 -0.060006 0.000034 1.000000 0.000013 0.836737 0.386031 
-0.036996 0.032002 0.059996 0.000034 1.000000 0.000013 0.522719 0.386137 
4 0 1 2 3 
4 4 5 6 7 
4 8 9 10 11 
4 12 13 14 15 
4 16 17 18 19 
4 20 21 22 23 
