ply
format ascii 1.0
comment Created by Blender3D 248 - www.blender.org, source file: 
element vertex 150
property float x
property float y
property float z
property float nx
property float ny
property float nz
element face 96
property list uchar uint vertex_indices
end_header
0.000003 0.016002 -0.060003 0.000031 -0.000061 -1.000000 
0.000005 0.032003 -0.060004 0.000031 -0.000061 -1.000000 
0.018503 0.032002 -0.060003 0.000031 -0.000061 -1.000000 
0.018502 0.016001 -0.060002 0.000031 -0.000061 -1.000000 
0.037002 0.032001 -0.060002 0.000031 -0.000092 -1.000000 
0.037000 0.016000 -0.060001 0.000031 -0.000092 -1.000000 
0.036999 -0.000000 -0.059999 0.000031 -0.000092 -1.000000 
0.018500 0.000000 -0.060000 0.000031 -0.000061 -1.000000 
0.000002 0.000001 -0.060001 0.000031 -0.000061 -1.000000 
0.036998 -0.016001 -0.059997 0.000061 -0.000092 -1.000000 
0.018499 -0.016000 -0.059999 0.000061 -0.000061 -1.000000 
0.036996 -0.032002 -0.059996 0.000061 -0.000061 -1.000000 
0.018497 -0.032001 -0.059997 0.000061 -0.000061 -1.000000 
-0.000001 -0.032000 -0.059999 0.000061 -0.000061 -1.000000 
0.000000 -0.016000 -0.060000 0.000061 -0.000061 -1.000000 
-0.018500 -0.032000 -0.060000 0.000061 -0.000061 -1.000000 
-0.018499 -0.015999 -0.060001 0.000061 -0.000061 -1.000000 
-0.036999 -0.031999 -0.060001 0.000061 -0.000061 -1.000000 
-0.036997 -0.015998 -0.060002 0.000061 -0.000061 -1.000000 
-0.036996 0.000002 -0.060004 0.000031 -0.000061 -1.000000 
-0.018497 0.000002 -0.060002 0.000031 -0.000061 -1.000000 
-0.036995 0.016003 -0.060005 0.000031 -0.000061 -1.000000 
-0.018496 0.016002 -0.060004 0.000031 -0.000061 -1.000000 
-0.036993 0.032004 -0.060006 0.000031 -0.000061 -1.000000 
-0.018494 0.032003 -0.060005 0.000031 -0.000061 -1.000000 
0.018497 -0.000002 0.060002 -0.000031 0.000061 1.000000 
0.036996 -0.000002 0.060004 -0.000031 0.000061 1.000000 
0.036997 0.015998 0.060002 -0.000061 0.000061 1.000000 
0.018499 0.015999 0.060001 -0.000061 0.000061 1.000000 
0.036999 0.031999 0.060001 -0.000061 0.000061 1.000000 
0.018500 0.032000 0.060000 -0.000061 0.000061 1.000000 
0.000001 0.032000 0.059999 -0.000061 0.000061 1.000000 
-0.000000 0.016000 0.060000 -0.000061 0.000061 1.000000 
-0.000002 -0.000001 0.060001 -0.000031 0.000061 1.000000 
-0.018497 0.032001 0.059997 -0.000061 0.000061 1.000000 
-0.018499 0.016000 0.059999 -0.000061 0.000061 1.000000 
-0.036996 0.032002 0.059996 -0.000061 0.000092 1.000000 
-0.036998 0.016001 0.059997 -0.000061 0.000092 1.000000 
-0.036999 0.000000 0.059999 -0.000031 0.000092 1.000000 
-0.018500 -0.000000 0.060000 -0.000031 0.000061 1.000000 
-0.037000 -0.016000 0.060001 -0.000031 0.000092 1.000000 
-0.018502 -0.016001 0.060002 -0.000031 0.000061 1.000000 
-0.037002 -0.032001 0.060002 -0.000031 0.000092 1.000000 
-0.018503 -0.032002 0.060003 -0.000031 0.000061 1.000000 
-0.000005 -0.032003 0.060004 -0.000031 0.000061 1.000000 
-0.000003 -0.016002 0.060003 -0.000031 0.000061 1.000000 
0.018494 -0.032003 0.060005 -0.000031 0.000061 1.000000 
0.018496 -0.016002 0.060004 -0.000031 0.000061 1.000000 
0.036993 -0.032004 0.060006 -0.000031 0.000061 1.000000 
0.036995 -0.016003 0.060005 -0.000031 0.000061 1.000000 
0.036998 -0.000001 -0.029998 1.000000 -0.000092 0.000000 
0.036999 -0.000000 -0.059999 1.000000 -0.000092 0.000000 
0.037000 0.016000 -0.060001 1.000000 -0.000092 0.000000 
0.037000 0.016000 -0.030000 1.000000 -0.000092 0.000000 
0.037002 0.032001 -0.060002 1.000000 -0.000092 0.000000 
0.037001 0.032000 -0.030001 1.000000 -0.000092 0.000000 
0.037000 0.032000 -0.000000 1.000000 -0.000092 0.000000 
0.036999 0.015999 0.000001 1.000000 -0.000092 0.000000 
0.036997 -0.000002 0.000002 1.000000 -0.000092 0.000000 
0.037000 0.031999 0.030000 1.000000 -0.000092 0.000000 
0.036998 0.015999 0.030002 1.000000 -0.000092 0.000000 
0.036999 0.031999 0.060001 1.000000 -0.000092 0.000000 
0.036997 0.015998 0.060002 1.000000 -0.000092 0.000000 
0.036996 -0.000002 0.060004 1.000000 -0.000092 0.000000 
0.036997 -0.000002 0.030003 1.000000 -0.000092 0.000000 
0.036995 -0.016003 0.060005 1.000000 -0.000092 0.000000 
0.036995 -0.016003 0.030004 1.000000 -0.000092 0.000000 
0.036993 -0.032004 0.060006 1.000000 -0.000092 0.000000 
0.036994 -0.032003 0.030005 1.000000 -0.000092 0.000000 
0.036995 -0.032003 0.000005 1.000000 -0.000092 0.000000 
0.036996 -0.016002 0.000004 1.000000 -0.000092 0.000000 
0.036995 -0.032003 -0.029996 1.000000 -0.000092 0.000000 
0.036997 -0.016002 -0.029997 1.000000 -0.000092 0.000000 
0.036996 -0.032002 -0.059996 1.000000 -0.000092 0.000000 
0.036998 -0.016001 -0.059997 1.000000 -0.000092 0.000000 
-0.000002 -0.032001 -0.029998 -0.000031 -1.000000 0.000000 
-0.000001 -0.032000 -0.059999 -0.000031 -1.000000 0.000000 
0.018497 -0.032001 -0.059997 -0.000031 -1.000000 0.000000 
0.018497 -0.032002 -0.029997 -0.000031 -1.000000 0.000000 
0.036996 -0.032002 -0.059996 -0.000031 -1.000000 0.000000 
0.036995 -0.032003 -0.029996 -0.000031 -1.000000 0.000000 
0.036995 -0.032003 0.000005 -0.000031 -1.000000 0.000000 
0.018496 -0.032002 0.000004 -0.000031 -1.000000 0.000000 
-0.000003 -0.032002 0.000003 -0.000031 -1.000000 0.000000 
0.036994 -0.032003 0.030005 -0.000031 -1.000000 0.000000 
0.018495 -0.032003 0.030004 -0.000031 -1.000000 0.000000 
0.036993 -0.032004 0.060006 -0.000031 -1.000000 0.000000 
0.018494 -0.032003 0.060005 -0.000031 -1.000000 0.000000 
-0.000005 -0.032003 0.060004 -0.000031 -1.000000 0.000000 
-0.000004 -0.032002 0.030003 -0.000031 -1.000000 0.000000 
-0.018503 -0.032002 0.060003 -0.000031 -1.000000 0.000000 
-0.018502 -0.032001 0.030002 -0.000031 -1.000000 0.000000 
-0.037002 -0.032001 0.060002 -0.000031 -1.000000 0.000000 
-0.037001 -0.032000 0.030001 -0.000031 -1.000000 0.000000 
-0.037000 -0.032000 0.000000 -0.000031 -1.000000 0.000000 
-0.018502 -0.032001 0.000002 -0.000031 -1.000000 0.000000 
-0.037000 -0.031999 -0.030000 -0.000031 -1.000000 0.000000 
-0.018501 -0.032000 -0.029999 -0.000031 -1.000000 0.000000 
-0.036999 -0.031999 -0.060001 -0.000031 -1.000000 0.000000 
-0.018500 -0.032000 -0.060000 -0.000031 -1.000000 0.000000 
-0.036997 0.000002 -0.030003 -1.000000 0.000092 0.000000 
-0.036996 0.000002 -0.060004 -1.000000 0.000092 0.000000 
-0.036997 -0.015998 -0.060002 -1.000000 0.000092 0.000000 
-0.036998 -0.015999 -0.030002 -1.000000 0.000092 0.000000 
-0.036999 -0.031999 -0.060001 -1.000000 0.000092 0.000000 
-0.037000 -0.031999 -0.030000 -1.000000 0.000092 0.000000 
-0.037000 -0.032000 0.000000 -1.000000 0.000092 0.000000 
-0.036999 -0.015999 -0.000001 -1.000000 0.000092 0.000000 
-0.036998 0.000002 -0.000002 -1.000000 0.000092 0.000000 
-0.037001 -0.032000 0.030001 -1.000000 0.000092 0.000000 
-0.037000 -0.016000 0.030000 -1.000000 0.000092 0.000000 
-0.037002 -0.032001 0.060002 -1.000000 0.000092 0.000000 
-0.037000 -0.016000 0.060001 -1.000000 0.000092 0.000000 
-0.036999 0.000000 0.059999 -1.000000 0.000092 0.000000 
-0.036998 0.000001 0.029998 -1.000000 0.000092 0.000000 
-0.036998 0.016001 0.059997 -1.000000 0.000092 0.000000 
-0.036997 0.016002 0.029997 -1.000000 0.000092 0.000000 
-0.036996 0.032002 0.059996 -1.000000 0.000092 0.000000 
-0.036995 0.032003 0.029996 -1.000000 0.000092 0.000000 
-0.036995 0.032003 -0.000005 -1.000000 0.000092 0.000000 
-0.036996 0.016002 -0.000004 -1.000000 0.000092 0.000000 
-0.036994 0.032003 -0.030005 -1.000000 0.000092 0.000000 
-0.036995 0.016003 -0.030004 -1.000000 0.000092 0.000000 
-0.036993 0.032004 -0.060006 -1.000000 0.000092 0.000000 
-0.036995 0.016003 -0.060005 -1.000000 0.000092 0.000000 
0.000002 0.032001 0.029998 0.000031 1.000000 0.000000 
0.000001 0.032000 0.059999 0.000031 1.000000 0.000000 
0.018500 0.032000 0.060000 0.000031 1.000000 0.000000 
0.018501 0.032000 0.029999 0.000031 1.000000 0.000000 
0.036999 0.031999 0.060001 0.000031 1.000000 0.000000 
0.037000 0.031999 0.030000 0.000031 1.000000 0.000000 
0.037000 0.032000 -0.000000 0.000031 1.000000 0.000000 
0.018502 0.032001 -0.000002 0.000031 1.000000 0.000000 
0.000003 0.032001 -0.000003 0.000031 1.000000 0.000000 
0.037001 0.032000 -0.030001 0.000031 1.000000 0.000000 
0.018503 0.032001 -0.030002 0.000031 1.000000 0.000000 
0.037002 0.032001 -0.060002 0.000031 1.000000 0.000000 
0.018503 0.032002 -0.060003 0.000031 1.000000 0.000000 
0.000005 0.032003 -0.060004 0.000031 1.000000 0.000000 
0.000004 0.032002 -0.030003 0.000031 1.000000 0.000000 
-0.018494 0.032003 -0.060005 0.000031 1.000000 0.000000 
-0.018495 0.032003 -0.030004 0.000031 1.000000 0.000000 
-0.036993 0.032004 -0.060006 0.000031 1.000000 0.000000 
-0.036994 0.032003 -0.030005 0.000031 1.000000 0.000000 
-0.036995 0.032003 -0.000005 0.000031 1.000000 0.000000 
-0.018496 0.032002 -0.000004 0.000031 1.000000 0.000000 
-0.036995 0.032003 0.029996 0.000031 1.000000 0.000000 
-0.018497 0.032002 0.029997 0.000031 1.000000 0.000000 
-0.036996 0.032002 0.059996 0.000031 1.000000 0.000000 
-0.018497 0.032001 0.059997 0.000031 1.000000 0.000000 
4 0 1 2 3 
4 2 4 5 3 
4 5 6 7 3 
4 7 8 0 3 
4 7 6 9 10 
4 9 11 12 10 
4 12 13 14 10 
4 14 8 7 10 
4 14 13 15 16 
4 15 17 18 16 
4 18 19 20 16 
4 20 8 14 16 
4 20 19 21 22 
4 21 23 24 22 
4 24 1 0 22 
4 0 8 20 22 
4 25 26 27 28 
4 27 29 30 28 
4 30 31 32 28 
4 32 33 25 28 
4 32 31 34 35 
4 34 36 37 35 
4 37 38 39 35 
4 39 33 32 35 
4 39 38 40 41 
4 40 42 43 41 
4 43 44 45 41 
4 45 33 39 41 
4 45 44 46 47 
4 46 48 49 47 
4 49 26 25 47 
4 25 33 45 47 
4 50 51 52 53 
4 52 54 55 53 
4 55 56 57 53 
4 57 58 50 53 
4 57 56 59 60 
4 59 61 62 60 
4 62 63 64 60 
4 64 58 57 60 
4 64 63 65 66 
4 65 67 68 66 
4 68 69 70 66 
4 70 58 64 66 
4 70 69 71 72 
4 71 73 74 72 
4 74 51 50 72 
4 50 58 70 72 
4 75 76 77 78 
4 77 79 80 78 
4 80 81 82 78 
4 82 83 75 78 
4 82 81 84 85 
4 84 86 87 85 
4 87 88 89 85 
4 89 83 82 85 
4 89 88 90 91 
4 90 92 93 91 
4 93 94 95 91 
4 95 83 89 91 
4 95 94 96 97 
4 96 98 99 97 
4 99 76 75 97 
4 75 83 95 97 
4 100 101 102 103 
4 102 104 105 103 
4 105 106 107 103 
4 107 108 100 103 
4 107 106 109 110 
4 109 111 112 110 
4 112 113 114 110 
4 114 108 107 110 
4 114 113 115 116 
4 115 117 118 116 
4 118 119 120 116 
4 120 108 114 116 
4 120 119 121 122 
4 121 123 124 122 
4 124 101 100 122 
4 100 108 120 122 
4 125 126 127 128 
4 127 129 130 128 
4 130 131 132 128 
4 132 133 125 128 
4 132 131 134 135 
4 134 136 137 135 
4 137 138 139 135 
4 139 133 132 135 
4 139 138 140 141 
4 140 142 143 141 
4 143 144 145 141 
4 145 133 139 141 
4 145 144 146 147 
4 146 148 149 147 
4 149 126 125 147 
4 125 133 145 147 
