ply
format ascii 1.0
obj_info cereals-toppas-00000.jpg
obj_info cereals-toppas-00001.jpg
obj_info cereals-toppas-00002.jpg
obj_info cereals-toppas-00003.jpg
obj_info cereals-toppas-00004.jpg
element vertex 24
property float x
property float y
property float z
property float nx
property float ny
property float nz
property float s
property float t
element face 6
property list uchar uint vertex_indices
element pass 5
property list uchar uint face_indices
property float m0
property float m1
property float m2
property float m3
property float m4
property float m5
property float m6
property float m7
property float m8
property float m9
property float m10
property float m11
property float m12
property float m13
property float m14
property float m15
property float x
property float y
property float w
property float h
property uchar tex_index
end_header
0.073000 0.031000 -0.115500 0.000000 0.000000 -1.000000 0.000000 0.000000
0.073000 -0.031000 -0.115500 0.000000 0.000000 -1.000000 0.000000 0.000000
-0.073000 -0.031000 -0.115500 0.000000 0.000000 -1.000000 0.000000 0.000000
-0.073000 0.031000 -0.115500 0.000000 0.000000 -1.000000 0.000000 0.000000
0.073000 0.031000 0.115500 0.000000 -0.000000 1.000000 0.000000 0.055195
-0.073000 0.031000 0.115500 0.000000 -0.000000 1.000000 0.999740 0.000000
-0.073000 -0.031000 0.115500 0.000000 -0.000000 1.000000 1.000000 0.947153
0.073000 -0.031000 0.115500 0.000000 -0.000000 1.000000 0.037406 1.000000
0.073000 0.031000 -0.115500 1.000000 -0.000000 0.000000 0.848907 0.000000
0.073000 0.031000 0.115500 1.000000 -0.000000 0.000000 1.000000 0.985307
0.073000 -0.031000 0.115500 1.000000 -0.000000 0.000000 0.000000 1.000000
0.073000 -0.031000 -0.115500 1.000000 -0.000000 0.000000 0.037239 0.010508
0.073000 -0.031000 -0.115500 -0.000000 -1.000000 -0.000000 1.000000 0.157001
0.073000 -0.031000 0.115500 -0.000000 -1.000000 -0.000000 0.978715 1.000000
-0.073000 -0.031000 0.115500 -0.000000 -1.000000 -0.000000 0.000000 0.833814
-0.073000 -0.031000 -0.115500 -0.000000 -1.000000 -0.000000 0.195962 0.000000
-0.073000 -0.031000 -0.115500 -1.000000 0.000000 -0.000000 0.783604 0.000000
-0.073000 -0.031000 0.115500 -1.000000 0.000000 -0.000000 1.000000 0.925921
-0.073000 0.031000 0.115500 -1.000000 0.000000 -0.000000 0.033437 1.000000
-0.073000 0.031000 -0.115500 -1.000000 0.000000 -0.000000 0.000000 0.068781
0.073000 0.031000 0.115500 0.000000 1.000000 0.000000 0.000000 0.966940
0.073000 0.031000 -0.115500 0.000000 1.000000 0.000000 0.153366 0.000000
-0.073000 0.031000 -0.115500 0.000000 1.000000 0.000000 0.968673 0.031003
-0.073000 0.031000 0.115500 0.000000 1.000000 0.000000 1.000000 1.000000
4 0 1 2 3
4 4 5 6 7
4 8 9 10 11
4 12 13 14 15
4 16 17 18 19
4 20 21 22 23
1 1 -2.503139 0.071295 0.001640 0.001560 -0.035870 -3.007153 -0.458845 -0.436463 0.048326 1.463499 -0.945861 -0.899721 -0.132147 -0.040556 0.655426 0.818576 0.278673 0.521435 0.260660 0.134342 0
1 5 -2.500272 -0.125507 -0.026806 -0.025499 0.134026 -2.376313 -0.737501 -0.701526 0.002049 2.351014 -0.748710 -0.712188 -0.126611 0.082136 0.668981 0.831469 0.290009 0.347080 0.251330 0.351168 1
1 2 -0.001126 -2.376883 -0.738745 -0.702708 2.501143 -0.110699 0.021209 0.020175 0.116677 2.351181 -0.747663 -0.711192 -0.082476 0.195320 0.679097 0.841092 0.396314 0.354918 0.109654 0.354975 2
1 3 2.393565 0.820983 0.156236 0.148615 -0.714817 2.173424 0.743549 0.707278 -0.170918 2.406677 -0.726581 -0.691138 -0.033894 0.245175 0.688594 0.850126 0.360204 0.410774 0.239231 0.428851 3
1 4 0.602476 2.241333 0.734140 0.698329 -2.422340 0.749462 0.136327 0.129677 0.196516 2.367406 -0.740032 -0.703933 -0.072993 0.307745 0.671867 0.834215 0.376368 0.411367 0.109888 0.400833 4
