<?xml version="1.0" encoding="UTF-8" standalone="no"?>
<!-- Created with Inkscape (http://www.inkscape.org/) -->

<svg
   xmlns:dc="http://purl.org/dc/elements/1.1/"
   xmlns:cc="http://creativecommons.org/ns#"
   xmlns:rdf="http://www.w3.org/1999/02/22-rdf-syntax-ns#"
   xmlns:svg="http://www.w3.org/2000/svg"
   xmlns="http://www.w3.org/2000/svg"
   xmlns:sodipodi="http://sodipodi.sourceforge.net/DTD/sodipodi-0.dtd"
   xmlns:inkscape="http://www.inkscape.org/namespaces/inkscape"
   width="210mm"
   height="297mm"
   id="svg2"
   version="1.1"
   inkscape:version="0.47 r22583"
   sodipodi:docname="circPattern.svg">
  <defs
     id="defs4">
    <inkscape:perspective
       sodipodi:type="inkscape:persp3d"
       inkscape:vp_x="0 : 526.18109 : 1"
       inkscape:vp_y="0 : 1000 : 0"
       inkscape:vp_z="744.09448 : 526.18109 : 1"
       inkscape:persp3d-origin="372.04724 : 350.78739 : 1"
       id="perspective10" />
    <inkscape:perspective
       id="perspective3598"
       inkscape:persp3d-origin="0.5 : 0.33333333 : 1"
       inkscape:vp_z="1 : 0.5 : 1"
       inkscape:vp_y="0 : 1000 : 0"
       inkscape:vp_x="0 : 0.5 : 1"
       sodipodi:type="inkscape:persp3d" />
    <inkscape:perspective
       id="perspective3598-7"
       inkscape:persp3d-origin="0.5 : 0.33333333 : 1"
       inkscape:vp_z="1 : 0.5 : 1"
       inkscape:vp_y="0 : 1000 : 0"
       inkscape:vp_x="0 : 0.5 : 1"
       sodipodi:type="inkscape:persp3d" />
    <inkscape:perspective
       id="perspective3598-8"
       inkscape:persp3d-origin="0.5 : 0.33333333 : 1"
       inkscape:vp_z="1 : 0.5 : 1"
       inkscape:vp_y="0 : 1000 : 0"
       inkscape:vp_x="0 : 0.5 : 1"
       sodipodi:type="inkscape:persp3d" />
    <inkscape:perspective
       id="perspective3638"
       inkscape:persp3d-origin="0.5 : 0.33333333 : 1"
       inkscape:vp_z="1 : 0.5 : 1"
       inkscape:vp_y="0 : 1000 : 0"
       inkscape:vp_x="0 : 0.5 : 1"
       sodipodi:type="inkscape:persp3d" />
    <inkscape:perspective
       id="perspective3660"
       inkscape:persp3d-origin="0.5 : 0.33333333 : 1"
       inkscape:vp_z="1 : 0.5 : 1"
       inkscape:vp_y="0 : 1000 : 0"
       inkscape:vp_x="0 : 0.5 : 1"
       sodipodi:type="inkscape:persp3d" />
    <inkscape:perspective
       id="perspective3660-7"
       inkscape:persp3d-origin="0.5 : 0.33333333 : 1"
       inkscape:vp_z="1 : 0.5 : 1"
       inkscape:vp_y="0 : 1000 : 0"
       inkscape:vp_x="0 : 0.5 : 1"
       sodipodi:type="inkscape:persp3d" />
    <inkscape:perspective
       id="perspective3660-0"
       inkscape:persp3d-origin="0.5 : 0.33333333 : 1"
       inkscape:vp_z="1 : 0.5 : 1"
       inkscape:vp_y="0 : 1000 : 0"
       inkscape:vp_x="0 : 0.5 : 1"
       sodipodi:type="inkscape:persp3d" />
    <inkscape:perspective
       id="perspective3700"
       inkscape:persp3d-origin="0.5 : 0.33333333 : 1"
       inkscape:vp_z="1 : 0.5 : 1"
       inkscape:vp_y="0 : 1000 : 0"
       inkscape:vp_x="0 : 0.5 : 1"
       sodipodi:type="inkscape:persp3d" />
    <inkscape:perspective
       id="perspective3726"
       inkscape:persp3d-origin="0.5 : 0.33333333 : 1"
       inkscape:vp_z="1 : 0.5 : 1"
       inkscape:vp_y="0 : 1000 : 0"
       inkscape:vp_x="0 : 0.5 : 1"
       sodipodi:type="inkscape:persp3d" />
    <inkscape:perspective
       id="perspective3754"
       inkscape:persp3d-origin="0.5 : 0.33333333 : 1"
       inkscape:vp_z="1 : 0.5 : 1"
       inkscape:vp_y="0 : 1000 : 0"
       inkscape:vp_x="0 : 0.5 : 1"
       sodipodi:type="inkscape:persp3d" />
    <inkscape:perspective
       id="perspective3782"
       inkscape:persp3d-origin="0.5 : 0.33333333 : 1"
       inkscape:vp_z="1 : 0.5 : 1"
       inkscape:vp_y="0 : 1000 : 0"
       inkscape:vp_x="0 : 0.5 : 1"
       sodipodi:type="inkscape:persp3d" />
    <inkscape:perspective
       id="perspective3822"
       inkscape:persp3d-origin="0.5 : 0.33333333 : 1"
       inkscape:vp_z="1 : 0.5 : 1"
       inkscape:vp_y="0 : 1000 : 0"
       inkscape:vp_x="0 : 0.5 : 1"
       sodipodi:type="inkscape:persp3d" />
    <inkscape:perspective
       id="perspective3850"
       inkscape:persp3d-origin="0.5 : 0.33333333 : 1"
       inkscape:vp_z="1 : 0.5 : 1"
       inkscape:vp_y="0 : 1000 : 0"
       inkscape:vp_x="0 : 0.5 : 1"
       sodipodi:type="inkscape:persp3d" />
    <inkscape:perspective
       id="perspective3898"
       inkscape:persp3d-origin="0.5 : 0.33333333 : 1"
       inkscape:vp_z="1 : 0.5 : 1"
       inkscape:vp_y="0 : 1000 : 0"
       inkscape:vp_x="0 : 0.5 : 1"
       sodipodi:type="inkscape:persp3d" />
    <inkscape:perspective
       id="perspective3920"
       inkscape:persp3d-origin="0.5 : 0.33333333 : 1"
       inkscape:vp_z="1 : 0.5 : 1"
       inkscape:vp_y="0 : 1000 : 0"
       inkscape:vp_x="0 : 0.5 : 1"
       sodipodi:type="inkscape:persp3d" />
    <inkscape:perspective
       id="perspective3920-1"
       inkscape:persp3d-origin="0.5 : 0.33333333 : 1"
       inkscape:vp_z="1 : 0.5 : 1"
       inkscape:vp_y="0 : 1000 : 0"
       inkscape:vp_x="0 : 0.5 : 1"
       sodipodi:type="inkscape:persp3d" />
    <inkscape:perspective
       id="perspective3920-2"
       inkscape:persp3d-origin="0.5 : 0.33333333 : 1"
       inkscape:vp_z="1 : 0.5 : 1"
       inkscape:vp_y="0 : 1000 : 0"
       inkscape:vp_x="0 : 0.5 : 1"
       sodipodi:type="inkscape:persp3d" />
    <inkscape:perspective
       id="perspective3920-28"
       inkscape:persp3d-origin="0.5 : 0.33333333 : 1"
       inkscape:vp_z="1 : 0.5 : 1"
       inkscape:vp_y="0 : 1000 : 0"
       inkscape:vp_x="0 : 0.5 : 1"
       sodipodi:type="inkscape:persp3d" />
    <inkscape:perspective
       id="perspective3969"
       inkscape:persp3d-origin="0.5 : 0.33333333 : 1"
       inkscape:vp_z="1 : 0.5 : 1"
       inkscape:vp_y="0 : 1000 : 0"
       inkscape:vp_x="0 : 0.5 : 1"
       sodipodi:type="inkscape:persp3d" />
    <inkscape:perspective
       id="perspective3991"
       inkscape:persp3d-origin="0.5 : 0.33333333 : 1"
       inkscape:vp_z="1 : 0.5 : 1"
       inkscape:vp_y="0 : 1000 : 0"
       inkscape:vp_x="0 : 0.5 : 1"
       sodipodi:type="inkscape:persp3d" />
    <inkscape:perspective
       id="perspective4013"
       inkscape:persp3d-origin="0.5 : 0.33333333 : 1"
       inkscape:vp_z="1 : 0.5 : 1"
       inkscape:vp_y="0 : 1000 : 0"
       inkscape:vp_x="0 : 0.5 : 1"
       sodipodi:type="inkscape:persp3d" />
    <inkscape:perspective
       id="perspective4035"
       inkscape:persp3d-origin="0.5 : 0.33333333 : 1"
       inkscape:vp_z="1 : 0.5 : 1"
       inkscape:vp_y="0 : 1000 : 0"
       inkscape:vp_x="0 : 0.5 : 1"
       sodipodi:type="inkscape:persp3d" />
    <inkscape:perspective
       id="perspective4057"
       inkscape:persp3d-origin="0.5 : 0.33333333 : 1"
       inkscape:vp_z="1 : 0.5 : 1"
       inkscape:vp_y="0 : 1000 : 0"
       inkscape:vp_x="0 : 0.5 : 1"
       sodipodi:type="inkscape:persp3d" />
    <inkscape:perspective
       id="perspective4079"
       inkscape:persp3d-origin="0.5 : 0.33333333 : 1"
       inkscape:vp_z="1 : 0.5 : 1"
       inkscape:vp_y="0 : 1000 : 0"
       inkscape:vp_x="0 : 0.5 : 1"
       sodipodi:type="inkscape:persp3d" />
    <inkscape:perspective
       id="perspective4101"
       inkscape:persp3d-origin="0.5 : 0.33333333 : 1"
       inkscape:vp_z="1 : 0.5 : 1"
       inkscape:vp_y="0 : 1000 : 0"
       inkscape:vp_x="0 : 0.5 : 1"
       sodipodi:type="inkscape:persp3d" />
    <inkscape:perspective
       id="perspective4134"
       inkscape:persp3d-origin="0.5 : 0.33333333 : 1"
       inkscape:vp_z="1 : 0.5 : 1"
       inkscape:vp_y="0 : 1000 : 0"
       inkscape:vp_x="0 : 0.5 : 1"
       sodipodi:type="inkscape:persp3d" />
    <inkscape:perspective
       id="perspective4174"
       inkscape:persp3d-origin="0.5 : 0.33333333 : 1"
       inkscape:vp_z="1 : 0.5 : 1"
       inkscape:vp_y="0 : 1000 : 0"
       inkscape:vp_x="0 : 0.5 : 1"
       sodipodi:type="inkscape:persp3d" />
    <inkscape:perspective
       id="perspective4233"
       inkscape:persp3d-origin="0.5 : 0.33333333 : 1"
       inkscape:vp_z="1 : 0.5 : 1"
       inkscape:vp_y="0 : 1000 : 0"
       inkscape:vp_x="0 : 0.5 : 1"
       sodipodi:type="inkscape:persp3d" />
    <inkscape:perspective
       id="perspective4273"
       inkscape:persp3d-origin="0.5 : 0.33333333 : 1"
       inkscape:vp_z="1 : 0.5 : 1"
       inkscape:vp_y="0 : 1000 : 0"
       inkscape:vp_x="0 : 0.5 : 1"
       sodipodi:type="inkscape:persp3d" />
    <inkscape:perspective
       id="perspective4313"
       inkscape:persp3d-origin="0.5 : 0.33333333 : 1"
       inkscape:vp_z="1 : 0.5 : 1"
       inkscape:vp_y="0 : 1000 : 0"
       inkscape:vp_x="0 : 0.5 : 1"
       sodipodi:type="inkscape:persp3d" />
    <inkscape:perspective
       id="perspective4353"
       inkscape:persp3d-origin="0.5 : 0.33333333 : 1"
       inkscape:vp_z="1 : 0.5 : 1"
       inkscape:vp_y="0 : 1000 : 0"
       inkscape:vp_x="0 : 0.5 : 1"
       sodipodi:type="inkscape:persp3d" />
    <inkscape:perspective
       id="perspective4393"
       inkscape:persp3d-origin="0.5 : 0.33333333 : 1"
       inkscape:vp_z="1 : 0.5 : 1"
       inkscape:vp_y="0 : 1000 : 0"
       inkscape:vp_x="0 : 0.5 : 1"
       sodipodi:type="inkscape:persp3d" />
    <inkscape:perspective
       id="perspective4433"
       inkscape:persp3d-origin="0.5 : 0.33333333 : 1"
       inkscape:vp_z="1 : 0.5 : 1"
       inkscape:vp_y="0 : 1000 : 0"
       inkscape:vp_x="0 : 0.5 : 1"
       sodipodi:type="inkscape:persp3d" />
    <inkscape:perspective
       id="perspective3815"
       inkscape:persp3d-origin="0.5 : 0.33333333 : 1"
       inkscape:vp_z="1 : 0.5 : 1"
       inkscape:vp_y="0 : 1000 : 0"
       inkscape:vp_x="0 : 0.5 : 1"
       sodipodi:type="inkscape:persp3d" />
    <inkscape:perspective
       id="perspective4220"
       inkscape:persp3d-origin="0.5 : 0.33333333 : 1"
       inkscape:vp_z="1 : 0.5 : 1"
       inkscape:vp_y="0 : 1000 : 0"
       inkscape:vp_x="0 : 0.5 : 1"
       sodipodi:type="inkscape:persp3d" />
    <inkscape:perspective
       id="perspective4263"
       inkscape:persp3d-origin="0.5 : 0.33333333 : 1"
       inkscape:vp_z="1 : 0.5 : 1"
       inkscape:vp_y="0 : 1000 : 0"
       inkscape:vp_x="0 : 0.5 : 1"
       sodipodi:type="inkscape:persp3d" />
    <inkscape:perspective
       id="perspective4285"
       inkscape:persp3d-origin="0.5 : 0.33333333 : 1"
       inkscape:vp_z="1 : 0.5 : 1"
       inkscape:vp_y="0 : 1000 : 0"
       inkscape:vp_x="0 : 0.5 : 1"
       sodipodi:type="inkscape:persp3d" />
  </defs>
  <sodipodi:namedview
     id="base"
     pagecolor="#ffffff"
     bordercolor="#666666"
     borderopacity="1.0"
     inkscape:pageopacity="0.0"
     inkscape:pageshadow="2"
     inkscape:zoom="0.70710678"
     inkscape:cx="482.60294"
     inkscape:cy="440.31332"
     inkscape:document-units="px"
     inkscape:current-layer="layer1"
     showgrid="false"
     inkscape:window-width="1440"
     inkscape:window-height="825"
     inkscape:window-x="0"
     inkscape:window-y="24"
     inkscape:window-maximized="1" />
  <metadata
     id="metadata7">
    <rdf:RDF>
      <cc:Work
         rdf:about="">
        <dc:format>image/svg+xml</dc:format>
        <dc:type
           rdf:resource="http://purl.org/dc/dcmitype/StillImage" />
        <dc:title></dc:title>
      </cc:Work>
    </rdf:RDF>
  </metadata>
  <g
     inkscape:label="Ebene 1"
     inkscape:groupmode="layer"
     id="layer1">
    <g
       id="g4299"
       transform="matrix(1.666295,0,0,1.6662951,-1073.3918,-460.66879)">
      <path
         transform="matrix(0.96987675,0,0,1.0549537,116.85548,-25.780412)"
         d="m 839.6893,646.30609 c 0,16.69491 -14.72108,30.22882 -32.88046,30.22882 -18.15938,0 -32.88047,-13.53391 -32.88047,-30.22882 0,-16.69491 14.72109,-30.22881 32.88047,-30.22881 18.15938,0 32.88046,13.5339 32.88046,30.22881 z"
         sodipodi:ry="30.228815"
         sodipodi:rx="32.880466"
         sodipodi:cy="646.30609"
         sodipodi:cx="806.80884"
         id="path3302"
         style="fill:#000000;fill-opacity:1;stroke:none"
         sodipodi:type="arc" />
      <path
         id="path3320"
         style="fill:#ffffff;fill-opacity:1;fill-rule:nonzero;stroke:none"
         d="m 926.96436,640.08384 c 2.79875,4.8475 4.27125,10.3475 4.27125,15.945 l -10.62875,0 c 0,-3.7325 -0.9825,-7.39875 -2.84875,-10.63" />
      <path
         id="path3322"
         style="fill:#ffffff;fill-opacity:1;fill-rule:nonzero;stroke:none"
         d="m 883.40186,628.41134 c 4.8475,-2.79875 10.34625,-4.2725 15.945,-4.2725 5.5975,0 11.09625,1.47375 15.945,4.2725 l -5.315,9.20625 c -3.2325,-1.86625 -6.89875,-2.84875 -10.63,-2.84875 -3.7325,0 -7.39875,0.9825 -10.63,2.84875" />
      <path
         id="path3324"
         style="fill:#ffffff;fill-opacity:1;fill-rule:nonzero;stroke:none"
         d="m 899.34686,687.91884 c -17.60375,0 -31.89,-14.2875 -31.89,-31.89 l 10.63,0 c 0,11.735 9.52375,21.26 21.26,21.26" />
      <path
         id="path3326"
         style="fill:#ffffff;fill-opacity:1;fill-rule:nonzero;stroke:none"
         d="m 909.99061,656.04259 c 0,5.8675 -4.7625,10.63 -10.63,10.63 -5.8675,0 -10.63,-4.7625 -10.63,-10.63 0,-5.8675 4.7625,-10.63 10.63,-10.63 5.8675,0 10.63,4.7625 10.63,10.63" />
    </g>
    <g
       id="g4306"
       transform="matrix(1.6663278,0,0,1.6666543,-1321.401,-567.21511)">
      <path
         transform="matrix(0.96987675,0,0,1.0549537,201.86797,-25.780412)"
         d="m 839.6893,646.30609 c 0,16.69491 -14.72108,30.22882 -32.88046,30.22882 -18.15938,0 -32.88047,-13.53391 -32.88047,-30.22882 0,-16.69491 14.72109,-30.22881 32.88047,-30.22881 18.15938,0 32.88046,13.5339 32.88046,30.22881 z"
         sodipodi:ry="30.228815"
         sodipodi:rx="32.880466"
         sodipodi:cy="646.30609"
         sodipodi:cx="806.80884"
         id="path3302-8"
         style="fill:#000000;fill-opacity:1;stroke:none"
         sodipodi:type="arc" />
      <path
         id="path3332"
         style="fill:#ffffff;fill-opacity:1;fill-rule:nonzero;stroke:none"
         d="m 1000.3306,628.41134 c 9.8663,5.69625 15.945,16.22375 15.945,27.6175 l -10.63,0 c 0,-7.595 -4.0525,-14.61375 -10.63,-18.41125" />
      <path
         id="path3334"
         style="fill:#ffffff;fill-opacity:1;fill-rule:nonzero;stroke:none"
         d="m 956.76811,640.08384 c 2.79875,-4.8475 6.825,-8.87375 11.6725,-11.6725 l 5.31499,9.20625 c -3.23124,1.865 -5.91499,4.54875 -7.78124,7.78125" />
      <path
         id="path3336"
         style="fill:#ffffff;fill-opacity:1;fill-rule:nonzero;stroke:none"
         d="m 984.3856,687.91884 c -17.60249,0 -31.88999,-14.2875 -31.88999,-31.89 l 10.63,0 c 0,11.735 9.525,21.26 21.25999,21.26" />
      <path
         id="path3338"
         style="fill:#ffffff;fill-opacity:1;fill-rule:nonzero;stroke:none"
         d="m 995.0031,656.04259 c 0,5.8675 -4.7625,10.63 -10.63,10.63 -5.8675,0 -10.63,-4.7625 -10.63,-10.63 0,-5.8675 4.7625,-10.63 10.63,-10.63 5.8675,0 10.63,4.7625 10.63,10.63" />
    </g>
    <path
       transform="matrix(2.8346457,0,0,2.9180175,-166.02925,273.34102)"
       d="m 183.57143,123.07647 a 12.5,12.142858 0 1 1 -25,0 12.5,12.142858 0 1 1 25,0 z"
       sodipodi:ry="12.142858"
       sodipodi:rx="12.5"
       sodipodi:cy="123.07647"
       sodipodi:cx="171.07143"
       id="path4606"
       style="fill:#000000;fill-opacity:1;stroke:none"
       sodipodi:type="arc" />
    <path
       transform="matrix(1.4173228,0,0,1.4590088,76.434198,452.91066)"
       d="m 183.57143,123.07647 a 12.5,12.142858 0 1 1 -25,0 12.5,12.142858 0 1 1 25,0 z"
       sodipodi:ry="12.142858"
       sodipodi:rx="12.5"
       sodipodi:cy="123.07647"
       sodipodi:cx="171.07143"
       id="path4608"
       style="fill:#ffffff;fill-opacity:1;stroke:none"
       sodipodi:type="arc" />
    <path
       sodipodi:type="arc"
       style="fill:#000000;fill-opacity:1;stroke:none"
       id="path2816-4-6-2-8"
       sodipodi:cx="171.07143"
       sodipodi:cy="123.07647"
       sodipodi:rx="12.5"
       sodipodi:ry="12.142858"
       d="m 183.57143,123.07647 a 12.5,12.142858 0 1 1 -25,0 12.5,12.142858 0 1 1 25,0 z"
       transform="matrix(2.1259843,0,0,2.1885131,61.50168,256.82663)" />
    <path
       transform="matrix(2.1259843,0,0,2.1885131,167.80089,256.82663)"
       d="m 183.57143,123.07647 a 12.5,12.142858 0 1 1 -25,0 12.5,12.142858 0 1 1 25,0 z"
       sodipodi:ry="12.142858"
       sodipodi:rx="12.5"
       sodipodi:cy="123.07647"
       sodipodi:cx="171.07143"
       id="path4648"
       style="fill:#000000;fill-opacity:1;stroke:none"
       sodipodi:type="arc" />
    <path
       sodipodi:type="arc"
       style="fill:#000000;fill-opacity:1;stroke:none"
       id="path4650"
       sodipodi:cx="171.07143"
       sodipodi:cy="123.07647"
       sodipodi:rx="12.5"
       sodipodi:ry="12.142858"
       d="m 183.57143,123.07647 a 12.5,12.142858 0 1 1 -25,0 12.5,12.142858 0 1 1 25,0 z"
       transform="matrix(2.1259843,0,0,2.1885131,274.1001,256.82663)" />
    <path
       sodipodi:type="arc"
       style="fill:#000000;fill-opacity:1;stroke:none"
       id="path4656"
       sodipodi:cx="171.07143"
       sodipodi:cy="123.07647"
       sodipodi:rx="12.5"
       sodipodi:ry="12.142858"
       d="m 183.57143,123.07647 a 12.5,12.142858 0 1 1 -25,0 12.5,12.142858 0 1 1 25,0 z"
       transform="matrix(2.1259843,0,0,2.1885131,-151.09674,256.82663)" />
    <path
       transform="matrix(2.1259843,0,0,2.1885131,-257.39595,256.82663)"
       d="m 183.57143,123.07647 a 12.5,12.142858 0 1 1 -25,0 12.5,12.142858 0 1 1 25,0 z"
       sodipodi:ry="12.142858"
       sodipodi:rx="12.5"
       sodipodi:cy="123.07647"
       sodipodi:cx="171.07143"
       id="path4658"
       style="fill:#000000;fill-opacity:1;stroke:none"
       sodipodi:type="arc" />
    <g
       id="g4670"
       transform="translate(-4.7621301e-7,-53.149604)">
      <path
         sodipodi:type="arc"
         style="fill:#000000;fill-opacity:1;stroke:none"
         id="path4672"
         sodipodi:cx="171.07143"
         sodipodi:cy="123.07647"
         sodipodi:rx="12.5"
         sodipodi:ry="12.142858"
         d="m 183.57143,123.07647 c 0,6.70631 -5.59644,12.14286 -12.5,12.14286 -6.90356,0 -12.5,-5.43655 -12.5,-12.14286 0,-6.70632 5.59644,-12.14286 12.5,-12.14286 6.90356,0 12.5,5.43654 12.5,12.14286 z"
         transform="matrix(2.1259843,0,0,2.1885131,61.50168,203.67702)" />
      <path
         transform="matrix(2.1259843,0,0,2.1885131,167.80089,203.67702)"
         d="m 183.57143,123.07647 c 0,6.70631 -5.59644,12.14286 -12.5,12.14286 -6.90356,0 -12.5,-5.43655 -12.5,-12.14286 0,-6.70632 5.59644,-12.14286 12.5,-12.14286 6.90356,0 12.5,5.43654 12.5,12.14286 z"
         sodipodi:ry="12.142858"
         sodipodi:rx="12.5"
         sodipodi:cy="123.07647"
         sodipodi:cx="171.07143"
         id="path4674"
         style="fill:#000000;fill-opacity:1;stroke:none"
         sodipodi:type="arc" />
      <path
         sodipodi:type="arc"
         style="fill:#000000;fill-opacity:1;stroke:none"
         id="path4676"
         sodipodi:cx="171.07143"
         sodipodi:cy="123.07647"
         sodipodi:rx="12.5"
         sodipodi:ry="12.142858"
         d="m 183.57143,123.07647 c 0,6.70631 -5.59644,12.14286 -12.5,12.14286 -6.90356,0 -12.5,-5.43655 -12.5,-12.14286 0,-6.70632 5.59644,-12.14286 12.5,-12.14286 6.90356,0 12.5,5.43654 12.5,12.14286 z"
         transform="matrix(2.1259843,0,0,2.1885131,274.1001,203.67702)" />
      <path
         transform="matrix(2.1259843,0,0,2.1885131,-44.79753,203.67702)"
         d="m 183.57143,123.07647 c 0,6.70631 -5.59644,12.14286 -12.5,12.14286 -6.90356,0 -12.5,-5.43655 -12.5,-12.14286 0,-6.70632 5.59644,-12.14286 12.5,-12.14286 6.90356,0 12.5,5.43654 12.5,12.14286 z"
         sodipodi:ry="12.142858"
         sodipodi:rx="12.5"
         sodipodi:cy="123.07647"
         sodipodi:cx="171.07143"
         id="path4678"
         style="fill:#000000;fill-opacity:1;stroke:none"
         sodipodi:type="arc" />
      <path
         sodipodi:type="arc"
         style="fill:#000000;fill-opacity:1;stroke:none"
         id="path4680"
         sodipodi:cx="171.07143"
         sodipodi:cy="123.07647"
         sodipodi:rx="12.5"
         sodipodi:ry="12.142858"
         d="m 183.57143,123.07647 c 0,6.70631 -5.59644,12.14286 -12.5,12.14286 -6.90356,0 -12.5,-5.43655 -12.5,-12.14286 0,-6.70632 5.59644,-12.14286 12.5,-12.14286 6.90356,0 12.5,5.43654 12.5,12.14286 z"
         transform="matrix(2.1259843,0,0,2.1885131,-151.09674,203.67702)" />
      <path
         transform="matrix(2.1259843,0,0,2.1885131,-257.39595,203.67702)"
         d="m 183.57143,123.07647 c 0,6.70631 -5.59644,12.14286 -12.5,12.14286 -6.90356,0 -12.5,-5.43655 -12.5,-12.14286 0,-6.70632 5.59644,-12.14286 12.5,-12.14286 6.90356,0 12.5,5.43654 12.5,12.14286 z"
         sodipodi:ry="12.142858"
         sodipodi:rx="12.5"
         sodipodi:cy="123.07647"
         sodipodi:cx="171.07143"
         id="path4682"
         style="fill:#000000;fill-opacity:1;stroke:none"
         sodipodi:type="arc" />
    </g>
    <g
       transform="translate(-4.7621301e-7,-159.44881)"
       id="g4684">
      <path
         transform="matrix(2.1259843,0,0,2.1885131,61.50168,203.67702)"
         d="m 183.57143,123.07647 c 0,6.70631 -5.59644,12.14286 -12.5,12.14286 -6.90356,0 -12.5,-5.43655 -12.5,-12.14286 0,-6.70632 5.59644,-12.14286 12.5,-12.14286 6.90356,0 12.5,5.43654 12.5,12.14286 z"
         sodipodi:ry="12.142858"
         sodipodi:rx="12.5"
         sodipodi:cy="123.07647"
         sodipodi:cx="171.07143"
         id="path4686"
         style="fill:#000000;fill-opacity:1;stroke:none"
         sodipodi:type="arc" />
      <path
         sodipodi:type="arc"
         style="fill:#000000;fill-opacity:1;stroke:none"
         id="path4688"
         sodipodi:cx="171.07143"
         sodipodi:cy="123.07647"
         sodipodi:rx="12.5"
         sodipodi:ry="12.142858"
         d="m 183.57143,123.07647 c 0,6.70631 -5.59644,12.14286 -12.5,12.14286 -6.90356,0 -12.5,-5.43655 -12.5,-12.14286 0,-6.70632 5.59644,-12.14286 12.5,-12.14286 6.90356,0 12.5,5.43654 12.5,12.14286 z"
         transform="matrix(2.1259843,0,0,2.1885131,167.80089,203.67702)" />
      <path
         transform="matrix(2.1259843,0,0,2.1885131,274.1001,203.67702)"
         d="m 183.57143,123.07647 c 0,6.70631 -5.59644,12.14286 -12.5,12.14286 -6.90356,0 -12.5,-5.43655 -12.5,-12.14286 0,-6.70632 5.59644,-12.14286 12.5,-12.14286 6.90356,0 12.5,5.43654 12.5,12.14286 z"
         sodipodi:ry="12.142858"
         sodipodi:rx="12.5"
         sodipodi:cy="123.07647"
         sodipodi:cx="171.07143"
         id="path4690"
         style="fill:#000000;fill-opacity:1;stroke:none"
         sodipodi:type="arc" />
      <path
         sodipodi:type="arc"
         style="fill:#000000;fill-opacity:1;stroke:none"
         id="path4692"
         sodipodi:cx="171.07143"
         sodipodi:cy="123.07647"
         sodipodi:rx="12.5"
         sodipodi:ry="12.142858"
         d="m 183.57143,123.07647 c 0,6.70631 -5.59644,12.14286 -12.5,12.14286 -6.90356,0 -12.5,-5.43655 -12.5,-12.14286 0,-6.70632 5.59644,-12.14286 12.5,-12.14286 6.90356,0 12.5,5.43654 12.5,12.14286 z"
         transform="matrix(2.1259843,0,0,2.1885131,-44.79753,203.67702)" />
      <path
         transform="matrix(2.1259843,0,0,2.1885131,-151.09674,203.67702)"
         d="m 183.57143,123.07647 c 0,6.70631 -5.59644,12.14286 -12.5,12.14286 -6.90356,0 -12.5,-5.43655 -12.5,-12.14286 0,-6.70632 5.59644,-12.14286 12.5,-12.14286 6.90356,0 12.5,5.43654 12.5,12.14286 z"
         sodipodi:ry="12.142858"
         sodipodi:rx="12.5"
         sodipodi:cy="123.07647"
         sodipodi:cx="171.07143"
         id="path4694"
         style="fill:#000000;fill-opacity:1;stroke:none"
         sodipodi:type="arc" />
      <path
         sodipodi:type="arc"
         style="fill:#000000;fill-opacity:1;stroke:none"
         id="path4696"
         sodipodi:cx="171.07143"
         sodipodi:cy="123.07647"
         sodipodi:rx="12.5"
         sodipodi:ry="12.142858"
         d="m 183.57143,123.07647 c 0,6.70631 -5.59644,12.14286 -12.5,12.14286 -6.90356,0 -12.5,-5.43655 -12.5,-12.14286 0,-6.70632 5.59644,-12.14286 12.5,-12.14286 6.90356,0 12.5,5.43654 12.5,12.14286 z"
         transform="matrix(2.1259843,0,0,2.1885131,-257.39595,203.67702)" />
    </g>
    <g
       id="g4698"
       transform="translate(-4.7621301e-7,-265.74802)">
      <path
         sodipodi:type="arc"
         style="fill:#000000;fill-opacity:1;stroke:none"
         id="path4700"
         sodipodi:cx="171.07143"
         sodipodi:cy="123.07647"
         sodipodi:rx="12.5"
         sodipodi:ry="12.142858"
         d="m 183.57143,123.07647 c 0,6.70631 -5.59644,12.14286 -12.5,12.14286 -6.90356,0 -12.5,-5.43655 -12.5,-12.14286 0,-6.70632 5.59644,-12.14286 12.5,-12.14286 6.90356,0 12.5,5.43654 12.5,12.14286 z"
         transform="matrix(2.1259843,0,0,2.1885131,61.50168,203.67702)" />
      <path
         transform="matrix(2.1259843,0,0,2.1885131,167.80089,203.67702)"
         d="m 183.57143,123.07647 c 0,6.70631 -5.59644,12.14286 -12.5,12.14286 -6.90356,0 -12.5,-5.43655 -12.5,-12.14286 0,-6.70632 5.59644,-12.14286 12.5,-12.14286 6.90356,0 12.5,5.43654 12.5,12.14286 z"
         sodipodi:ry="12.142858"
         sodipodi:rx="12.5"
         sodipodi:cy="123.07647"
         sodipodi:cx="171.07143"
         id="path4702"
         style="fill:#000000;fill-opacity:1;stroke:none"
         sodipodi:type="arc" />
      <path
         sodipodi:type="arc"
         style="fill:#000000;fill-opacity:1;stroke:none"
         id="path4704"
         sodipodi:cx="171.07143"
         sodipodi:cy="123.07647"
         sodipodi:rx="12.5"
         sodipodi:ry="12.142858"
         d="m 183.57143,123.07647 c 0,6.70631 -5.59644,12.14286 -12.5,12.14286 -6.90356,0 -12.5,-5.43655 -12.5,-12.14286 0,-6.70632 5.59644,-12.14286 12.5,-12.14286 6.90356,0 12.5,5.43654 12.5,12.14286 z"
         transform="matrix(2.1259843,0,0,2.1885131,274.1001,203.67702)" />
      <path
         transform="matrix(2.1259843,0,0,2.1885131,-44.79753,203.67702)"
         d="m 183.57143,123.07647 c 0,6.70631 -5.59644,12.14286 -12.5,12.14286 -6.90356,0 -12.5,-5.43655 -12.5,-12.14286 0,-6.70632 5.59644,-12.14286 12.5,-12.14286 6.90356,0 12.5,5.43654 12.5,12.14286 z"
         sodipodi:ry="12.142858"
         sodipodi:rx="12.5"
         sodipodi:cy="123.07647"
         sodipodi:cx="171.07143"
         id="path4706"
         style="fill:#000000;fill-opacity:1;stroke:none"
         sodipodi:type="arc" />
      <path
         sodipodi:type="arc"
         style="fill:#000000;fill-opacity:1;stroke:none"
         id="path4708"
         sodipodi:cx="171.07143"
         sodipodi:cy="123.07647"
         sodipodi:rx="12.5"
         sodipodi:ry="12.142858"
         d="m 183.57143,123.07647 c 0,6.70631 -5.59644,12.14286 -12.5,12.14286 -6.90356,0 -12.5,-5.43655 -12.5,-12.14286 0,-6.70632 5.59644,-12.14286 12.5,-12.14286 6.90356,0 12.5,5.43654 12.5,12.14286 z"
         transform="matrix(2.1259843,0,0,2.1885131,-151.09674,203.67702)" />
      <path
         transform="matrix(2.1259843,0,0,2.1885131,-257.39595,203.67702)"
         d="m 183.57143,123.07647 c 0,6.70631 -5.59644,12.14286 -12.5,12.14286 -6.90356,0 -12.5,-5.43655 -12.5,-12.14286 0,-6.70632 5.59644,-12.14286 12.5,-12.14286 6.90356,0 12.5,5.43654 12.5,12.14286 z"
         sodipodi:ry="12.142858"
         sodipodi:rx="12.5"
         sodipodi:cy="123.07647"
         sodipodi:cx="171.07143"
         id="path4710"
         style="fill:#000000;fill-opacity:1;stroke:none"
         sodipodi:type="arc" />
    </g>
    <g
       transform="translate(-4.7621301e-7,-372.04723)"
       id="g4712">
      <path
         transform="matrix(2.1259843,0,0,2.1885131,61.50168,203.67702)"
         d="m 183.57143,123.07647 c 0,6.70631 -5.59644,12.14286 -12.5,12.14286 -6.90356,0 -12.5,-5.43655 -12.5,-12.14286 0,-6.70632 5.59644,-12.14286 12.5,-12.14286 6.90356,0 12.5,5.43654 12.5,12.14286 z"
         sodipodi:ry="12.142858"
         sodipodi:rx="12.5"
         sodipodi:cy="123.07647"
         sodipodi:cx="171.07143"
         id="path4714"
         style="fill:#000000;fill-opacity:1;stroke:none"
         sodipodi:type="arc" />
      <path
         sodipodi:type="arc"
         style="fill:#000000;fill-opacity:1;stroke:none"
         id="path4716"
         sodipodi:cx="171.07143"
         sodipodi:cy="123.07647"
         sodipodi:rx="12.5"
         sodipodi:ry="12.142858"
         d="m 183.57143,123.07647 c 0,6.70631 -5.59644,12.14286 -12.5,12.14286 -6.90356,0 -12.5,-5.43655 -12.5,-12.14286 0,-6.70632 5.59644,-12.14286 12.5,-12.14286 6.90356,0 12.5,5.43654 12.5,12.14286 z"
         transform="matrix(2.1259843,0,0,2.1885131,167.80089,203.67702)" />
      <path
         transform="matrix(2.1259843,0,0,2.1885131,274.1001,203.67702)"
         d="m 183.57143,123.07647 c 0,6.70631 -5.59644,12.14286 -12.5,12.14286 -6.90356,0 -12.5,-5.43655 -12.5,-12.14286 0,-6.70632 5.59644,-12.14286 12.5,-12.14286 6.90356,0 12.5,5.43654 12.5,12.14286 z"
         sodipodi:ry="12.142858"
         sodipodi:rx="12.5"
         sodipodi:cy="123.07647"
         sodipodi:cx="171.07143"
         id="path4718"
         style="fill:#000000;fill-opacity:1;stroke:none"
         sodipodi:type="arc" />
      <path
         sodipodi:type="arc"
         style="fill:#000000;fill-opacity:1;stroke:none"
         id="path4720"
         sodipodi:cx="171.07143"
         sodipodi:cy="123.07647"
         sodipodi:rx="12.5"
         sodipodi:ry="12.142858"
         d="m 183.57143,123.07647 c 0,6.70631 -5.59644,12.14286 -12.5,12.14286 -6.90356,0 -12.5,-5.43655 -12.5,-12.14286 0,-6.70632 5.59644,-12.14286 12.5,-12.14286 6.90356,0 12.5,5.43654 12.5,12.14286 z"
         transform="matrix(2.1259843,0,0,2.1885131,-44.79753,203.67702)" />
      <path
         transform="matrix(2.1259843,0,0,2.1885131,-151.09674,203.67702)"
         d="m 183.57143,123.07647 c 0,6.70631 -5.59644,12.14286 -12.5,12.14286 -6.90356,0 -12.5,-5.43655 -12.5,-12.14286 0,-6.70632 5.59644,-12.14286 12.5,-12.14286 6.90356,0 12.5,5.43654 12.5,12.14286 z"
         sodipodi:ry="12.142858"
         sodipodi:rx="12.5"
         sodipodi:cy="123.07647"
         sodipodi:cx="171.07143"
         id="path4722"
         style="fill:#000000;fill-opacity:1;stroke:none"
         sodipodi:type="arc" />
      <path
         sodipodi:type="arc"
         style="fill:#000000;fill-opacity:1;stroke:none"
         id="path4724"
         sodipodi:cx="171.07143"
         sodipodi:cy="123.07647"
         sodipodi:rx="12.5"
         sodipodi:ry="12.142858"
         d="m 183.57143,123.07647 c 0,6.70631 -5.59644,12.14286 -12.5,12.14286 -6.90356,0 -12.5,-5.43655 -12.5,-12.14286 0,-6.70632 5.59644,-12.14286 12.5,-12.14286 6.90356,0 12.5,5.43654 12.5,12.14286 z"
         transform="matrix(2.1259843,0,0,2.1885131,-257.39595,203.67702)" />
    </g>
    <path
       sodipodi:type="arc"
       style="fill:#000000;fill-opacity:1;stroke:none"
       id="path4730"
       sodipodi:cx="171.07143"
       sodipodi:cy="123.07647"
       sodipodi:rx="12.5"
       sodipodi:ry="12.142858"
       d="m 183.57143,123.07647 a 12.5,12.142858 0 1 1 -25,0 12.5,12.142858 0 1 1 25,0 z"
       transform="matrix(2.1259843,0,0,2.1885131,167.80089,363.12584)" />
    <path
       transform="matrix(2.1259843,0,0,2.1885131,274.1001,363.12584)"
       d="m 183.57143,123.07647 a 12.5,12.142858 0 1 1 -25,0 12.5,12.142858 0 1 1 25,0 z"
       sodipodi:ry="12.142858"
       sodipodi:rx="12.5"
       sodipodi:cy="123.07647"
       sodipodi:cx="171.07143"
       id="path4732"
       style="fill:#000000;fill-opacity:1;stroke:none"
       sodipodi:type="arc" />
    <path
       transform="matrix(2.1259843,0,0,2.1885131,-151.09674,363.12584)"
       d="m 183.57143,123.07647 a 12.5,12.142858 0 1 1 -25,0 12.5,12.142858 0 1 1 25,0 z"
       sodipodi:ry="12.142858"
       sodipodi:rx="12.5"
       sodipodi:cy="123.07647"
       sodipodi:cx="171.07143"
       id="path4736"
       style="fill:#000000;fill-opacity:1;stroke:none"
       sodipodi:type="arc" />
    <path
       sodipodi:type="arc"
       style="fill:#000000;fill-opacity:1;stroke:none"
       id="path4738"
       sodipodi:cx="171.07143"
       sodipodi:cy="123.07647"
       sodipodi:rx="12.5"
       sodipodi:ry="12.142858"
       d="m 183.57143,123.07647 a 12.5,12.142858 0 1 1 -25,0 12.5,12.142858 0 1 1 25,0 z"
       transform="matrix(2.1259843,0,0,2.1885131,-257.39595,363.12584)" />
    <g
       transform="translate(-4.7621301e-7,265.74803)"
       id="g4740">
      <path
         transform="matrix(2.1259843,0,0,2.1885131,61.50168,203.67702)"
         d="m 183.57143,123.07647 c 0,6.70631 -5.59644,12.14286 -12.5,12.14286 -6.90356,0 -12.5,-5.43655 -12.5,-12.14286 0,-6.70632 5.59644,-12.14286 12.5,-12.14286 6.90356,0 12.5,5.43654 12.5,12.14286 z"
         sodipodi:ry="12.142858"
         sodipodi:rx="12.5"
         sodipodi:cy="123.07647"
         sodipodi:cx="171.07143"
         id="path4742"
         style="fill:#000000;fill-opacity:1;stroke:none"
         sodipodi:type="arc" />
      <path
         sodipodi:type="arc"
         style="fill:#000000;fill-opacity:1;stroke:none"
         id="path4744"
         sodipodi:cx="171.07143"
         sodipodi:cy="123.07647"
         sodipodi:rx="12.5"
         sodipodi:ry="12.142858"
         d="m 183.57143,123.07647 c 0,6.70631 -5.59644,12.14286 -12.5,12.14286 -6.90356,0 -12.5,-5.43655 -12.5,-12.14286 0,-6.70632 5.59644,-12.14286 12.5,-12.14286 6.90356,0 12.5,5.43654 12.5,12.14286 z"
         transform="matrix(2.1259843,0,0,2.1885131,167.80089,203.67702)" />
      <path
         transform="matrix(2.1259843,0,0,2.1885131,274.1001,203.67702)"
         d="m 183.57143,123.07647 c 0,6.70631 -5.59644,12.14286 -12.5,12.14286 -6.90356,0 -12.5,-5.43655 -12.5,-12.14286 0,-6.70632 5.59644,-12.14286 12.5,-12.14286 6.90356,0 12.5,5.43654 12.5,12.14286 z"
         sodipodi:ry="12.142858"
         sodipodi:rx="12.5"
         sodipodi:cy="123.07647"
         sodipodi:cx="171.07143"
         id="path4746"
         style="fill:#000000;fill-opacity:1;stroke:none"
         sodipodi:type="arc" />
      <path
         sodipodi:type="arc"
         style="fill:#000000;fill-opacity:1;stroke:none"
         id="path4748"
         sodipodi:cx="171.07143"
         sodipodi:cy="123.07647"
         sodipodi:rx="12.5"
         sodipodi:ry="12.142858"
         d="m 183.57143,123.07647 c 0,6.70631 -5.59644,12.14286 -12.5,12.14286 -6.90356,0 -12.5,-5.43655 -12.5,-12.14286 0,-6.70632 5.59644,-12.14286 12.5,-12.14286 6.90356,0 12.5,5.43654 12.5,12.14286 z"
         transform="matrix(2.1259843,0,0,2.1885131,-44.79753,203.67702)" />
      <path
         transform="matrix(2.1259843,0,0,2.1885131,-151.09674,203.67702)"
         d="m 183.57143,123.07647 c 0,6.70631 -5.59644,12.14286 -12.5,12.14286 -6.90356,0 -12.5,-5.43655 -12.5,-12.14286 0,-6.70632 5.59644,-12.14286 12.5,-12.14286 6.90356,0 12.5,5.43654 12.5,12.14286 z"
         sodipodi:ry="12.142858"
         sodipodi:rx="12.5"
         sodipodi:cy="123.07647"
         sodipodi:cx="171.07143"
         id="path4750"
         style="fill:#000000;fill-opacity:1;stroke:none"
         sodipodi:type="arc" />
      <path
         sodipodi:type="arc"
         style="fill:#000000;fill-opacity:1;stroke:none"
         id="path4752"
         sodipodi:cx="171.07143"
         sodipodi:cy="123.07647"
         sodipodi:rx="12.5"
         sodipodi:ry="12.142858"
         d="m 183.57143,123.07647 c 0,6.70631 -5.59644,12.14286 -12.5,12.14286 -6.90356,0 -12.5,-5.43655 -12.5,-12.14286 0,-6.70632 5.59644,-12.14286 12.5,-12.14286 6.90356,0 12.5,5.43654 12.5,12.14286 z"
         transform="matrix(2.1259843,0,0,2.1885131,-257.39595,203.67702)" />
    </g>
    <g
       id="g4754"
       transform="translate(-4.7621301e-7,372.04724)">
      <path
         sodipodi:type="arc"
         style="fill:#000000;fill-opacity:1;stroke:none"
         id="path4756"
         sodipodi:cx="171.07143"
         sodipodi:cy="123.07647"
         sodipodi:rx="12.5"
         sodipodi:ry="12.142858"
         d="m 183.57143,123.07647 c 0,6.70631 -5.59644,12.14286 -12.5,12.14286 -6.90356,0 -12.5,-5.43655 -12.5,-12.14286 0,-6.70632 5.59644,-12.14286 12.5,-12.14286 6.90356,0 12.5,5.43654 12.5,12.14286 z"
         transform="matrix(2.1259843,0,0,2.1885131,61.50168,203.67702)" />
      <path
         transform="matrix(2.1259843,0,0,2.1885131,167.80089,203.67702)"
         d="m 183.57143,123.07647 c 0,6.70631 -5.59644,12.14286 -12.5,12.14286 -6.90356,0 -12.5,-5.43655 -12.5,-12.14286 0,-6.70632 5.59644,-12.14286 12.5,-12.14286 6.90356,0 12.5,5.43654 12.5,12.14286 z"
         sodipodi:ry="12.142858"
         sodipodi:rx="12.5"
         sodipodi:cy="123.07647"
         sodipodi:cx="171.07143"
         id="path4758"
         style="fill:#000000;fill-opacity:1;stroke:none"
         sodipodi:type="arc" />
      <path
         sodipodi:type="arc"
         style="fill:#000000;fill-opacity:1;stroke:none"
         id="path4760"
         sodipodi:cx="171.07143"
         sodipodi:cy="123.07647"
         sodipodi:rx="12.5"
         sodipodi:ry="12.142858"
         d="m 183.57143,123.07647 c 0,6.70631 -5.59644,12.14286 -12.5,12.14286 -6.90356,0 -12.5,-5.43655 -12.5,-12.14286 0,-6.70632 5.59644,-12.14286 12.5,-12.14286 6.90356,0 12.5,5.43654 12.5,12.14286 z"
         transform="matrix(2.1259843,0,0,2.1885131,274.1001,203.67702)" />
      <path
         transform="matrix(2.1259843,0,0,2.1885131,-44.79753,203.67702)"
         d="m 183.57143,123.07647 c 0,6.70631 -5.59644,12.14286 -12.5,12.14286 -6.90356,0 -12.5,-5.43655 -12.5,-12.14286 0,-6.70632 5.59644,-12.14286 12.5,-12.14286 6.90356,0 12.5,5.43654 12.5,12.14286 z"
         sodipodi:ry="12.142858"
         sodipodi:rx="12.5"
         sodipodi:cy="123.07647"
         sodipodi:cx="171.07143"
         id="path4762"
         style="fill:#000000;fill-opacity:1;stroke:none"
         sodipodi:type="arc" />
      <path
         sodipodi:type="arc"
         style="fill:#000000;fill-opacity:1;stroke:none"
         id="path4764"
         sodipodi:cx="171.07143"
         sodipodi:cy="123.07647"
         sodipodi:rx="12.5"
         sodipodi:ry="12.142858"
         d="m 183.57143,123.07647 c 0,6.70631 -5.59644,12.14286 -12.5,12.14286 -6.90356,0 -12.5,-5.43655 -12.5,-12.14286 0,-6.70632 5.59644,-12.14286 12.5,-12.14286 6.90356,0 12.5,5.43654 12.5,12.14286 z"
         transform="matrix(2.1259843,0,0,2.1885131,-151.09674,203.67702)" />
      <path
         transform="matrix(2.1259843,0,0,2.1885131,-257.39595,203.67702)"
         d="m 183.57143,123.07647 c 0,6.70631 -5.59644,12.14286 -12.5,12.14286 -6.90356,0 -12.5,-5.43655 -12.5,-12.14286 0,-6.70632 5.59644,-12.14286 12.5,-12.14286 6.90356,0 12.5,5.43654 12.5,12.14286 z"
         sodipodi:ry="12.142858"
         sodipodi:rx="12.5"
         sodipodi:cy="123.07647"
         sodipodi:cx="171.07143"
         id="path4766"
         style="fill:#000000;fill-opacity:1;stroke:none"
         sodipodi:type="arc" />
    </g>
    <g
       transform="translate(-4.7621301e-7,478.34645)"
       id="g4768">
      <path
         transform="matrix(2.1259843,0,0,2.1885131,61.50168,203.67702)"
         d="m 183.57143,123.07647 c 0,6.70631 -5.59644,12.14286 -12.5,12.14286 -6.90356,0 -12.5,-5.43655 -12.5,-12.14286 0,-6.70632 5.59644,-12.14286 12.5,-12.14286 6.90356,0 12.5,5.43654 12.5,12.14286 z"
         sodipodi:ry="12.142858"
         sodipodi:rx="12.5"
         sodipodi:cy="123.07647"
         sodipodi:cx="171.07143"
         id="path4770"
         style="fill:#000000;fill-opacity:1;stroke:none"
         sodipodi:type="arc" />
      <path
         sodipodi:type="arc"
         style="fill:#000000;fill-opacity:1;stroke:none"
         id="path4772"
         sodipodi:cx="171.07143"
         sodipodi:cy="123.07647"
         sodipodi:rx="12.5"
         sodipodi:ry="12.142858"
         d="m 183.57143,123.07647 c 0,6.70631 -5.59644,12.14286 -12.5,12.14286 -6.90356,0 -12.5,-5.43655 -12.5,-12.14286 0,-6.70632 5.59644,-12.14286 12.5,-12.14286 6.90356,0 12.5,5.43654 12.5,12.14286 z"
         transform="matrix(2.1259843,0,0,2.1885131,167.80089,203.67702)" />
      <path
         transform="matrix(2.1259843,0,0,2.1885131,274.1001,203.67702)"
         d="m 183.57143,123.07647 c 0,6.70631 -5.59644,12.14286 -12.5,12.14286 -6.90356,0 -12.5,-5.43655 -12.5,-12.14286 0,-6.70632 5.59644,-12.14286 12.5,-12.14286 6.90356,0 12.5,5.43654 12.5,12.14286 z"
         sodipodi:ry="12.142858"
         sodipodi:rx="12.5"
         sodipodi:cy="123.07647"
         sodipodi:cx="171.07143"
         id="path4774"
         style="fill:#000000;fill-opacity:1;stroke:none"
         sodipodi:type="arc" />
      <path
         sodipodi:type="arc"
         style="fill:#000000;fill-opacity:1;stroke:none"
         id="path4776"
         sodipodi:cx="171.07143"
         sodipodi:cy="123.07647"
         sodipodi:rx="12.5"
         sodipodi:ry="12.142858"
         d="m 183.57143,123.07647 c 0,6.70631 -5.59644,12.14286 -12.5,12.14286 -6.90356,0 -12.5,-5.43655 -12.5,-12.14286 0,-6.70632 5.59644,-12.14286 12.5,-12.14286 6.90356,0 12.5,5.43654 12.5,12.14286 z"
         transform="matrix(2.1259843,0,0,2.1885131,-44.79753,203.67702)" />
      <path
         transform="matrix(2.1259843,0,0,2.1885131,-151.09674,203.67702)"
         d="m 183.57143,123.07647 c 0,6.70631 -5.59644,12.14286 -12.5,12.14286 -6.90356,0 -12.5,-5.43655 -12.5,-12.14286 0,-6.70632 5.59644,-12.14286 12.5,-12.14286 6.90356,0 12.5,5.43654 12.5,12.14286 z"
         sodipodi:ry="12.142858"
         sodipodi:rx="12.5"
         sodipodi:cy="123.07647"
         sodipodi:cx="171.07143"
         id="path4778"
         style="fill:#000000;fill-opacity:1;stroke:none"
         sodipodi:type="arc" />
      <path
         sodipodi:type="arc"
         style="fill:#000000;fill-opacity:1;stroke:none"
         id="path4780"
         sodipodi:cx="171.07143"
         sodipodi:cy="123.07647"
         sodipodi:rx="12.5"
         sodipodi:ry="12.142858"
         d="m 183.57143,123.07647 c 0,6.70631 -5.59644,12.14286 -12.5,12.14286 -6.90356,0 -12.5,-5.43655 -12.5,-12.14286 0,-6.70632 5.59644,-12.14286 12.5,-12.14286 6.90356,0 12.5,5.43654 12.5,12.14286 z"
         transform="matrix(2.1259843,0,0,2.1885131,-257.39595,203.67702)" />
    </g>
  </g>
</svg>
