ply
format ascii 1.0
Created by Blender3D 246 - www.blender.org, source file: 
element vertex 24
property float x
property float y
property float z
element face 6
property list uchar uint vertex_indices
end_header
0.025000 0.050000 -0.075000 
0.025000 -0.000000 -0.075000 
-0.025000 0.000000 -0.075000 
-0.025000 0.050000 -0.075000 
0.025000 0.050000 0.075000 
-0.025000 0.050000 0.075000 
-0.025000 0.000000 0.075000 
0.025000 -0.000000 0.075000 
0.025000 0.050000 -0.075000 
0.025000 0.050000 0.075000 
0.025000 -0.000000 0.075000 
0.025000 -0.000000 -0.075000 
0.025000 -0.000000 -0.075000 
0.025000 -0.000000 0.075000 
-0.025000 0.000000 0.075000 
-0.025000 0.000000 -0.075000 
-0.025000 0.000000 -0.075000 
-0.025000 0.000000 0.075000 
-0.025000 0.050000 0.075000 
-0.025000 0.050000 -0.075000 
0.025000 0.050000 0.075000 
0.025000 0.050000 -0.075000 
-0.025000 0.050000 -0.075000 
-0.025000 0.050000 0.075000 
4 0 1 2 3 
4 4 5 6 7 
4 8 9 10 11 
4 12 13 14 15 
4 16 17 18 19 
4 20 21 22 23 
