ply
format ascii 1.0
comment Created by Blender3D 248 - www.blender.org, source file: 
element vertex 54
property float x
property float y
property float z
property float nx
property float ny
property float nz
property float s
property float t
element face 24
property list uchar uint vertex_indices
end_header
0.000005 0.032003 -0.060004 0.000031 -0.000061 -1.000000 0.836712 0.509331 
0.037002 0.032001 -0.060002 0.000031 -0.000061 -1.000000 0.836688 0.632632 
0.036999 -0.000000 -0.059999 0.000031 -0.000061 -1.000000 0.918193 0.632524 
0.000002 0.000001 -0.060001 0.000031 -0.000061 -1.000000 0.918215 0.509281 
0.036996 -0.032002 -0.059996 0.000061 -0.000061 -1.000000 0.999697 0.632417 
-0.000001 -0.032000 -0.059999 0.000061 -0.000061 -1.000000 0.999717 0.509230 
-0.036999 -0.031999 -0.060001 0.000061 -0.000061 -1.000000 0.999737 0.386043 
-0.036996 0.000002 -0.060004 0.000031 -0.000061 -1.000000 0.918237 0.386037 
-0.036993 0.032004 -0.060006 0.000031 -0.000061 -1.000000 0.836737 0.386031 
0.036996 -0.000002 0.060004 -0.000031 0.000061 1.000000 0.438119 0.633817 
0.036999 0.031999 0.060001 -0.000061 0.000061 1.000000 0.522609 0.632586 
0.000001 0.032000 0.059999 -0.000061 0.000061 1.000000 0.522664 0.509362 
-0.000002 -0.000001 0.060001 -0.000031 0.000061 1.000000 0.438143 0.509936 
-0.036996 0.032002 0.059996 -0.000061 0.000061 1.000000 0.522719 0.386137 
-0.036999 0.000000 0.059999 -0.000031 0.000061 1.000000 0.438168 0.386055 
-0.037002 -0.032001 0.060002 -0.000031 0.000061 1.000000 0.353616 0.385974 
-0.000005 -0.032003 0.060004 -0.000031 0.000061 1.000000 0.353622 0.510511 
0.036993 -0.032004 0.060006 -0.000031 0.000061 1.000000 0.353628 0.635049 
0.036999 -0.000000 -0.059999 1.000000 -0.000092 0.000000 0.037647 0.740106 
0.037002 0.032001 -0.060002 1.000000 -0.000092 0.000000 0.037574 0.844954 
0.037000 0.032000 -0.000000 1.000000 -0.000092 0.000000 0.195678 0.845627 
0.036997 -0.000002 0.000002 1.000000 -0.000092 0.000000 0.195676 0.740390 
0.036999 0.031999 0.060001 1.000000 -0.000092 0.000000 0.353781 0.846299 
0.036996 -0.000002 0.060004 1.000000 -0.000092 0.000000 0.353705 0.740674 
0.036993 -0.032004 0.060006 1.000000 -0.000092 0.000000 0.353628 0.635049 
0.036995 -0.032003 0.000005 1.000000 -0.000092 0.000000 0.195674 0.635153 
0.036996 -0.032002 -0.059996 1.000000 -0.000092 0.000000 0.037719 0.635257 
-0.000001 -0.032000 -0.059999 -0.000031 -1.000000 0.000000 0.037685 0.510581 
0.036996 -0.032002 -0.059996 -0.000031 -1.000000 0.000000 0.037719 0.635257 
0.036995 -0.032003 0.000005 -0.000031 -1.000000 0.000000 0.195674 0.635153 
-0.000003 -0.032002 0.000003 -0.000031 -1.000000 0.000000 0.195654 0.510546 
0.036993 -0.032004 0.060006 -0.000031 -1.000000 0.000000 0.353628 0.635049 
-0.000005 -0.032003 0.060004 -0.000031 -1.000000 0.000000 0.353622 0.510511 
-0.037002 -0.032001 0.060002 -0.000031 -1.000000 0.000000 0.353616 0.385974 
-0.037000 -0.032000 0.000000 -0.000031 -1.000000 0.000000 0.195634 0.385939 
-0.036999 -0.031999 -0.060001 -0.000031 -1.000000 0.000000 0.037651 0.385904 
-0.036996 0.000002 -0.060004 -1.000000 0.000092 0.000000 0.037600 0.280419 
-0.036999 -0.031999 -0.060001 -1.000000 0.000092 0.000000 0.037651 0.385904 
-0.037000 -0.032000 0.000000 -1.000000 0.000092 0.000000 0.195634 0.385939 
-0.036998 0.000002 -0.000002 -1.000000 0.000092 0.000000 0.195631 0.280485 
-0.037002 -0.032001 0.060002 -1.000000 0.000092 0.000000 0.353616 0.385974 
-0.036999 0.000000 0.059999 -1.000000 0.000092 0.000000 0.353662 0.280551 
-0.036996 0.032002 0.059996 -1.000000 0.000092 0.000000 0.353708 0.175128 
-0.036995 0.032003 -0.000005 -1.000000 0.000092 0.000000 0.195629 0.175031 
-0.036993 0.032004 -0.060006 -1.000000 0.000092 0.000000 0.037550 0.174935 
0.000001 0.032000 0.059999 0.000031 1.000000 0.000000 0.522664 0.509362 
0.036999 0.031999 0.060001 0.000031 1.000000 0.000000 0.522609 0.632586 
0.037000 0.032000 -0.000000 0.000031 1.000000 0.000000 0.679649 0.632609 
0.000003 0.032001 -0.000003 0.000031 1.000000 0.000000 0.679688 0.509346 
0.037002 0.032001 -0.060002 0.000031 1.000000 0.000000 0.836688 0.632632 
0.000005 0.032003 -0.060004 0.000031 1.000000 0.000000 0.836712 0.509331 
-0.036993 0.032004 -0.060006 0.000031 1.000000 0.000000 0.836737 0.386031 
-0.036995 0.032003 -0.000005 0.000031 1.000000 0.000000 0.679728 0.386084 
-0.036996 0.032002 0.059996 0.000031 1.000000 0.000000 0.522719 0.386137 
4 0 1 2 3 
4 2 4 5 3 
4 5 6 7 3 
4 7 8 0 3 
4 9 10 11 12 
4 11 13 14 12 
4 14 15 16 12 
4 16 17 9 12 
4 18 19 20 21 
4 20 22 23 21 
4 23 24 25 21 
4 25 26 18 21 
4 27 28 29 30 
4 29 31 32 30 
4 32 33 34 30 
4 34 35 27 30 
4 36 37 38 39 
4 38 40 41 39 
4 41 42 43 39 
4 43 44 36 39 
4 45 46 47 48 
4 47 49 50 48 
4 50 51 52 48 
4 52 53 45 48 
