ply
format ascii 1.0
comment Created by Blender3D 249 - www.blender.org, source file: 
element vertex 66
property float x
property float y
property float z
property float nx
property float ny
property float nz
element face 48
property list uchar uint vertex_indices
end_header
0.000000 0.000000 -0.070000 0.000000 0.000000 -1.000000 
0.035355 0.035355 -0.070000 0.000000 0.000000 -1.000000 
0.046194 0.019134 -0.070000 0.000000 0.000000 -1.000000 
0.000000 0.000000 0.070000 0.000000 0.000000 1.000000 
0.046194 0.019134 0.070000 0.000000 0.000000 1.000000 
0.035355 0.035355 0.070000 0.000000 0.000000 1.000000 
0.050000 -0.000000 -0.070000 0.000000 0.000000 -1.000000 
0.050000 -0.000000 0.070000 0.000000 0.000000 1.000000 
0.046194 -0.019134 -0.070000 0.000000 0.000000 -1.000000 
0.046194 -0.019134 0.070000 0.000000 0.000000 1.000000 
0.035355 -0.035355 -0.070000 0.000000 0.000000 -1.000000 
0.035355 -0.035355 0.070000 0.000000 0.000000 1.000000 
0.019134 -0.046194 -0.070000 0.000000 0.000000 -1.000000 
0.019134 -0.046194 0.070000 0.000000 0.000000 1.000000 
0.000000 -0.050000 -0.070000 0.000000 0.000000 -1.000000 
-0.000000 -0.050000 0.070000 0.000000 0.000000 1.000000 
-0.019134 -0.046194 -0.070000 0.000000 0.000000 -1.000000 
-0.019134 -0.046194 0.070000 0.000000 0.000000 1.000000 
-0.035355 -0.035355 -0.070000 0.000000 0.000000 -1.000000 
-0.035355 -0.035355 0.070000 0.000000 0.000000 1.000000 
-0.046194 -0.019134 -0.070000 0.000000 0.000000 -1.000000 
-0.046194 -0.019134 0.070000 0.000000 0.000000 1.000000 
-0.050000 -0.000000 -0.070000 0.000000 0.000000 -1.000000 
-0.050000 0.000000 0.070000 0.000000 0.000000 1.000000 
-0.046194 0.019134 -0.070000 0.000000 0.000000 -1.000000 
-0.046194 0.019134 0.070000 0.000000 0.000000 1.000000 
-0.035355 0.035355 -0.070000 0.000000 0.000000 -1.000000 
-0.035355 0.035355 0.070000 0.000000 0.000000 1.000000 
-0.019134 0.046194 -0.070000 0.000000 0.000000 -1.000000 
-0.019134 0.046194 0.070000 0.000000 0.000000 1.000000 
0.000000 0.050000 -0.070000 0.000000 0.000000 -1.000000 
0.000000 0.050000 0.070000 0.000000 0.000000 1.000000 
0.019134 0.046194 -0.070000 0.000000 0.000000 -1.000000 
0.019134 0.046194 0.070000 0.000000 0.000000 1.000000 
0.035355 0.035355 -0.070000 0.707083 0.707083 0.000000 
0.035355 0.035355 0.070000 0.707083 0.707083 0.000000 
0.046194 0.019134 0.070000 0.923856 0.382672 0.000000 
0.046194 0.019134 -0.070000 0.923856 0.382672 0.000000 
0.050000 -0.000000 0.070000 1.000000 0.000000 0.000000 
0.050000 -0.000000 -0.070000 1.000000 0.000000 0.000000 
0.046194 -0.019134 0.070000 0.923856 -0.382672 0.000000 
0.046194 -0.019134 -0.070000 0.923856 -0.382672 0.000000 
0.035355 -0.035355 0.070000 0.707083 -0.707083 0.000000 
0.035355 -0.035355 -0.070000 0.707083 -0.707083 0.000000 
0.019134 -0.046194 0.070000 0.382672 -0.923856 0.000000 
0.019134 -0.046194 -0.070000 0.382672 -0.923856 0.000000 
-0.000000 -0.050000 0.070000 0.000000 -1.000000 0.000000 
0.000000 -0.050000 -0.070000 0.000000 -1.000000 0.000000 
-0.019134 -0.046194 0.070000 -0.382672 -0.923856 0.000000 
-0.019134 -0.046194 -0.070000 -0.382672 -0.923856 0.000000 
-0.035355 -0.035355 0.070000 -0.707083 -0.707083 0.000000 
-0.035355 -0.035355 -0.070000 -0.707083 -0.707083 0.000000 
-0.046194 -0.019134 0.070000 -0.923856 -0.382672 0.000000 
-0.046194 -0.019134 -0.070000 -0.923856 -0.382672 0.000000 
-0.050000 0.000000 0.070000 -1.000000 0.000000 0.000000 
-0.050000 -0.000000 -0.070000 -1.000000 0.000000 0.000000 
-0.046194 0.019134 0.070000 -0.923856 0.382672 0.000000 
-0.046194 0.019134 -0.070000 -0.923856 0.382672 0.000000 
-0.035355 0.035355 0.070000 -0.707083 0.707083 0.000000 
-0.035355 0.035355 -0.070000 -0.707083 0.707083 0.000000 
-0.019134 0.046194 0.070000 -0.382672 0.923856 0.000000 
-0.019134 0.046194 -0.070000 -0.382672 0.923856 0.000000 
0.000000 0.050000 0.070000 0.000000 1.000000 0.000000 
0.000000 0.050000 -0.070000 0.000000 1.000000 0.000000 
0.019134 0.046194 0.070000 0.382672 0.923856 0.000000 
0.019134 0.046194 -0.070000 0.382672 0.923856 0.000000 
3 0 1 2 
3 3 4 5 
3 0 2 6 
3 3 7 4 
3 0 6 8 
3 3 9 7 
3 0 8 10 
3 3 11 9 
3 0 10 12 
3 3 13 11 
3 0 12 14 
3 3 15 13 
3 0 14 16 
3 3 17 15 
3 0 16 18 
3 3 19 17 
3 0 18 20 
3 3 21 19 
3 0 20 22 
3 3 23 21 
3 0 22 24 
3 3 25 23 
3 0 24 26 
3 3 27 25 
3 0 26 28 
3 3 29 27 
3 0 28 30 
3 3 31 29 
3 0 30 32 
3 3 33 31 
3 32 1 0 
3 3 5 33 
4 34 35 36 37 
4 37 36 38 39 
4 39 38 40 41 
4 41 40 42 43 
4 43 42 44 45 
4 45 44 46 47 
4 47 46 48 49 
4 49 48 50 51 
4 51 50 52 53 
4 53 52 54 55 
4 55 54 56 57 
4 57 56 58 59 
4 59 58 60 61 
4 61 60 62 63 
4 63 62 64 65 
4 35 34 65 64 
