<?xml version="1.0" encoding="UTF-8" standalone="no"?>
<!-- Created with Inkscape (http://www.inkscape.org/) -->

<svg
   xmlns:dc="http://purl.org/dc/elements/1.1/"
   xmlns:cc="http://creativecommons.org/ns#"
   xmlns:rdf="http://www.w3.org/1999/02/22-rdf-syntax-ns#"
   xmlns:svg="http://www.w3.org/2000/svg"
   xmlns="http://www.w3.org/2000/svg"
   xmlns:sodipodi="http://sodipodi.sourceforge.net/DTD/sodipodi-0.dtd"
   xmlns:inkscape="http://www.inkscape.org/namespaces/inkscape"
   width="210mm"
   height="297mm"
   id="svg2"
   version="1.1"
   inkscape:version="0.47 r22583"
   sodipodi:docname="circPatternC73.svg">
  <defs
     id="defs4">
    <inkscape:perspective
       sodipodi:type="inkscape:persp3d"
       inkscape:vp_x="0 : 526.18109 : 1"
       inkscape:vp_y="0 : 1000 : 0"
       inkscape:vp_z="744.09448 : 526.18109 : 1"
       inkscape:persp3d-origin="372.04724 : 350.78739 : 1"
       id="perspective10" />
    <inkscape:perspective
       id="perspective3598"
       inkscape:persp3d-origin="0.5 : 0.33333333 : 1"
       inkscape:vp_z="1 : 0.5 : 1"
       inkscape:vp_y="0 : 1000 : 0"
       inkscape:vp_x="0 : 0.5 : 1"
       sodipodi:type="inkscape:persp3d" />
    <inkscape:perspective
       id="perspective3598-7"
       inkscape:persp3d-origin="0.5 : 0.33333333 : 1"
       inkscape:vp_z="1 : 0.5 : 1"
       inkscape:vp_y="0 : 1000 : 0"
       inkscape:vp_x="0 : 0.5 : 1"
       sodipodi:type="inkscape:persp3d" />
    <inkscape:perspective
       id="perspective3598-8"
       inkscape:persp3d-origin="0.5 : 0.33333333 : 1"
       inkscape:vp_z="1 : 0.5 : 1"
       inkscape:vp_y="0 : 1000 : 0"
       inkscape:vp_x="0 : 0.5 : 1"
       sodipodi:type="inkscape:persp3d" />
    <inkscape:perspective
       id="perspective3638"
       inkscape:persp3d-origin="0.5 : 0.33333333 : 1"
       inkscape:vp_z="1 : 0.5 : 1"
       inkscape:vp_y="0 : 1000 : 0"
       inkscape:vp_x="0 : 0.5 : 1"
       sodipodi:type="inkscape:persp3d" />
    <inkscape:perspective
       id="perspective3660"
       inkscape:persp3d-origin="0.5 : 0.33333333 : 1"
       inkscape:vp_z="1 : 0.5 : 1"
       inkscape:vp_y="0 : 1000 : 0"
       inkscape:vp_x="0 : 0.5 : 1"
       sodipodi:type="inkscape:persp3d" />
    <inkscape:perspective
       id="perspective3660-7"
       inkscape:persp3d-origin="0.5 : 0.33333333 : 1"
       inkscape:vp_z="1 : 0.5 : 1"
       inkscape:vp_y="0 : 1000 : 0"
       inkscape:vp_x="0 : 0.5 : 1"
       sodipodi:type="inkscape:persp3d" />
    <inkscape:perspective
       id="perspective3660-0"
       inkscape:persp3d-origin="0.5 : 0.33333333 : 1"
       inkscape:vp_z="1 : 0.5 : 1"
       inkscape:vp_y="0 : 1000 : 0"
       inkscape:vp_x="0 : 0.5 : 1"
       sodipodi:type="inkscape:persp3d" />
    <inkscape:perspective
       id="perspective3700"
       inkscape:persp3d-origin="0.5 : 0.33333333 : 1"
       inkscape:vp_z="1 : 0.5 : 1"
       inkscape:vp_y="0 : 1000 : 0"
       inkscape:vp_x="0 : 0.5 : 1"
       sodipodi:type="inkscape:persp3d" />
    <inkscape:perspective
       id="perspective3726"
       inkscape:persp3d-origin="0.5 : 0.33333333 : 1"
       inkscape:vp_z="1 : 0.5 : 1"
       inkscape:vp_y="0 : 1000 : 0"
       inkscape:vp_x="0 : 0.5 : 1"
       sodipodi:type="inkscape:persp3d" />
    <inkscape:perspective
       id="perspective3754"
       inkscape:persp3d-origin="0.5 : 0.33333333 : 1"
       inkscape:vp_z="1 : 0.5 : 1"
       inkscape:vp_y="0 : 1000 : 0"
       inkscape:vp_x="0 : 0.5 : 1"
       sodipodi:type="inkscape:persp3d" />
    <inkscape:perspective
       id="perspective3782"
       inkscape:persp3d-origin="0.5 : 0.33333333 : 1"
       inkscape:vp_z="1 : 0.5 : 1"
       inkscape:vp_y="0 : 1000 : 0"
       inkscape:vp_x="0 : 0.5 : 1"
       sodipodi:type="inkscape:persp3d" />
    <inkscape:perspective
       id="perspective3822"
       inkscape:persp3d-origin="0.5 : 0.33333333 : 1"
       inkscape:vp_z="1 : 0.5 : 1"
       inkscape:vp_y="0 : 1000 : 0"
       inkscape:vp_x="0 : 0.5 : 1"
       sodipodi:type="inkscape:persp3d" />
    <inkscape:perspective
       id="perspective3850"
       inkscape:persp3d-origin="0.5 : 0.33333333 : 1"
       inkscape:vp_z="1 : 0.5 : 1"
       inkscape:vp_y="0 : 1000 : 0"
       inkscape:vp_x="0 : 0.5 : 1"
       sodipodi:type="inkscape:persp3d" />
    <inkscape:perspective
       id="perspective3898"
       inkscape:persp3d-origin="0.5 : 0.33333333 : 1"
       inkscape:vp_z="1 : 0.5 : 1"
       inkscape:vp_y="0 : 1000 : 0"
       inkscape:vp_x="0 : 0.5 : 1"
       sodipodi:type="inkscape:persp3d" />
    <inkscape:perspective
       id="perspective3920"
       inkscape:persp3d-origin="0.5 : 0.33333333 : 1"
       inkscape:vp_z="1 : 0.5 : 1"
       inkscape:vp_y="0 : 1000 : 0"
       inkscape:vp_x="0 : 0.5 : 1"
       sodipodi:type="inkscape:persp3d" />
    <inkscape:perspective
       id="perspective3920-1"
       inkscape:persp3d-origin="0.5 : 0.33333333 : 1"
       inkscape:vp_z="1 : 0.5 : 1"
       inkscape:vp_y="0 : 1000 : 0"
       inkscape:vp_x="0 : 0.5 : 1"
       sodipodi:type="inkscape:persp3d" />
    <inkscape:perspective
       id="perspective3920-2"
       inkscape:persp3d-origin="0.5 : 0.33333333 : 1"
       inkscape:vp_z="1 : 0.5 : 1"
       inkscape:vp_y="0 : 1000 : 0"
       inkscape:vp_x="0 : 0.5 : 1"
       sodipodi:type="inkscape:persp3d" />
    <inkscape:perspective
       id="perspective3920-28"
       inkscape:persp3d-origin="0.5 : 0.33333333 : 1"
       inkscape:vp_z="1 : 0.5 : 1"
       inkscape:vp_y="0 : 1000 : 0"
       inkscape:vp_x="0 : 0.5 : 1"
       sodipodi:type="inkscape:persp3d" />
    <inkscape:perspective
       id="perspective3969"
       inkscape:persp3d-origin="0.5 : 0.33333333 : 1"
       inkscape:vp_z="1 : 0.5 : 1"
       inkscape:vp_y="0 : 1000 : 0"
       inkscape:vp_x="0 : 0.5 : 1"
       sodipodi:type="inkscape:persp3d" />
    <inkscape:perspective
       id="perspective3991"
       inkscape:persp3d-origin="0.5 : 0.33333333 : 1"
       inkscape:vp_z="1 : 0.5 : 1"
       inkscape:vp_y="0 : 1000 : 0"
       inkscape:vp_x="0 : 0.5 : 1"
       sodipodi:type="inkscape:persp3d" />
    <inkscape:perspective
       id="perspective4013"
       inkscape:persp3d-origin="0.5 : 0.33333333 : 1"
       inkscape:vp_z="1 : 0.5 : 1"
       inkscape:vp_y="0 : 1000 : 0"
       inkscape:vp_x="0 : 0.5 : 1"
       sodipodi:type="inkscape:persp3d" />
    <inkscape:perspective
       id="perspective4035"
       inkscape:persp3d-origin="0.5 : 0.33333333 : 1"
       inkscape:vp_z="1 : 0.5 : 1"
       inkscape:vp_y="0 : 1000 : 0"
       inkscape:vp_x="0 : 0.5 : 1"
       sodipodi:type="inkscape:persp3d" />
    <inkscape:perspective
       id="perspective4057"
       inkscape:persp3d-origin="0.5 : 0.33333333 : 1"
       inkscape:vp_z="1 : 0.5 : 1"
       inkscape:vp_y="0 : 1000 : 0"
       inkscape:vp_x="0 : 0.5 : 1"
       sodipodi:type="inkscape:persp3d" />
    <inkscape:perspective
       id="perspective4079"
       inkscape:persp3d-origin="0.5 : 0.33333333 : 1"
       inkscape:vp_z="1 : 0.5 : 1"
       inkscape:vp_y="0 : 1000 : 0"
       inkscape:vp_x="0 : 0.5 : 1"
       sodipodi:type="inkscape:persp3d" />
    <inkscape:perspective
       id="perspective4101"
       inkscape:persp3d-origin="0.5 : 0.33333333 : 1"
       inkscape:vp_z="1 : 0.5 : 1"
       inkscape:vp_y="0 : 1000 : 0"
       inkscape:vp_x="0 : 0.5 : 1"
       sodipodi:type="inkscape:persp3d" />
    <inkscape:perspective
       id="perspective4134"
       inkscape:persp3d-origin="0.5 : 0.33333333 : 1"
       inkscape:vp_z="1 : 0.5 : 1"
       inkscape:vp_y="0 : 1000 : 0"
       inkscape:vp_x="0 : 0.5 : 1"
       sodipodi:type="inkscape:persp3d" />
    <inkscape:perspective
       id="perspective4174"
       inkscape:persp3d-origin="0.5 : 0.33333333 : 1"
       inkscape:vp_z="1 : 0.5 : 1"
       inkscape:vp_y="0 : 1000 : 0"
       inkscape:vp_x="0 : 0.5 : 1"
       sodipodi:type="inkscape:persp3d" />
    <inkscape:perspective
       id="perspective4233"
       inkscape:persp3d-origin="0.5 : 0.33333333 : 1"
       inkscape:vp_z="1 : 0.5 : 1"
       inkscape:vp_y="0 : 1000 : 0"
       inkscape:vp_x="0 : 0.5 : 1"
       sodipodi:type="inkscape:persp3d" />
    <inkscape:perspective
       id="perspective4273"
       inkscape:persp3d-origin="0.5 : 0.33333333 : 1"
       inkscape:vp_z="1 : 0.5 : 1"
       inkscape:vp_y="0 : 1000 : 0"
       inkscape:vp_x="0 : 0.5 : 1"
       sodipodi:type="inkscape:persp3d" />
    <inkscape:perspective
       id="perspective4313"
       inkscape:persp3d-origin="0.5 : 0.33333333 : 1"
       inkscape:vp_z="1 : 0.5 : 1"
       inkscape:vp_y="0 : 1000 : 0"
       inkscape:vp_x="0 : 0.5 : 1"
       sodipodi:type="inkscape:persp3d" />
    <inkscape:perspective
       id="perspective4353"
       inkscape:persp3d-origin="0.5 : 0.33333333 : 1"
       inkscape:vp_z="1 : 0.5 : 1"
       inkscape:vp_y="0 : 1000 : 0"
       inkscape:vp_x="0 : 0.5 : 1"
       sodipodi:type="inkscape:persp3d" />
    <inkscape:perspective
       id="perspective4393"
       inkscape:persp3d-origin="0.5 : 0.33333333 : 1"
       inkscape:vp_z="1 : 0.5 : 1"
       inkscape:vp_y="0 : 1000 : 0"
       inkscape:vp_x="0 : 0.5 : 1"
       sodipodi:type="inkscape:persp3d" />
    <inkscape:perspective
       id="perspective4433"
       inkscape:persp3d-origin="0.5 : 0.33333333 : 1"
       inkscape:vp_z="1 : 0.5 : 1"
       inkscape:vp_y="0 : 1000 : 0"
       inkscape:vp_x="0 : 0.5 : 1"
       sodipodi:type="inkscape:persp3d" />
    <inkscape:perspective
       id="perspective3815"
       inkscape:persp3d-origin="0.5 : 0.33333333 : 1"
       inkscape:vp_z="1 : 0.5 : 1"
       inkscape:vp_y="0 : 1000 : 0"
       inkscape:vp_x="0 : 0.5 : 1"
       sodipodi:type="inkscape:persp3d" />
    <inkscape:perspective
       id="perspective4220"
       inkscape:persp3d-origin="0.5 : 0.33333333 : 1"
       inkscape:vp_z="1 : 0.5 : 1"
       inkscape:vp_y="0 : 1000 : 0"
       inkscape:vp_x="0 : 0.5 : 1"
       sodipodi:type="inkscape:persp3d" />
    <inkscape:perspective
       id="perspective4263"
       inkscape:persp3d-origin="0.5 : 0.33333333 : 1"
       inkscape:vp_z="1 : 0.5 : 1"
       inkscape:vp_y="0 : 1000 : 0"
       inkscape:vp_x="0 : 0.5 : 1"
       sodipodi:type="inkscape:persp3d" />
    <inkscape:perspective
       id="perspective4285"
       inkscape:persp3d-origin="0.5 : 0.33333333 : 1"
       inkscape:vp_z="1 : 0.5 : 1"
       inkscape:vp_y="0 : 1000 : 0"
       inkscape:vp_x="0 : 0.5 : 1"
       sodipodi:type="inkscape:persp3d" />
    <inkscape:perspective
       id="perspective4557"
       inkscape:persp3d-origin="0.5 : 0.33333333 : 1"
       inkscape:vp_z="1 : 0.5 : 1"
       inkscape:vp_y="0 : 1000 : 0"
       inkscape:vp_x="0 : 0.5 : 1"
       sodipodi:type="inkscape:persp3d" />
    <inkscape:perspective
       id="perspective4607"
       inkscape:persp3d-origin="0.5 : 0.33333333 : 1"
       inkscape:vp_z="1 : 0.5 : 1"
       inkscape:vp_y="0 : 1000 : 0"
       inkscape:vp_x="0 : 0.5 : 1"
       sodipodi:type="inkscape:persp3d" />
  </defs>
  <sodipodi:namedview
     id="base"
     pagecolor="#ffffff"
     bordercolor="#666666"
     borderopacity="1.0"
     inkscape:pageopacity="0.0"
     inkscape:pageshadow="2"
     inkscape:zoom="1.4142136"
     inkscape:cx="616.67568"
     inkscape:cy="382.7124"
     inkscape:document-units="px"
     inkscape:current-layer="layer1"
     showgrid="false"
     inkscape:window-width="1440"
     inkscape:window-height="825"
     inkscape:window-x="0"
     inkscape:window-y="24"
     inkscape:window-maximized="1" />
  <metadata
     id="metadata7">
    <rdf:RDF>
      <cc:Work
         rdf:about="">
        <dc:format>image/svg+xml</dc:format>
        <dc:type
           rdf:resource="http://purl.org/dc/dcmitype/StillImage" />
        <dc:title></dc:title>
      </cc:Work>
    </rdf:RDF>
  </metadata>
  <g
     inkscape:label="Ebene 1"
     inkscape:groupmode="layer"
     id="layer1">
    <g
       id="g4621"
       transform="matrix(1.6666278,0,0,1.6663013,-1040.6792,-435.34021)">
      <path
         transform="matrix(1.0021986,0,0,0.8672872,92.931154,93.645301)"
         d="m 816.70835,630.92651 c 0,20.30727 -14.24621,36.76956 -31.8198,36.76956 -17.57359,0 -31.81981,-16.46229 -31.81981,-36.76956 0,-20.30726 14.24622,-36.76955 31.81981,-36.76955 17.57359,0 31.8198,16.46229 31.8198,36.76955 z"
         sodipodi:ry="36.769554"
         sodipodi:rx="31.819805"
         sodipodi:cy="630.92651"
         sodipodi:cx="784.88855"
         id="path4597-7"
         style="fill:#000000;fill-opacity:1;stroke:none"
         sodipodi:type="arc" />
      <path
         id="path3344"
         style="fill:#ffffff;fill-opacity:1;fill-rule:nonzero;stroke:none"
         d="m 907.16536,624.88104 c 2.79875,4.8475 4.27125,10.3475 4.27125,15.945 l -10.62875,0 c 0,-3.7325 -0.9825,-7.39875 -2.84875,-10.63" />
      <path
         id="path3346"
         style="fill:#ffffff;fill-opacity:1;fill-rule:nonzero;stroke:none"
         d="m 879.54786,608.93604 c 5.5975,0 11.09625,1.47375 15.945,4.2725 l -5.315,9.20625 c -3.2325,-1.86625 -6.89875,-2.84875 -10.63,-2.84875" />
      <path
         id="path3348"
         style="fill:#ffffff;fill-opacity:1;fill-rule:nonzero;stroke:none"
         d="m 851.93036,624.88104 c 2.79875,-4.8475 6.82375,-8.87375 11.6725,-11.6725 l 5.315,9.20625 c -3.2325,1.865 -5.91625,4.54875 -7.7825,7.78125" />
      <path
         id="path3350"
         style="fill:#ffffff;fill-opacity:1;fill-rule:nonzero;stroke:none"
         d="m 879.54786,672.71604 c -17.60375,0 -31.89,-14.2875 -31.89,-31.89 l 10.63,0 c 0,11.735 9.52375,21.26 21.26,21.26" />
      <path
         id="path3352"
         style="fill:#ffffff;fill-opacity:1;fill-rule:nonzero;stroke:none"
         d="m 890.17536,640.83979 c 0,5.8675 -4.7625,10.63 -10.63,10.63 -5.8675,0 -10.63,-4.7625 -10.63,-10.63 0,-5.8675 4.7625,-10.63 10.63,-10.63 5.8675,0 10.63,4.7625 10.63,10.63" />
    </g>
    <g
       id="g4629"
       transform="matrix(1.666432,0,0,1.6663013,-1288.5274,-541.63943)">
      <path
         transform="matrix(1.0021986,0,0,0.8672872,177.98115,93.645301)"
         d="m 816.70835,630.92651 c 0,20.30727 -14.24621,36.76956 -31.8198,36.76956 -17.57359,0 -31.81981,-16.46229 -31.81981,-36.76956 0,-20.30726 14.24622,-36.76955 31.81981,-36.76955 17.57359,0 31.8198,16.46229 31.8198,36.76955 z"
         sodipodi:ry="36.769554"
         sodipodi:rx="31.819805"
         sodipodi:cy="630.92651"
         sodipodi:cx="784.88855"
         id="path4597"
         style="fill:#000000;fill-opacity:1;stroke:none"
         sodipodi:type="arc" />
      <path
         id="path3358"
         style="fill:#ffffff;fill-opacity:1;fill-rule:nonzero;stroke:none"
         d="m 992.20411,624.88104 c 2.79875,4.8475 4.2725,10.3475 4.2725,15.945 l -10.63,0 c 0,-3.7325 -0.9825,-7.39875 -2.84875,-10.63" />
      <path
         id="path3360"
         style="fill:#ffffff;fill-opacity:1;fill-rule:nonzero;stroke:none"
         d="m 936.96911,624.88104 c 5.6975,-9.86625 16.225,-15.945 27.6175,-15.945 l 0,10.63 c -7.595,0 -14.61375,4.0525 -18.41125,10.63" />
      <path
         id="path3362"
         style="fill:#ffffff;fill-opacity:1;fill-rule:nonzero;stroke:none"
         d="m 964.58661,672.71604 c -17.6025,0 -31.89,-14.2875 -31.89,-31.89 l 10.63,0 c 0,11.735 9.525,21.26 21.26,21.26" />
      <path
         id="path3364"
         style="fill:#ffffff;fill-opacity:1;fill-rule:nonzero;stroke:none"
         d="m 975.22536,640.83979 c 0,5.8675 -4.7625,10.63 -10.63,10.63 -5.8675,0 -10.63,-4.7625 -10.63,-10.63 0,-5.8675 4.7625,-10.63 10.63,-10.63 5.8675,0 10.63,4.7625 10.63,10.63" />
    </g>
    <path
       transform="matrix(2.8346457,0,0,2.9180175,-166.02925,273.34102)"
       d="m 183.57143,123.07647 a 12.5,12.142858 0 1 1 -25,0 12.5,12.142858 0 1 1 25,0 z"
       sodipodi:ry="12.142858"
       sodipodi:rx="12.5"
       sodipodi:cy="123.07647"
       sodipodi:cx="171.07143"
       id="path4606"
       style="fill:#000000;fill-opacity:1;stroke:none"
       sodipodi:type="arc" />
    <path
       transform="matrix(1.4173228,0,0,1.4590088,76.434198,452.91066)"
       d="m 183.57143,123.07647 a 12.5,12.142858 0 1 1 -25,0 12.5,12.142858 0 1 1 25,0 z"
       sodipodi:ry="12.142858"
       sodipodi:rx="12.5"
       sodipodi:cy="123.07647"
       sodipodi:cx="171.07143"
       id="path4608"
       style="fill:#ffffff;fill-opacity:1;stroke:none"
       sodipodi:type="arc" />
    <path
       sodipodi:type="arc"
       style="fill:#000000;fill-opacity:1;stroke:none"
       id="path2816-4-6-2-8"
       sodipodi:cx="171.07143"
       sodipodi:cy="123.07647"
       sodipodi:rx="12.5"
       sodipodi:ry="12.142858"
       d="m 183.57143,123.07647 a 12.5,12.142858 0 1 1 -25,0 12.5,12.142858 0 1 1 25,0 z"
       transform="matrix(2.1259843,0,0,2.1885131,61.50168,256.82663)" />
    <path
       transform="matrix(2.1259843,0,0,2.1885131,167.80089,256.82663)"
       d="m 183.57143,123.07647 a 12.5,12.142858 0 1 1 -25,0 12.5,12.142858 0 1 1 25,0 z"
       sodipodi:ry="12.142858"
       sodipodi:rx="12.5"
       sodipodi:cy="123.07647"
       sodipodi:cx="171.07143"
       id="path4648"
       style="fill:#000000;fill-opacity:1;stroke:none"
       sodipodi:type="arc" />
    <path
       sodipodi:type="arc"
       style="fill:#000000;fill-opacity:1;stroke:none"
       id="path4650"
       sodipodi:cx="171.07143"
       sodipodi:cy="123.07647"
       sodipodi:rx="12.5"
       sodipodi:ry="12.142858"
       d="m 183.57143,123.07647 a 12.5,12.142858 0 1 1 -25,0 12.5,12.142858 0 1 1 25,0 z"
       transform="matrix(2.1259843,0,0,2.1885131,274.1001,256.82663)" />
    <path
       sodipodi:type="arc"
       style="fill:#000000;fill-opacity:1;stroke:none"
       id="path4656"
       sodipodi:cx="171.07143"
       sodipodi:cy="123.07647"
       sodipodi:rx="12.5"
       sodipodi:ry="12.142858"
       d="m 183.57143,123.07647 a 12.5,12.142858 0 1 1 -25,0 12.5,12.142858 0 1 1 25,0 z"
       transform="matrix(2.1259843,0,0,2.1885131,-151.09674,256.82663)" />
    <path
       transform="matrix(2.1259843,0,0,2.1885131,-257.39595,256.82663)"
       d="m 183.57143,123.07647 a 12.5,12.142858 0 1 1 -25,0 12.5,12.142858 0 1 1 25,0 z"
       sodipodi:ry="12.142858"
       sodipodi:rx="12.5"
       sodipodi:cy="123.07647"
       sodipodi:cx="171.07143"
       id="path4658"
       style="fill:#000000;fill-opacity:1;stroke:none"
       sodipodi:type="arc" />
    <g
       id="g4670"
       transform="translate(-4.7621301e-7,-53.149604)">
      <path
         sodipodi:type="arc"
         style="fill:#000000;fill-opacity:1;stroke:none"
         id="path4672"
         sodipodi:cx="171.07143"
         sodipodi:cy="123.07647"
         sodipodi:rx="12.5"
         sodipodi:ry="12.142858"
         d="m 183.57143,123.07647 c 0,6.70631 -5.59644,12.14286 -12.5,12.14286 -6.90356,0 -12.5,-5.43655 -12.5,-12.14286 0,-6.70632 5.59644,-12.14286 12.5,-12.14286 6.90356,0 12.5,5.43654 12.5,12.14286 z"
         transform="matrix(2.1259843,0,0,2.1885131,61.50168,203.67702)" />
      <path
         transform="matrix(2.1259843,0,0,2.1885131,167.80089,203.67702)"
         d="m 183.57143,123.07647 c 0,6.70631 -5.59644,12.14286 -12.5,12.14286 -6.90356,0 -12.5,-5.43655 -12.5,-12.14286 0,-6.70632 5.59644,-12.14286 12.5,-12.14286 6.90356,0 12.5,5.43654 12.5,12.14286 z"
         sodipodi:ry="12.142858"
         sodipodi:rx="12.5"
         sodipodi:cy="123.07647"
         sodipodi:cx="171.07143"
         id="path4674"
         style="fill:#000000;fill-opacity:1;stroke:none"
         sodipodi:type="arc" />
      <path
         sodipodi:type="arc"
         style="fill:#000000;fill-opacity:1;stroke:none"
         id="path4676"
         sodipodi:cx="171.07143"
         sodipodi:cy="123.07647"
         sodipodi:rx="12.5"
         sodipodi:ry="12.142858"
         d="m 183.57143,123.07647 c 0,6.70631 -5.59644,12.14286 -12.5,12.14286 -6.90356,0 -12.5,-5.43655 -12.5,-12.14286 0,-6.70632 5.59644,-12.14286 12.5,-12.14286 6.90356,0 12.5,5.43654 12.5,12.14286 z"
         transform="matrix(2.1259843,0,0,2.1885131,274.1001,203.67702)" />
      <path
         transform="matrix(2.1259843,0,0,2.1885131,-44.79753,203.67702)"
         d="m 183.57143,123.07647 c 0,6.70631 -5.59644,12.14286 -12.5,12.14286 -6.90356,0 -12.5,-5.43655 -12.5,-12.14286 0,-6.70632 5.59644,-12.14286 12.5,-12.14286 6.90356,0 12.5,5.43654 12.5,12.14286 z"
         sodipodi:ry="12.142858"
         sodipodi:rx="12.5"
         sodipodi:cy="123.07647"
         sodipodi:cx="171.07143"
         id="path4678"
         style="fill:#000000;fill-opacity:1;stroke:none"
         sodipodi:type="arc" />
      <path
         sodipodi:type="arc"
         style="fill:#000000;fill-opacity:1;stroke:none"
         id="path4680"
         sodipodi:cx="171.07143"
         sodipodi:cy="123.07647"
         sodipodi:rx="12.5"
         sodipodi:ry="12.142858"
         d="m 183.57143,123.07647 c 0,6.70631 -5.59644,12.14286 -12.5,12.14286 -6.90356,0 -12.5,-5.43655 -12.5,-12.14286 0,-6.70632 5.59644,-12.14286 12.5,-12.14286 6.90356,0 12.5,5.43654 12.5,12.14286 z"
         transform="matrix(2.1259843,0,0,2.1885131,-151.09674,203.67702)" />
      <path
         transform="matrix(2.1259843,0,0,2.1885131,-257.39595,203.67702)"
         d="m 183.57143,123.07647 c 0,6.70631 -5.59644,12.14286 -12.5,12.14286 -6.90356,0 -12.5,-5.43655 -12.5,-12.14286 0,-6.70632 5.59644,-12.14286 12.5,-12.14286 6.90356,0 12.5,5.43654 12.5,12.14286 z"
         sodipodi:ry="12.142858"
         sodipodi:rx="12.5"
         sodipodi:cy="123.07647"
         sodipodi:cx="171.07143"
         id="path4682"
         style="fill:#000000;fill-opacity:1;stroke:none"
         sodipodi:type="arc" />
    </g>
    <g
       transform="translate(-4.7621301e-7,-159.44881)"
       id="g4684">
      <path
         transform="matrix(2.1259843,0,0,2.1885131,61.50168,203.67702)"
         d="m 183.57143,123.07647 c 0,6.70631 -5.59644,12.14286 -12.5,12.14286 -6.90356,0 -12.5,-5.43655 -12.5,-12.14286 0,-6.70632 5.59644,-12.14286 12.5,-12.14286 6.90356,0 12.5,5.43654 12.5,12.14286 z"
         sodipodi:ry="12.142858"
         sodipodi:rx="12.5"
         sodipodi:cy="123.07647"
         sodipodi:cx="171.07143"
         id="path4686"
         style="fill:#000000;fill-opacity:1;stroke:none"
         sodipodi:type="arc" />
      <path
         sodipodi:type="arc"
         style="fill:#000000;fill-opacity:1;stroke:none"
         id="path4688"
         sodipodi:cx="171.07143"
         sodipodi:cy="123.07647"
         sodipodi:rx="12.5"
         sodipodi:ry="12.142858"
         d="m 183.57143,123.07647 c 0,6.70631 -5.59644,12.14286 -12.5,12.14286 -6.90356,0 -12.5,-5.43655 -12.5,-12.14286 0,-6.70632 5.59644,-12.14286 12.5,-12.14286 6.90356,0 12.5,5.43654 12.5,12.14286 z"
         transform="matrix(2.1259843,0,0,2.1885131,167.80089,203.67702)" />
      <path
         transform="matrix(2.1259843,0,0,2.1885131,274.1001,203.67702)"
         d="m 183.57143,123.07647 c 0,6.70631 -5.59644,12.14286 -12.5,12.14286 -6.90356,0 -12.5,-5.43655 -12.5,-12.14286 0,-6.70632 5.59644,-12.14286 12.5,-12.14286 6.90356,0 12.5,5.43654 12.5,12.14286 z"
         sodipodi:ry="12.142858"
         sodipodi:rx="12.5"
         sodipodi:cy="123.07647"
         sodipodi:cx="171.07143"
         id="path4690"
         style="fill:#000000;fill-opacity:1;stroke:none"
         sodipodi:type="arc" />
      <path
         sodipodi:type="arc"
         style="fill:#000000;fill-opacity:1;stroke:none"
         id="path4692"
         sodipodi:cx="171.07143"
         sodipodi:cy="123.07647"
         sodipodi:rx="12.5"
         sodipodi:ry="12.142858"
         d="m 183.57143,123.07647 c 0,6.70631 -5.59644,12.14286 -12.5,12.14286 -6.90356,0 -12.5,-5.43655 -12.5,-12.14286 0,-6.70632 5.59644,-12.14286 12.5,-12.14286 6.90356,0 12.5,5.43654 12.5,12.14286 z"
         transform="matrix(2.1259843,0,0,2.1885131,-44.79753,203.67702)" />
      <path
         transform="matrix(2.1259843,0,0,2.1885131,-151.09674,203.67702)"
         d="m 183.57143,123.07647 c 0,6.70631 -5.59644,12.14286 -12.5,12.14286 -6.90356,0 -12.5,-5.43655 -12.5,-12.14286 0,-6.70632 5.59644,-12.14286 12.5,-12.14286 6.90356,0 12.5,5.43654 12.5,12.14286 z"
         sodipodi:ry="12.142858"
         sodipodi:rx="12.5"
         sodipodi:cy="123.07647"
         sodipodi:cx="171.07143"
         id="path4694"
         style="fill:#000000;fill-opacity:1;stroke:none"
         sodipodi:type="arc" />
      <path
         sodipodi:type="arc"
         style="fill:#000000;fill-opacity:1;stroke:none"
         id="path4696"
         sodipodi:cx="171.07143"
         sodipodi:cy="123.07647"
         sodipodi:rx="12.5"
         sodipodi:ry="12.142858"
         d="m 183.57143,123.07647 c 0,6.70631 -5.59644,12.14286 -12.5,12.14286 -6.90356,0 -12.5,-5.43655 -12.5,-12.14286 0,-6.70632 5.59644,-12.14286 12.5,-12.14286 6.90356,0 12.5,5.43654 12.5,12.14286 z"
         transform="matrix(2.1259843,0,0,2.1885131,-257.39595,203.67702)" />
    </g>
    <g
       id="g4698"
       transform="translate(-4.7621301e-7,-265.74802)">
      <path
         sodipodi:type="arc"
         style="fill:#000000;fill-opacity:1;stroke:none"
         id="path4700"
         sodipodi:cx="171.07143"
         sodipodi:cy="123.07647"
         sodipodi:rx="12.5"
         sodipodi:ry="12.142858"
         d="m 183.57143,123.07647 c 0,6.70631 -5.59644,12.14286 -12.5,12.14286 -6.90356,0 -12.5,-5.43655 -12.5,-12.14286 0,-6.70632 5.59644,-12.14286 12.5,-12.14286 6.90356,0 12.5,5.43654 12.5,12.14286 z"
         transform="matrix(2.1259843,0,0,2.1885131,61.50168,203.67702)" />
      <path
         transform="matrix(2.1259843,0,0,2.1885131,167.80089,203.67702)"
         d="m 183.57143,123.07647 c 0,6.70631 -5.59644,12.14286 -12.5,12.14286 -6.90356,0 -12.5,-5.43655 -12.5,-12.14286 0,-6.70632 5.59644,-12.14286 12.5,-12.14286 6.90356,0 12.5,5.43654 12.5,12.14286 z"
         sodipodi:ry="12.142858"
         sodipodi:rx="12.5"
         sodipodi:cy="123.07647"
         sodipodi:cx="171.07143"
         id="path4702"
         style="fill:#000000;fill-opacity:1;stroke:none"
         sodipodi:type="arc" />
      <path
         sodipodi:type="arc"
         style="fill:#000000;fill-opacity:1;stroke:none"
         id="path4704"
         sodipodi:cx="171.07143"
         sodipodi:cy="123.07647"
         sodipodi:rx="12.5"
         sodipodi:ry="12.142858"
         d="m 183.57143,123.07647 c 0,6.70631 -5.59644,12.14286 -12.5,12.14286 -6.90356,0 -12.5,-5.43655 -12.5,-12.14286 0,-6.70632 5.59644,-12.14286 12.5,-12.14286 6.90356,0 12.5,5.43654 12.5,12.14286 z"
         transform="matrix(2.1259843,0,0,2.1885131,274.1001,203.67702)" />
      <path
         transform="matrix(2.1259843,0,0,2.1885131,-44.79753,203.67702)"
         d="m 183.57143,123.07647 c 0,6.70631 -5.59644,12.14286 -12.5,12.14286 -6.90356,0 -12.5,-5.43655 -12.5,-12.14286 0,-6.70632 5.59644,-12.14286 12.5,-12.14286 6.90356,0 12.5,5.43654 12.5,12.14286 z"
         sodipodi:ry="12.142858"
         sodipodi:rx="12.5"
         sodipodi:cy="123.07647"
         sodipodi:cx="171.07143"
         id="path4706"
         style="fill:#000000;fill-opacity:1;stroke:none"
         sodipodi:type="arc" />
      <path
         sodipodi:type="arc"
         style="fill:#000000;fill-opacity:1;stroke:none"
         id="path4708"
         sodipodi:cx="171.07143"
         sodipodi:cy="123.07647"
         sodipodi:rx="12.5"
         sodipodi:ry="12.142858"
         d="m 183.57143,123.07647 c 0,6.70631 -5.59644,12.14286 -12.5,12.14286 -6.90356,0 -12.5,-5.43655 -12.5,-12.14286 0,-6.70632 5.59644,-12.14286 12.5,-12.14286 6.90356,0 12.5,5.43654 12.5,12.14286 z"
         transform="matrix(2.1259843,0,0,2.1885131,-151.09674,203.67702)" />
      <path
         transform="matrix(2.1259843,0,0,2.1885131,-257.39595,203.67702)"
         d="m 183.57143,123.07647 c 0,6.70631 -5.59644,12.14286 -12.5,12.14286 -6.90356,0 -12.5,-5.43655 -12.5,-12.14286 0,-6.70632 5.59644,-12.14286 12.5,-12.14286 6.90356,0 12.5,5.43654 12.5,12.14286 z"
         sodipodi:ry="12.142858"
         sodipodi:rx="12.5"
         sodipodi:cy="123.07647"
         sodipodi:cx="171.07143"
         id="path4710"
         style="fill:#000000;fill-opacity:1;stroke:none"
         sodipodi:type="arc" />
    </g>
    <g
       transform="translate(-4.7621301e-7,-372.04723)"
       id="g4712">
      <path
         transform="matrix(2.1259843,0,0,2.1885131,61.50168,203.67702)"
         d="m 183.57143,123.07647 c 0,6.70631 -5.59644,12.14286 -12.5,12.14286 -6.90356,0 -12.5,-5.43655 -12.5,-12.14286 0,-6.70632 5.59644,-12.14286 12.5,-12.14286 6.90356,0 12.5,5.43654 12.5,12.14286 z"
         sodipodi:ry="12.142858"
         sodipodi:rx="12.5"
         sodipodi:cy="123.07647"
         sodipodi:cx="171.07143"
         id="path4714"
         style="fill:#000000;fill-opacity:1;stroke:none"
         sodipodi:type="arc" />
      <path
         sodipodi:type="arc"
         style="fill:#000000;fill-opacity:1;stroke:none"
         id="path4716"
         sodipodi:cx="171.07143"
         sodipodi:cy="123.07647"
         sodipodi:rx="12.5"
         sodipodi:ry="12.142858"
         d="m 183.57143,123.07647 c 0,6.70631 -5.59644,12.14286 -12.5,12.14286 -6.90356,0 -12.5,-5.43655 -12.5,-12.14286 0,-6.70632 5.59644,-12.14286 12.5,-12.14286 6.90356,0 12.5,5.43654 12.5,12.14286 z"
         transform="matrix(2.1259843,0,0,2.1885131,167.80089,203.67702)" />
      <path
         transform="matrix(2.1259843,0,0,2.1885131,274.1001,203.67702)"
         d="m 183.57143,123.07647 c 0,6.70631 -5.59644,12.14286 -12.5,12.14286 -6.90356,0 -12.5,-5.43655 -12.5,-12.14286 0,-6.70632 5.59644,-12.14286 12.5,-12.14286 6.90356,0 12.5,5.43654 12.5,12.14286 z"
         sodipodi:ry="12.142858"
         sodipodi:rx="12.5"
         sodipodi:cy="123.07647"
         sodipodi:cx="171.07143"
         id="path4718"
         style="fill:#000000;fill-opacity:1;stroke:none"
         sodipodi:type="arc" />
      <path
         sodipodi:type="arc"
         style="fill:#000000;fill-opacity:1;stroke:none"
         id="path4720"
         sodipodi:cx="171.07143"
         sodipodi:cy="123.07647"
         sodipodi:rx="12.5"
         sodipodi:ry="12.142858"
         d="m 183.57143,123.07647 c 0,6.70631 -5.59644,12.14286 -12.5,12.14286 -6.90356,0 -12.5,-5.43655 -12.5,-12.14286 0,-6.70632 5.59644,-12.14286 12.5,-12.14286 6.90356,0 12.5,5.43654 12.5,12.14286 z"
         transform="matrix(2.1259843,0,0,2.1885131,-44.79753,203.67702)" />
      <path
         transform="matrix(2.1259843,0,0,2.1885131,-151.09674,203.67702)"
         d="m 183.57143,123.07647 c 0,6.70631 -5.59644,12.14286 -12.5,12.14286 -6.90356,0 -12.5,-5.43655 -12.5,-12.14286 0,-6.70632 5.59644,-12.14286 12.5,-12.14286 6.90356,0 12.5,5.43654 12.5,12.14286 z"
         sodipodi:ry="12.142858"
         sodipodi:rx="12.5"
         sodipodi:cy="123.07647"
         sodipodi:cx="171.07143"
         id="path4722"
         style="fill:#000000;fill-opacity:1;stroke:none"
         sodipodi:type="arc" />
      <path
         sodipodi:type="arc"
         style="fill:#000000;fill-opacity:1;stroke:none"
         id="path4724"
         sodipodi:cx="171.07143"
         sodipodi:cy="123.07647"
         sodipodi:rx="12.5"
         sodipodi:ry="12.142858"
         d="m 183.57143,123.07647 c 0,6.70631 -5.59644,12.14286 -12.5,12.14286 -6.90356,0 -12.5,-5.43655 -12.5,-12.14286 0,-6.70632 5.59644,-12.14286 12.5,-12.14286 6.90356,0 12.5,5.43654 12.5,12.14286 z"
         transform="matrix(2.1259843,0,0,2.1885131,-257.39595,203.67702)" />
    </g>
    <path
       sodipodi:type="arc"
       style="fill:#000000;fill-opacity:1;stroke:none"
       id="path4730"
       sodipodi:cx="171.07143"
       sodipodi:cy="123.07647"
       sodipodi:rx="12.5"
       sodipodi:ry="12.142858"
       d="m 183.57143,123.07647 a 12.5,12.142858 0 1 1 -25,0 12.5,12.142858 0 1 1 25,0 z"
       transform="matrix(2.1259843,0,0,2.1885131,167.80089,363.12584)" />
    <path
       transform="matrix(2.1259843,0,0,2.1885131,274.1001,363.12584)"
       d="m 183.57143,123.07647 a 12.5,12.142858 0 1 1 -25,0 12.5,12.142858 0 1 1 25,0 z"
       sodipodi:ry="12.142858"
       sodipodi:rx="12.5"
       sodipodi:cy="123.07647"
       sodipodi:cx="171.07143"
       id="path4732"
       style="fill:#000000;fill-opacity:1;stroke:none"
       sodipodi:type="arc" />
    <path
       transform="matrix(2.1259843,0,0,2.1885131,-151.09674,363.12584)"
       d="m 183.57143,123.07647 a 12.5,12.142858 0 1 1 -25,0 12.5,12.142858 0 1 1 25,0 z"
       sodipodi:ry="12.142858"
       sodipodi:rx="12.5"
       sodipodi:cy="123.07647"
       sodipodi:cx="171.07143"
       id="path4736"
       style="fill:#000000;fill-opacity:1;stroke:none"
       sodipodi:type="arc" />
    <path
       sodipodi:type="arc"
       style="fill:#000000;fill-opacity:1;stroke:none"
       id="path4738"
       sodipodi:cx="171.07143"
       sodipodi:cy="123.07647"
       sodipodi:rx="12.5"
       sodipodi:ry="12.142858"
       d="m 183.57143,123.07647 a 12.5,12.142858 0 1 1 -25,0 12.5,12.142858 0 1 1 25,0 z"
       transform="matrix(2.1259843,0,0,2.1885131,-257.39595,363.12584)" />
    <g
       transform="translate(-4.7621301e-7,265.74803)"
       id="g4740">
      <path
         transform="matrix(2.1259843,0,0,2.1885131,61.50168,203.67702)"
         d="m 183.57143,123.07647 c 0,6.70631 -5.59644,12.14286 -12.5,12.14286 -6.90356,0 -12.5,-5.43655 -12.5,-12.14286 0,-6.70632 5.59644,-12.14286 12.5,-12.14286 6.90356,0 12.5,5.43654 12.5,12.14286 z"
         sodipodi:ry="12.142858"
         sodipodi:rx="12.5"
         sodipodi:cy="123.07647"
         sodipodi:cx="171.07143"
         id="path4742"
         style="fill:#000000;fill-opacity:1;stroke:none"
         sodipodi:type="arc" />
      <path
         sodipodi:type="arc"
         style="fill:#000000;fill-opacity:1;stroke:none"
         id="path4744"
         sodipodi:cx="171.07143"
         sodipodi:cy="123.07647"
         sodipodi:rx="12.5"
         sodipodi:ry="12.142858"
         d="m 183.57143,123.07647 c 0,6.70631 -5.59644,12.14286 -12.5,12.14286 -6.90356,0 -12.5,-5.43655 -12.5,-12.14286 0,-6.70632 5.59644,-12.14286 12.5,-12.14286 6.90356,0 12.5,5.43654 12.5,12.14286 z"
         transform="matrix(2.1259843,0,0,2.1885131,167.80089,203.67702)" />
      <path
         transform="matrix(2.1259843,0,0,2.1885131,274.1001,203.67702)"
         d="m 183.57143,123.07647 c 0,6.70631 -5.59644,12.14286 -12.5,12.14286 -6.90356,0 -12.5,-5.43655 -12.5,-12.14286 0,-6.70632 5.59644,-12.14286 12.5,-12.14286 6.90356,0 12.5,5.43654 12.5,12.14286 z"
         sodipodi:ry="12.142858"
         sodipodi:rx="12.5"
         sodipodi:cy="123.07647"
         sodipodi:cx="171.07143"
         id="path4746"
         style="fill:#000000;fill-opacity:1;stroke:none"
         sodipodi:type="arc" />
      <path
         sodipodi:type="arc"
         style="fill:#000000;fill-opacity:1;stroke:none"
         id="path4748"
         sodipodi:cx="171.07143"
         sodipodi:cy="123.07647"
         sodipodi:rx="12.5"
         sodipodi:ry="12.142858"
         d="m 183.57143,123.07647 c 0,6.70631 -5.59644,12.14286 -12.5,12.14286 -6.90356,0 -12.5,-5.43655 -12.5,-12.14286 0,-6.70632 5.59644,-12.14286 12.5,-12.14286 6.90356,0 12.5,5.43654 12.5,12.14286 z"
         transform="matrix(2.1259843,0,0,2.1885131,-44.79753,203.67702)" />
      <path
         transform="matrix(2.1259843,0,0,2.1885131,-151.09674,203.67702)"
         d="m 183.57143,123.07647 c 0,6.70631 -5.59644,12.14286 -12.5,12.14286 -6.90356,0 -12.5,-5.43655 -12.5,-12.14286 0,-6.70632 5.59644,-12.14286 12.5,-12.14286 6.90356,0 12.5,5.43654 12.5,12.14286 z"
         sodipodi:ry="12.142858"
         sodipodi:rx="12.5"
         sodipodi:cy="123.07647"
         sodipodi:cx="171.07143"
         id="path4750"
         style="fill:#000000;fill-opacity:1;stroke:none"
         sodipodi:type="arc" />
      <path
         sodipodi:type="arc"
         style="fill:#000000;fill-opacity:1;stroke:none"
         id="path4752"
         sodipodi:cx="171.07143"
         sodipodi:cy="123.07647"
         sodipodi:rx="12.5"
         sodipodi:ry="12.142858"
         d="m 183.57143,123.07647 c 0,6.70631 -5.59644,12.14286 -12.5,12.14286 -6.90356,0 -12.5,-5.43655 -12.5,-12.14286 0,-6.70632 5.59644,-12.14286 12.5,-12.14286 6.90356,0 12.5,5.43654 12.5,12.14286 z"
         transform="matrix(2.1259843,0,0,2.1885131,-257.39595,203.67702)" />
    </g>
    <g
       id="g4754"
       transform="translate(-4.7621301e-7,372.04724)">
      <path
         sodipodi:type="arc"
         style="fill:#000000;fill-opacity:1;stroke:none"
         id="path4756"
         sodipodi:cx="171.07143"
         sodipodi:cy="123.07647"
         sodipodi:rx="12.5"
         sodipodi:ry="12.142858"
         d="m 183.57143,123.07647 c 0,6.70631 -5.59644,12.14286 -12.5,12.14286 -6.90356,0 -12.5,-5.43655 -12.5,-12.14286 0,-6.70632 5.59644,-12.14286 12.5,-12.14286 6.90356,0 12.5,5.43654 12.5,12.14286 z"
         transform="matrix(2.1259843,0,0,2.1885131,61.50168,203.67702)" />
      <path
         transform="matrix(2.1259843,0,0,2.1885131,167.80089,203.67702)"
         d="m 183.57143,123.07647 c 0,6.70631 -5.59644,12.14286 -12.5,12.14286 -6.90356,0 -12.5,-5.43655 -12.5,-12.14286 0,-6.70632 5.59644,-12.14286 12.5,-12.14286 6.90356,0 12.5,5.43654 12.5,12.14286 z"
         sodipodi:ry="12.142858"
         sodipodi:rx="12.5"
         sodipodi:cy="123.07647"
         sodipodi:cx="171.07143"
         id="path4758"
         style="fill:#000000;fill-opacity:1;stroke:none"
         sodipodi:type="arc" />
      <path
         sodipodi:type="arc"
         style="fill:#000000;fill-opacity:1;stroke:none"
         id="path4760"
         sodipodi:cx="171.07143"
         sodipodi:cy="123.07647"
         sodipodi:rx="12.5"
         sodipodi:ry="12.142858"
         d="m 183.57143,123.07647 c 0,6.70631 -5.59644,12.14286 -12.5,12.14286 -6.90356,0 -12.5,-5.43655 -12.5,-12.14286 0,-6.70632 5.59644,-12.14286 12.5,-12.14286 6.90356,0 12.5,5.43654 12.5,12.14286 z"
         transform="matrix(2.1259843,0,0,2.1885131,274.1001,203.67702)" />
      <path
         transform="matrix(2.1259843,0,0,2.1885131,-44.79753,203.67702)"
         d="m 183.57143,123.07647 c 0,6.70631 -5.59644,12.14286 -12.5,12.14286 -6.90356,0 -12.5,-5.43655 -12.5,-12.14286 0,-6.70632 5.59644,-12.14286 12.5,-12.14286 6.90356,0 12.5,5.43654 12.5,12.14286 z"
         sodipodi:ry="12.142858"
         sodipodi:rx="12.5"
         sodipodi:cy="123.07647"
         sodipodi:cx="171.07143"
         id="path4762"
         style="fill:#000000;fill-opacity:1;stroke:none"
         sodipodi:type="arc" />
      <path
         sodipodi:type="arc"
         style="fill:#000000;fill-opacity:1;stroke:none"
         id="path4764"
         sodipodi:cx="171.07143"
         sodipodi:cy="123.07647"
         sodipodi:rx="12.5"
         sodipodi:ry="12.142858"
         d="m 183.57143,123.07647 c 0,6.70631 -5.59644,12.14286 -12.5,12.14286 -6.90356,0 -12.5,-5.43655 -12.5,-12.14286 0,-6.70632 5.59644,-12.14286 12.5,-12.14286 6.90356,0 12.5,5.43654 12.5,12.14286 z"
         transform="matrix(2.1259843,0,0,2.1885131,-151.09674,203.67702)" />
      <path
         transform="matrix(2.1259843,0,0,2.1885131,-257.39595,203.67702)"
         d="m 183.57143,123.07647 c 0,6.70631 -5.59644,12.14286 -12.5,12.14286 -6.90356,0 -12.5,-5.43655 -12.5,-12.14286 0,-6.70632 5.59644,-12.14286 12.5,-12.14286 6.90356,0 12.5,5.43654 12.5,12.14286 z"
         sodipodi:ry="12.142858"
         sodipodi:rx="12.5"
         sodipodi:cy="123.07647"
         sodipodi:cx="171.07143"
         id="path4766"
         style="fill:#000000;fill-opacity:1;stroke:none"
         sodipodi:type="arc" />
    </g>
    <g
       transform="translate(-4.7621301e-7,478.34645)"
       id="g4768">
      <path
         transform="matrix(2.1259843,0,0,2.1885131,61.50168,203.67702)"
         d="m 183.57143,123.07647 c 0,6.70631 -5.59644,12.14286 -12.5,12.14286 -6.90356,0 -12.5,-5.43655 -12.5,-12.14286 0,-6.70632 5.59644,-12.14286 12.5,-12.14286 6.90356,0 12.5,5.43654 12.5,12.14286 z"
         sodipodi:ry="12.142858"
         sodipodi:rx="12.5"
         sodipodi:cy="123.07647"
         sodipodi:cx="171.07143"
         id="path4770"
         style="fill:#000000;fill-opacity:1;stroke:none"
         sodipodi:type="arc" />
      <path
         sodipodi:type="arc"
         style="fill:#000000;fill-opacity:1;stroke:none"
         id="path4772"
         sodipodi:cx="171.07143"
         sodipodi:cy="123.07647"
         sodipodi:rx="12.5"
         sodipodi:ry="12.142858"
         d="m 183.57143,123.07647 c 0,6.70631 -5.59644,12.14286 -12.5,12.14286 -6.90356,0 -12.5,-5.43655 -12.5,-12.14286 0,-6.70632 5.59644,-12.14286 12.5,-12.14286 6.90356,0 12.5,5.43654 12.5,12.14286 z"
         transform="matrix(2.1259843,0,0,2.1885131,167.80089,203.67702)" />
      <path
         transform="matrix(2.1259843,0,0,2.1885131,274.1001,203.67702)"
         d="m 183.57143,123.07647 c 0,6.70631 -5.59644,12.14286 -12.5,12.14286 -6.90356,0 -12.5,-5.43655 -12.5,-12.14286 0,-6.70632 5.59644,-12.14286 12.5,-12.14286 6.90356,0 12.5,5.43654 12.5,12.14286 z"
         sodipodi:ry="12.142858"
         sodipodi:rx="12.5"
         sodipodi:cy="123.07647"
         sodipodi:cx="171.07143"
         id="path4774"
         style="fill:#000000;fill-opacity:1;stroke:none"
         sodipodi:type="arc" />
      <path
         sodipodi:type="arc"
         style="fill:#000000;fill-opacity:1;stroke:none"
         id="path4776"
         sodipodi:cx="171.07143"
         sodipodi:cy="123.07647"
         sodipodi:rx="12.5"
         sodipodi:ry="12.142858"
         d="m 183.57143,123.07647 c 0,6.70631 -5.59644,12.14286 -12.5,12.14286 -6.90356,0 -12.5,-5.43655 -12.5,-12.14286 0,-6.70632 5.59644,-12.14286 12.5,-12.14286 6.90356,0 12.5,5.43654 12.5,12.14286 z"
         transform="matrix(2.1259843,0,0,2.1885131,-44.79753,203.67702)" />
      <path
         transform="matrix(2.1259843,0,0,2.1885131,-151.09674,203.67702)"
         d="m 183.57143,123.07647 c 0,6.70631 -5.59644,12.14286 -12.5,12.14286 -6.90356,0 -12.5,-5.43655 -12.5,-12.14286 0,-6.70632 5.59644,-12.14286 12.5,-12.14286 6.90356,0 12.5,5.43654 12.5,12.14286 z"
         sodipodi:ry="12.142858"
         sodipodi:rx="12.5"
         sodipodi:cy="123.07647"
         sodipodi:cx="171.07143"
         id="path4778"
         style="fill:#000000;fill-opacity:1;stroke:none"
         sodipodi:type="arc" />
      <path
         sodipodi:type="arc"
         style="fill:#000000;fill-opacity:1;stroke:none"
         id="path4780"
         sodipodi:cx="171.07143"
         sodipodi:cy="123.07647"
         sodipodi:rx="12.5"
         sodipodi:ry="12.142858"
         d="m 183.57143,123.07647 c 0,6.70631 -5.59644,12.14286 -12.5,12.14286 -6.90356,0 -12.5,-5.43655 -12.5,-12.14286 0,-6.70632 5.59644,-12.14286 12.5,-12.14286 6.90356,0 12.5,5.43654 12.5,12.14286 z"
         transform="matrix(2.1259843,0,0,2.1885131,-257.39595,203.67702)" />
    </g>
  </g>
</svg>
